STARTFONT 2.1
COMMENT
COMMENT Converted from OpenType font "7segment.ttf" by "otf2bdf 3.0".
COMMENT
FONT -FreeType-Seven Segment-Medium-R-Normal--111-800-100-100-P-358-ISO10646-1
SIZE 80 100 100
FONTBOUNDINGBOX 256 110 0 -14
STARTPROPERTIES 19
FOUNDRY "FreeType"
FAMILY_NAME "Seven Segment"
WEIGHT_NAME "Medium"
SLANT "R"
SETWIDTH_NAME "Normal"
ADD_STYLE_NAME ""
PIXEL_SIZE 111
POINT_SIZE 800
RESOLUTION_X 100
RESOLUTION_Y 100
SPACING "P"
AVERAGE_WIDTH 358
CHARSET_REGISTRY "ISO10646"
CHARSET_ENCODING "1"
FONT_ASCENT 95
FONT_DESCENT 19
COPYRIGHT "-FreeType-Seven Segment-Medium-R-Normal--111-800-100-100-P-358-ISO10646-1"
_OTF_FONTFILE "7segment.ttf"
_OTF_PSNAME "SevenSegmentRegular"
ENDPROPERTIES
CHARS 164
STARTCHAR 0000
ENCODING 0
SWIDTH 0 0
DWIDTH 0 0
BBX 0 0 0 0
BITMAP
ENDCHAR
STARTCHAR 000A
ENCODING 10
SWIDTH 477 0
DWIDTH 53 0
BBX 0 0 0 0
BITMAP
ENDCHAR
STARTCHAR 000D
ENCODING 13
SWIDTH 477 0
DWIDTH 53 0
BBX 0 0 0 0
BITMAP
ENDCHAR
STARTCHAR 0020
ENCODING 32
SWIDTH 297 0
DWIDTH 33 0
BBX 0 0 0 0
BITMAP
ENDCHAR
STARTCHAR 0021
ENCODING 33
SWIDTH 180 0
DWIDTH 20 0
BBX 7 78 7 0
BITMAP
10
38
7C
FE
FE
FE
FE
FE
FE
FE
FE
FE
FE
FE
FE
FE
FE
FE
FE
FE
FE
FE
FE
FE
FE
FE
FE
FE
FE
FE
FE
FE
FE
FE
FE
FE
FE
FE
FE
FE
FE
FE
FE
FE
FE
FE
FE
FE
FE
FE
FE
FE
FE
FE
FE
FE
FE
FE
FE
FE
FE
FC
78
30
00
00
00
00
30
78
FC
FE
FE
FE
FE
7C
38
10
ENDCHAR
STARTCHAR 0022
ENCODING 34
SWIDTH 279 0
DWIDTH 31 0
BBX 17 11 7 67
BITMAP
100400
380E00
7C1F00
FE1F80
FE3F80
FE3F80
FE3F80
FE1F80
7C1F00
380E00
100400
ENDCHAR
STARTCHAR 0023
ENCODING 35
SWIDTH 549 0
DWIDTH 61 0
BBX 47 52 7 0
BITMAP
000000400300
000003E00F00
000007E01F80
000007E01F80
00000FF03FC0
00000FF03F80
00000FE03F80
00001FE07F80
00001FC07F00
00001FC0FF00
00003FC0FF00
00003F80FE00
00007F81FE00
00007F81FE00
00007F01FC00
1FFFFFFFFFF0
3FFFFFFFFFF8
7FFFFFFFFFFC
FFFFFFFFFFFE
7FFFFFFFFFFC
3FFFFFFFFFF8
1FFFFFFFFFF0
0003F80FE000
0007F81FE000
0007F81FE000
0007F01FC000
000FF03FC000
000FF03F8000
000FE03F8000
001FE07F8000
1FFFFFFFFFF0
3FFFFFFFFFF8
7FFFFFFFFFFC
FFFFFFFFFFFE
7FFFFFFFFFFC
3FFFFFFFFFF8
1FFFFFFFFFF0
00FF03FC0000
00FF03F80000
00FE03F80000
01FE07F80000
01FC07F00000
01FC0FF00000
03FC0FF00000
03F80FE00000
07F81FE00000
07F81FE00000
07F01FC00000
07F01FC00000
03E00F800000
03C00F000000
010004000000
ENDCHAR
STARTCHAR 0024
ENCODING 36
SWIDTH 504 0
DWIDTH 56 0
BBX 42 98 7 -10
BITMAP
00000C000000
00001E000000
00003F000000
00007F000000
00007F000000
00007F000000
00007F000000
00007F000000
00007F000000
00007F000000
00FFFFFFC000
01FFFFFFE000
03FFFFFFF000
07FFFFFFF800
03FFFFFFF000
01FFFFFFE000
30FFFFFFC000
780000000000
FC0000000000
FE0000000000
FE0000000000
FE0000000000
FE0000000000
FE0000000000
FE0000000000
FE0000000000
FE0000000000
FE0000000000
FE0000000000
FE0000000000
FE0000000000
FE0000000000
FE0000000000
FE0000000000
FE0000000000
FE0000000000
FE0000000000
FE0000000000
FE0000000000
FE0000000000
FE0000000000
FE0000000000
FE0000000000
FC0000000000
780000000000
30FFFFFFC000
01FFFFFFE000
03FFFFFFF000
07FFFFFFF800
03FFFFFFF000
01FFFFFFE200
00FFFFFFC700
000000000F80
000000001FC0
000000001FC0
000000001FC0
000000001FC0
000000001FC0
000000001FC0
000000001FC0
000000001FC0
000000001FC0
000000001FC0
000000001FC0
000000001FC0
000000001FC0
000000001FC0
000000001FC0
000000001FC0
000000001FC0
000000001FC0
000000001FC0
000000001FC0
000000001FC0
000000001FC0
000000001FC0
000000001FC0
000000001FC0
000000001FC0
000000001FC0
000000000F80
00FFFFFFC700
01FFFFFFE200
03FFFFFFF000
07FFFFFFF800
03FFFFFFF000
01FFFFFFE000
00FFFFFFC000
00007F000000
00007F000000
00007F000000
00007F000000
00007F000000
00007F000000
00007F000000
00003F000000
00001E000000
00000C000000
ENDCHAR
STARTCHAR 0025
ENCODING 37
SWIDTH 702 0
DWIDTH 78 0
BBX 64 78 7 0
BITMAP
0000000000000600
0000000000007E00
0000000000007E00
000000000000FE00
000000000000FF00
000000000001FE00
000000000001FE00
000000000003FC00
000000000007FC00
000000000007F800
00000000000FF000
00000000000FF000
0FFFC000001FE000
1FFFE000001FE000
1FFFE000003FC000
4FFFC800007FC000
E0001C00007F8000
F0001E0000FF0000
F0001E0000FF0000
F0001E0001FE0000
F0001E0001FE0000
F0001E0003FC0000
F0001E0007FC0000
F0001E0007F80000
F0001E000FF00000
F0001E000FF00000
F0001E001FE00000
F0001E001FE00000
F0001E003FC00000
F0001E007FC00000
F0001E007F800000
F0001E00FF000000
F0001E00FF000000
E0001C01FE000000
4FFFC803FE000000
1FFFE003FC000000
1FFFE007FC000000
0FFFC007F8000000
0000000FF0000000
0000000FF0000000
0000001FE003FFF0
0000003FE007FFF8
0000003FC007FFF8
0000007F8013FFF2
0000007F80380007
000000FF0078000F
000000FF0078000F
000001FE0078000F
000003FE0078000F
000003FC0078000F
000007F80078000F
000007F80078000F
00000FF00078000F
00000FF00078000F
00001FE00078000F
00003FE00078000F
00003FC00078000F
00007F800078000F
00007F800078000F
0000FF000078000F
0000FF000078000F
0001FE0000380007
0003FE000013FFF2
0003FC000007FFF8
0007F8000007FFF8
0007F8000003FFF0
000FF00000000000
000FF00000000000
001FE00000000000
003FE00000000000
003FC00000000000
007F800000000000
007F800000000000
00FF000000000000
007F000000000000
007E000000000000
007E000000000000
0060000000000000
ENDCHAR
STARTCHAR 0026
ENCODING 38
SWIDTH 2358 0
DWIDTH 262 0
BBX 249 78 7 0
BITMAP
00FFFFFFC0000000000000000000000000000000000000000000000000000000
01FFFFFFE0000000000000000000000000000000000000000000000000000000
03FFFFFFF0000000000000000000000000000000000000000000000000000000
07FFFFFFF8000000000000000000000000000000000000000000000000000000
03FFFFFFF0000000000000000000000000000000000000000000000000000000
01FFFFFFE0000000000000000000000000000000000000000000000000000000
30FFFFFFC0000000000000000000000000000000000000000000000000000000
7C00000000000000000000000000000000000000000000000000000000000000
FE00000000000000000000000000000000000000000000000000000000000000
FE00000000000000000000000000000000000000000000000000000000000000
FE00000000000000000000000000000000000000000000000000000000000000
FE00000000000000000000000000000000000000000000000000000000000000
FE00000000000000000000000000000000000000000000000000000000000000
FE00000000000000000000000000000000000000000000000000000000000000
FE00000000000000000000000000000000000000000000000000000000000000
FE00000000000000000000000000000000000000000000000000000000000000
FE00000000000000000000000000000000000000000000000000000000000000
FE00000000000000000000000000000000000000000000000000000000000000
FE00000000000000000000000000000000000000000000000000000000000000
FE00000000000000000000000000000000000000000000000000000000000000
FE00000000000000000000000000000000000000000000000000000000000000
FE00000000000000000000000000000000000000000000000000000000000000
FE00000000000000000000000000000000000000000000000000000000000000
FE00000000000000000000000000000000000000000000000000000000000000
FE00000000000000000000000000000000000000000000000000000000000000
FE00000000000000000000000000000000000000000000000000000000000000
FE00000000000000000000000000000000000000000000000000000000000000
FE00000000000000000000000000000000000000000000000000000000000000
FE00000000000000000000000000000000000000000000000000000000000000
FE00000000000000000000000000000000000000000000000000000000000000
FE00000000000000000000000000000000000000000000000000000000000000
FE00000000000000000000000000000000000000000000000000000000000000
FE00000000000000000000000000000000000000000000000000000000000000
FC00000000000000000000000000000000000000000000000000000000000000
7800000000000000000000000000000000000000000000000000000000000000
30FFFFFFC000000FFFFFF8000001FFFFFF8000001FFFFFF80000000FFFFFFC00
01FFFFFFE000001FFFFFFC000003FFFFFFC000003FFFFFFC0000001FFFFFFE00
03FFFFFFF000003FFFFFFE000007FFFFFFE000007FFFFFFE0000003FFFFFFF00
07FFFFFFF800007FFFFFFF00000FFFFFFFF00000FFFFFFFF0000007FFFFFFF80
03FFFFFFF000003FFFFFFE000007FFFFFFE000007FFFFFFE0000003FFFFFFF00
01FFFFFFE000001FFFFFFC000023FFFFFFC000003FFFFFFC4000011FFFFFFE00
30FFFFFFC000030FFFFFF8000071FFFFFF8000061FFFFFF8E000030FFFFFFC00
78000000000007800000000000F800000000000F00000001F000078000000000
FC00000000000FC00000000001FC00000000001F80000003F8000FC000000000
FE00000000001FC00000000001FC00000000001FC0000003F8000FE000000000
FE00000000001FC00000000001FC00000000001FC0000003F8000FE000000000
FE00000000001FC00000000001FC00000000001FC0000003F8000FE000000000
FE00000000001FC00000000001FC00000000001FC0000003F8000FE000000000
FE00000000001FC00000000001FC00000000001FC0000003F8000FE000000000
FE00000000001FC00000000001FC00000000001FC0000003F8000FE000000000
FE00000000001FC00000000001FC00000000001FC0000003F8000FE000000000
FE00000000001FC00000000001FC00000000001FC0000003F8000FE000000000
FE00000000001FC00000000001FC00000000001FC0000003F8000FE000000000
FE00000000001FC00000000001FC00000000001FC0000003F8000FE000000000
FE00000000001FC00000000001FC00000000001FC0000003F8000FE000000000
FE00000000001FC00000000001FC00000000001FC0000003F8000FE000000000
FE00000000001FC00000000001FC00000000001FC0000003F8000FE000000000
FE00000000001FC00000000001FC00000000001FC0000003F8000FE000000000
FE00000000001FC00000000001FC00000000001FC0000003F8000FE000000000
FE00000000001FC00000000001FC00000000001FC0000003F8000FE000000000
FE00000000001FC00000000001FC00000000001FC0000003F8000FE000000000
FE00000000001FC00000000001FC00000000001FC0000003F8000FE000000000
FE00000000001FC00000000001FC00000000001FC0000003F8000FE000000000
FE00000000001FC00000000001FC00000000001FC0000003F8000FE000000000
FE00000000001FC00000000001FC00000000001FC0000003F8000FE000000000
FE00000000001FC00000000001FC00000000001FC0000003F8000FE000000000
FE00000000001FC00000000001FC00000000001FC0000003F8000FE000000000
FE00000000001FC00000000001FC00000000001FC0000003F8000FE000000000
FE00000000001FC00000000001FC00000000001FC0000003F8000FE000000000
FC00000000001FC00000000001FC00000000001F80000003F8000FE000000000
7800000000001FC00000000001FC00000000000F00000001F0000FE000000000
30FFFFFFC0001FC00000000001FC0000000000061FFFFFF8E0000FE000000000
01FFFFFFE0001FC00000000001FC0000000000003FFFFFFC40000FE000000000
03FFFFFFF0001FC00000000001FC0000000000007FFFFFFE00000FE000000000
07FFFFFFF8001FC00000000001FC000000000000FFFFFFFF00000FE000000000
03FFFFFFF0000F800000000000F80000000000007FFFFFFE000007C000000000
01FFFFFFE00007000000000000700000000000003FFFFFFC0000038000000000
00FFFFFFC00002000000000000200000000000001FFFFFF80000010000000000
ENDCHAR
STARTCHAR 0028
ENCODING 40
SWIDTH 378 0
DWIDTH 42 0
BBX 28 78 7 0
BITMAP
00FFFF80
01FFFFC0
03FFFFE0
07FFFFF0
03FFFFF0
01FFFFE0
30FFFFC0
78000000
FC000000
FE000000
FE000000
FE000000
FE000000
FE000000
FE000000
FE000000
FE000000
FE000000
FE000000
FE000000
FE000000
FE000000
FE000000
FE000000
FE000000
FE000000
FE000000
FE000000
FE000000
FE000000
FE000000
FE000000
FE000000
FE000000
7C000000
78000000
30000000
00000000
00000000
00000000
00000000
30000000
78000000
FC000000
FE000000
FE000000
FE000000
FE000000
FE000000
FE000000
FE000000
FE000000
FE000000
FE000000
FE000000
FE000000
FE000000
FE000000
FE000000
FE000000
FE000000
FE000000
FE000000
FE000000
FE000000
FE000000
FE000000
FE000000
FE000000
FC000000
78000000
30FFFF80
01FFFFC0
03FFFFE0
07FFFFF0
03FFFFE0
01FFFFC0
00FFFF80
ENDCHAR
STARTCHAR 0029
ENCODING 41
SWIDTH 378 0
DWIDTH 42 0
BBX 29 78 7 0
BITMAP
1FFFF000
3FFFF800
7FFFFC00
FFFFFE00
7FFFFC00
3FFFF800
1FFFF0C0
000001E0
000003F0
000007F8
000007F8
000007F8
000007F8
000007F8
000007F8
000007F8
000007F8
000007F8
000007F8
000007F8
000007F8
000007F8
000007F8
000007F8
000007F8
000007F8
000007F8
000007F8
000007F8
000007F8
000007F8
000007F8
000007F8
000007F8
000003F0
000001E0
000000C0
00000000
00000000
00000000
00000000
000000C0
000001E0
000003F0
000007F8
000007F8
000007F8
000007F8
000007F8
000007F8
000007F8
000007F8
000007F8
000007F8
000007F8
000007F8
000007F8
000007F8
000007F8
000007F8
000007F8
000007F8
000007F8
000007F8
000007F8
000007F8
000007F8
000007F8
000007F8
000003F0
000001E0
1FFFF0C0
3FFFF800
7FFFFC00
FFFFFE00
7FFFFC00
3FFFF800
1FFFF000
ENDCHAR
STARTCHAR 002A
ENCODING 42
SWIDTH 414 0
DWIDTH 46 0
BBX 32 37 7 55
BITMAP
00018000
0003C000
0007E000
000FE000
000FE000
000FE000
000FE000
000FE000
180FE018
FE0FE07F
FF8FE1FF
FFCFE7FF
7FFFEFFE
7FFFFFFE
3FFFFFFC
1FFFFFF8
07FFFFE0
01FFFF80
007FFE00
01FFFF00
03FFFFC0
0FFFFFF0
3FFFFFFC
7FFFFFFE
7FFFFFFE
FFEFE7FE
FFCFE3FF
FF0FE0FF
7C0FE03E
000FE000
000FE000
000FE000
000FE000
000FE000
0007E000
0003C000
00018000
ENDCHAR
STARTCHAR 002B
ENCODING 43
SWIDTH 657 0
DWIDTH 73 0
BBX 60 59 7 5
BITMAP
0000000600000000
0000000F00000000
0000001F80000000
0000003F80000000
0000003F80000000
0000003F80000000
0000003F80000000
0000003F80000000
0000003F80000000
0000003F80000000
0000003F80000000
0000003F80000000
0000003F80000000
0000003F80000000
0000003F80000000
0000003F80000000
0000003F80000000
0000003F80000000
0000003F80000000
0000003F80000000
0000003F80000000
0000003F80000000
0000003F80000000
0000003F80000000
0000003F80000000
0000001F00000000
1FFFFF8E1FFFFF80
3FFFFFC43FFFFFC0
7FFFFFE07FFFFFE0
FFFFFFF0FFFFFFF0
7FFFFFE07FFFFFE0
3FFFFFC03FFFFFC0
1FFFFF861FFFFF80
0000000F00000000
0000001F80000000
0000003F80000000
0000003F80000000
0000003F80000000
0000003F80000000
0000003F80000000
0000003F80000000
0000003F80000000
0000003F80000000
0000003F80000000
0000003F80000000
0000003F80000000
0000003F80000000
0000003F80000000
0000003F80000000
0000003F80000000
0000003F80000000
0000003F80000000
0000003F80000000
0000003F80000000
0000003F80000000
0000003F80000000
0000001F80000000
0000000F00000000
0000000600000000
ENDCHAR
STARTCHAR 002C
ENCODING 44
SWIDTH 234 0
DWIDTH 26 0
BBX 12 12 7 0
BITMAP
03F0
07F0
0FF0
1FF0
3FF0
7FE0
FFC0
FF80
FF00
FE00
FC00
F800
ENDCHAR
STARTCHAR 002D
ENCODING 45
SWIDTH 405 0
DWIDTH 45 0
BBX 31 7 7 35
BITMAP
1FFFFFF0
3FFFFFF8
7FFFFFFC
FFFFFFFE
7FFFFFFC
3FFFFFF8
1FFFFFF0
ENDCHAR
STARTCHAR 002E
ENCODING 46
SWIDTH 180 0
DWIDTH 20 0
BBX 7 11 7 0
BITMAP
10
38
7C
FE
FE
FE
FE
FE
7C
38
10
ENDCHAR
STARTCHAR 002F
ENCODING 47
SWIDTH 540 0
DWIDTH 60 0
BBX 46 76 7 1
BITMAP
000000000078
0000000000FC
0000000001FC
0000000001FC
0000000003FC
0000000003FC
0000000007F8
000000000FF8
000000000FF0
000000001FE0
000000001FE0
000000003FC0
000000003FC0
000000007F80
00000000FF80
00000000FF00
00000001FE00
00000001FE00
00000003FC00
00000007FC00
00000007F800
0000000FF800
0000000FF000
0000001FE000
0000001FE000
0000003FC000
0000007FC000
0000007F8000
000000FF0000
000000FF0000
000001FE0000
000001FE0000
000001FC0000
000001FC0000
000001F80000
000000E00000
000000000000
000000000000
000000000000
000004000000
00007C000000
00007E000000
0000FE000000
0000FE000000
0001FE000000
0003FE000000
0003FC000000
0007F8000000
0007F8000000
000FF0000000
000FF0000000
001FE0000000
003FE0000000
003FC0000000
007F80000000
007F80000000
00FF00000000
00FF00000000
01FE00000000
03FE00000000
03FC00000000
07F800000000
07F800000000
0FF000000000
0FF000000000
1FE000000000
3FE000000000
3FC000000000
7F8000000000
7F8000000000
FF0000000000
FF0000000000
FE0000000000
FC0000000000
7C0000000000
600000000000
ENDCHAR
STARTCHAR 0030
ENCODING 48
SWIDTH 504 0
DWIDTH 56 0
BBX 42 78 7 0
BITMAP
00FFFFFFC000
01FFFFFFE000
03FFFFFFF000
07FFFFFFF800
03FFFFFFF000
01FFFFFFE200
30FFFFFFC700
780000000F80
FC0000001FC0
FE0000001FC0
FE0000001FC0
FE0000001FC0
FE0000001FC0
FE0000001FC0
FE0000001FC0
FE0000001FC0
FE0000001FC0
FE0000001FC0
FE0000001FC0
FE0000001FC0
FE0000001FC0
FE0000001FC0
FE0000001FC0
FE0000001FC0
FE0000001FC0
FE0000001FC0
FE0000001FC0
FE0000001FC0
FE0000001FC0
FE0000001FC0
FE0000001FC0
FE0000001FC0
FE0000001FC0
FE0000001FC0
FC0000000F80
780000000700
300000000200
000000000000
000000000000
000000000000
000000000000
100000000200
380000000700
7C0000000F80
FE0000001FC0
FE0000001FC0
FE0000001FC0
FE0000001FC0
FE0000001FC0
FE0000001FC0
FE0000001FC0
FE0000001FC0
FE0000001FC0
FE0000001FC0
FE0000001FC0
FE0000001FC0
FE0000001FC0
FE0000001FC0
FE0000001FC0
FE0000001FC0
FE0000001FC0
FE0000001FC0
FE0000001FC0
FE0000001FC0
FE0000001FC0
FE0000001FC0
FE0000001FC0
FE0000001FC0
FE0000001FC0
FC0000001FC0
780000000F80
30FFFFFFC700
01FFFFFFE200
03FFFFFFF000
07FFFFFFF800
03FFFFFFF000
01FFFFFFE000
00FFFFFFC000
ENDCHAR
STARTCHAR 0031
ENCODING 49
SWIDTH 180 0
DWIDTH 20 0
BBX 7 78 7 0
BITMAP
10
38
7C
FE
FE
FE
FE
FE
FE
FE
FE
FE
FE
FE
FE
FE
FE
FE
FE
FE
FE
FE
FE
FE
FE
FE
FE
FE
FE
FE
FE
FE
FE
FE
7C
38
10
00
00
00
00
30
78
FC
FE
FE
FE
FE
FE
FE
FE
FE
FE
FE
FE
FE
FE
FE
FE
FE
FE
FE
FE
FE
FE
FE
FE
FE
FE
FE
FE
FE
FE
FE
FE
7C
38
10
ENDCHAR
STARTCHAR 0032
ENCODING 50
SWIDTH 504 0
DWIDTH 56 0
BBX 42 78 7 0
BITMAP
00FFFFFFC000
01FFFFFFE000
03FFFFFFF000
07FFFFFFF800
03FFFFFFF000
01FFFFFFE200
00FFFFFFC700
000000000F80
000000001FC0
000000001FC0
000000001FC0
000000001FC0
000000001FC0
000000001FC0
000000001FC0
000000001FC0
000000001FC0
000000001FC0
000000001FC0
000000001FC0
000000001FC0
000000001FC0
000000001FC0
000000001FC0
000000001FC0
000000001FC0
000000001FC0
000000001FC0
000000001FC0
000000001FC0
000000001FC0
000000001FC0
000000001FC0
000000001FC0
000000000F80
00FFFFFFC700
01FFFFFFE200
03FFFFFFF000
07FFFFFFF800
03FFFFFFF000
01FFFFFFE000
30FFFFFFC000
780000000000
FC0000000000
FE0000000000
FE0000000000
FE0000000000
FE0000000000
FE0000000000
FE0000000000
FE0000000000
FE0000000000
FE0000000000
FE0000000000
FE0000000000
FE0000000000
FE0000000000
FE0000000000
FE0000000000
FE0000000000
FE0000000000
FE0000000000
FE0000000000
FE0000000000
FE0000000000
FE0000000000
FE0000000000
FE0000000000
FE0000000000
FC0000000000
780000000000
30FFFFFFC000
01FFFFFFE000
03FFFFFFF000
07FFFFFFF800
03FFFFFFF000
01FFFFFFE000
00FFFFFFC000
ENDCHAR
STARTCHAR 0033
ENCODING 51
SWIDTH 450 0
DWIDTH 50 0
BBX 37 78 7 0
BITMAP
1FFFFFF000
3FFFFFF800
7FFFFFFC00
FFFFFFFE00
7FFFFFFC00
3FFFFFF800
1FFFFFF0C0
00000001E0
00000003F0
00000003F8
00000003F8
00000003F8
00000003F8
00000003F8
00000003F8
00000003F8
00000003F8
00000003F8
00000003F8
00000003F8
00000003F8
00000003F8
00000003F8
00000003F8
00000003F8
00000003F8
00000003F8
00000003F8
00000003F8
00000003F8
00000003F8
00000003F8
00000003F8
00000003F0
00000001E0
1FFFFFF0C0
3FFFFFF800
7FFFFFFC00
FFFFFFFE00
7FFFFFFC00
3FFFFFF800
1FFFFFF0C0
00000001E0
00000003F0
00000003F8
00000003F8
00000003F8
00000003F8
00000003F8
00000003F8
00000003F8
00000003F8
00000003F8
00000003F8
00000003F8
00000003F8
00000003F8
00000003F8
00000003F8
00000003F8
00000003F8
00000003F8
00000003F8
00000003F8
00000003F8
00000003F8
00000003F8
00000003F8
00000003F8
00000003F0
00000001E0
1FFFFFF0C0
3FFFFFF800
7FFFFFFC00
FFFFFFFE00
7FFFFFFC00
3FFFFFF800
1FFFFFF000
ENDCHAR
STARTCHAR 0034
ENCODING 52
SWIDTH 504 0
DWIDTH 56 0
BBX 42 78 7 0
BITMAP
100000000200
380000000700
7C0000000F80
FE0000001FC0
FE0000001FC0
FE0000001FC0
FE0000001FC0
FE0000001FC0
FE0000001FC0
FE0000001FC0
FE0000001FC0
FE0000001FC0
FE0000001FC0
FE0000001FC0
FE0000001FC0
FE0000001FC0
FE0000001FC0
FE0000001FC0
FE0000001FC0
FE0000001FC0
FE0000001FC0
FE0000001FC0
FE0000001FC0
FE0000001FC0
FE0000001FC0
FE0000001FC0
FE0000001FC0
FE0000001FC0
FE0000001FC0
FE0000001FC0
FE0000001FC0
FE0000001FC0
FE0000001FC0
FC0000001FC0
780000000F80
30FFFFFFC700
01FFFFFFE200
03FFFFFFF000
07FFFFFFF800
03FFFFFFF000
01FFFFFFE200
00FFFFFFC700
000000000F80
000000001FC0
000000001FC0
000000001FC0
000000001FC0
000000001FC0
000000001FC0
000000001FC0
000000001FC0
000000001FC0
000000001FC0
000000001FC0
000000001FC0
000000001FC0
000000001FC0
000000001FC0
000000001FC0
000000001FC0
000000001FC0
000000001FC0
000000001FC0
000000001FC0
000000001FC0
000000001FC0
000000001FC0
000000001FC0
000000001FC0
000000001FC0
000000001FC0
000000001FC0
000000001FC0
000000001FC0
000000001FC0
000000000F80
000000000700
000000000200
ENDCHAR
STARTCHAR 0035
ENCODING 53
SWIDTH 504 0
DWIDTH 56 0
BBX 42 78 7 0
BITMAP
00FFFFFFC000
01FFFFFFE000
03FFFFFFF000
07FFFFFFF800
03FFFFFFF000
01FFFFFFE000
30FFFFFFC000
780000000000
FC0000000000
FE0000000000
FE0000000000
FE0000000000
FE0000000000
FE0000000000
FE0000000000
FE0000000000
FE0000000000
FE0000000000
FE0000000000
FE0000000000
FE0000000000
FE0000000000
FE0000000000
FE0000000000
FE0000000000
FE0000000000
FE0000000000
FE0000000000
FE0000000000
FE0000000000
FE0000000000
FE0000000000
FE0000000000
FC0000000000
780000000000
30FFFFFFC000
01FFFFFFE000
03FFFFFFF000
07FFFFFFF800
03FFFFFFF000
01FFFFFFE200
00FFFFFFC700
000000000F80
000000001FC0
000000001FC0
000000001FC0
000000001FC0
000000001FC0
000000001FC0
000000001FC0
000000001FC0
000000001FC0
000000001FC0
000000001FC0
000000001FC0
000000001FC0
000000001FC0
000000001FC0
000000001FC0
000000001FC0
000000001FC0
000000001FC0
000000001FC0
000000001FC0
000000001FC0
000000001FC0
000000001FC0
000000001FC0
000000001FC0
000000001FC0
000000000F80
00FFFFFFC700
01FFFFFFE200
03FFFFFFF000
07FFFFFFF800
03FFFFFFF000
01FFFFFFE000
00FFFFFFC000
ENDCHAR
STARTCHAR 0036
ENCODING 54
SWIDTH 504 0
DWIDTH 56 0
BBX 42 78 7 0
BITMAP
00FFFFFFC000
01FFFFFFE000
03FFFFFFF000
07FFFFFFF800
03FFFFFFF000
01FFFFFFE000
30FFFFFFC000
780000000000
FC0000000000
FE0000000000
FE0000000000
FE0000000000
FE0000000000
FE0000000000
FE0000000000
FE0000000000
FE0000000000
FE0000000000
FE0000000000
FE0000000000
FE0000000000
FE0000000000
FE0000000000
FE0000000000
FE0000000000
FE0000000000
FE0000000000
FE0000000000
FE0000000000
FE0000000000
FE0000000000
FE0000000000
FE0000000000
FC0000000000
780000000000
30FFFFFFC000
01FFFFFFE000
03FFFFFFF000
07FFFFFFF800
03FFFFFFF000
01FFFFFFE200
30FFFFFFC700
780000000F80
FC0000001FC0
FE0000001FC0
FE0000001FC0
FE0000001FC0
FE0000001FC0
FE0000001FC0
FE0000001FC0
FE0000001FC0
FE0000001FC0
FE0000001FC0
FE0000001FC0
FE0000001FC0
FE0000001FC0
FE0000001FC0
FE0000001FC0
FE0000001FC0
FE0000001FC0
FE0000001FC0
FE0000001FC0
FE0000001FC0
FE0000001FC0
FE0000001FC0
FE0000001FC0
FE0000001FC0
FE0000001FC0
FE0000001FC0
FC0000001FC0
780000000F80
30FFFFFFC700
01FFFFFFE200
03FFFFFFF000
07FFFFFFF800
03FFFFFFF000
01FFFFFFE000
00FFFFFFC000
ENDCHAR
STARTCHAR 0037
ENCODING 55
SWIDTH 450 0
DWIDTH 50 0
BBX 37 78 7 0
BITMAP
1FFFFFF000
3FFFFFF800
7FFFFFFC00
FFFFFFFE00
7FFFFFFC00
3FFFFFF800
1FFFFFF0C0
00000001E0
00000003F0
00000003F8
00000003F8
00000003F8
00000003F8
00000003F8
00000003F8
00000003F8
00000003F8
00000003F8
00000003F8
00000003F8
00000003F8
00000003F8
00000003F8
00000003F8
00000003F8
00000003F8
00000003F8
00000003F8
00000003F8
00000003F8
00000003F8
00000003F8
00000003F8
00000003F8
00000001F0
00000000E0
0000000040
0000000000
0000000000
0000000000
0000000000
00000000C0
00000001E0
00000003F0
00000003F8
00000003F8
00000003F8
00000003F8
00000003F8
00000003F8
00000003F8
00000003F8
00000003F8
00000003F8
00000003F8
00000003F8
00000003F8
00000003F8
00000003F8
00000003F8
00000003F8
00000003F8
00000003F8
00000003F8
00000003F8
00000003F8
00000003F8
00000003F8
00000003F8
00000003F8
00000003F8
00000003F8
00000003F8
00000003F8
00000003F8
00000001F0
00000000E0
0000000040
ENDCHAR
STARTCHAR 0038
ENCODING 56
SWIDTH 504 0
DWIDTH 56 0
BBX 42 78 7 0
BITMAP
00FFFFFFC000
01FFFFFFE000
03FFFFFFF000
07FFFFFFF800
03FFFFFFF000
01FFFFFFE200
30FFFFFFC700
780000000F80
FC0000001FC0
FE0000001FC0
FE0000001FC0
FE0000001FC0
FE0000001FC0
FE0000001FC0
FE0000001FC0
FE0000001FC0
FE0000001FC0
FE0000001FC0
FE0000001FC0
FE0000001FC0
FE0000001FC0
FE0000001FC0
FE0000001FC0
FE0000001FC0
FE0000001FC0
FE0000001FC0
FE0000001FC0
FE0000001FC0
FE0000001FC0
FE0000001FC0
FE0000001FC0
FE0000001FC0
FE0000001FC0
FC0000001FC0
780000000F80
30FFFFFFC700
01FFFFFFE200
03FFFFFFF000
07FFFFFFF800
03FFFFFFF000
01FFFFFFE200
30FFFFFFC700
780000000F80
FC0000001FC0
FE0000001FC0
FE0000001FC0
FE0000001FC0
FE0000001FC0
FE0000001FC0
FE0000001FC0
FE0000001FC0
FE0000001FC0
FE0000001FC0
FE0000001FC0
FE0000001FC0
FE0000001FC0
FE0000001FC0
FE0000001FC0
FE0000001FC0
FE0000001FC0
FE0000001FC0
FE0000001FC0
FE0000001FC0
FE0000001FC0
FE0000001FC0
FE0000001FC0
FE0000001FC0
FE0000001FC0
FE0000001FC0
FC0000001FC0
780000000F80
30FFFFFFC700
01FFFFFFE200
03FFFFFFF000
07FFFFFFF800
03FFFFFFF000
01FFFFFFE000
00FFFFFFC000
ENDCHAR
STARTCHAR 0039
ENCODING 57
SWIDTH 504 0
DWIDTH 56 0
BBX 42 78 7 0
BITMAP
00FFFFFFC000
01FFFFFFE000
03FFFFFFF000
07FFFFFFF800
03FFFFFFF000
01FFFFFFE200
30FFFFFFC700
780000000F80
FC0000001FC0
FE0000001FC0
FE0000001FC0
FE0000001FC0
FE0000001FC0
FE0000001FC0
FE0000001FC0
FE0000001FC0
FE0000001FC0
FE0000001FC0
FE0000001FC0
FE0000001FC0
FE0000001FC0
FE0000001FC0
FE0000001FC0
FE0000001FC0
FE0000001FC0
FE0000001FC0
FE0000001FC0
FE0000001FC0
FE0000001FC0
FE0000001FC0
FE0000001FC0
FE0000001FC0
FE0000001FC0
FC0000001FC0
780000000F80
30FFFFFFC700
01FFFFFFE200
03FFFFFFF000
07FFFFFFF800
03FFFFFFF000
01FFFFFFE200
00FFFFFFC700
000000000F80
000000001FC0
000000001FC0
000000001FC0
000000001FC0
000000001FC0
000000001FC0
000000001FC0
000000001FC0
000000001FC0
000000001FC0
000000001FC0
000000001FC0
000000001FC0
000000001FC0
000000001FC0
000000001FC0
000000001FC0
000000001FC0
000000001FC0
000000001FC0
000000001FC0
000000001FC0
000000001FC0
000000001FC0
000000001FC0
000000001FC0
000000001FC0
000000000F80
00FFFFFFC700
01FFFFFFE200
03FFFFFFF000
07FFFFFFF800
03FFFFFFF000
01FFFFFFE000
00FFFFFFC000
ENDCHAR
STARTCHAR 003A
ENCODING 58
SWIDTH 180 0
DWIDTH 20 0
BBX 7 32 7 0
BITMAP
10
38
7C
FE
FE
FE
FE
FC
78
30
00
00
00
00
00
00
00
00
00
00
00
00
30
78
FC
FE
FE
FE
FE
7C
38
10
ENDCHAR
STARTCHAR 003C
ENCODING 60
SWIDTH 288 0
DWIDTH 32 0
BBX 18 78 7 0
BITMAP
000180
000780
000FC0
001FC0
001FC0
001FC0
003FC0
003F80
007F80
007F80
007F00
00FF00
00FE00
01FE00
01FE00
01FC00
03FC00
03F800
07F800
07F800
07F000
0FF000
0FE000
1FE000
1FE000
1FC000
3FC000
3F8000
7F8000
7F8000
7F0000
FF0000
FE0000
FE0000
FE0000
7C0000
700000
000000
000000
000000
000000
700000
7C0000
FE0000
FE0000
FE0000
FF0000
7F0000
7F8000
7F8000
3F8000
3FC000
1FC000
1FE000
1FE000
0FE000
0FF000
07F000
07F800
07F800
03F800
03FC00
01FC00
01FE00
01FE00
00FE00
00FF00
007F00
007F80
007F80
003F80
003FC0
001FC0
001FC0
001FC0
000FC0
000780
000180
ENDCHAR
STARTCHAR 003D
ENCODING 61
SWIDTH 549 0
DWIDTH 61 0
BBX 47 27 7 17
BITMAP
1FFFFFFFFFF0
3FFFFFFFFFF8
7FFFFFFFFFFC
FFFFFFFFFFFE
7FFFFFFFFFFC
3FFFFFFFFFF8
1FFFFFFFFFF0
000000000000
000000000000
000000000000
000000000000
000000000000
000000000000
000000000000
000000000000
000000000000
000000000000
000000000000
000000000000
000000000000
1FFFFFFFFFF0
3FFFFFFFFFF8
7FFFFFFFFFFC
FFFFFFFFFFFE
7FFFFFFFFFFC
3FFFFFFFFFF8
1FFFFFFFFFF0
ENDCHAR
STARTCHAR 003E
ENCODING 62
SWIDTH 288 0
DWIDTH 32 0
BBX 18 78 7 0
BITMAP
600000
780000
7C0000
FE0000
FE0000
FF0000
FF0000
7F0000
7F8000
3F8000
3FC000
3FC000
1FC000
1FE000
0FE000
0FF000
0FF000
07F000
07F800
03F800
03F800
03FC00
01FC00
01FE00
00FE00
00FE00
00FF00
007F00
007F80
007F80
003F80
003FC0
001FC0
001FC0
001FC0
000F80
000380
000080
000000
000000
000080
000380
000F80
001FC0
001FC0
001FC0
003FC0
003F80
007F80
007F80
007F00
00FF00
00FE00
00FE00
01FE00
01FC00
03FC00
03FC00
03F800
07F800
07F000
0FF000
0FF000
0FE000
1FE000
1FC000
3FC000
3FC000
3F8000
7F8000
7F0000
FF0000
FF0000
FE0000
FE0000
7C0000
780000
600000
ENDCHAR
STARTCHAR 003F
ENCODING 63
SWIDTH 504 0
DWIDTH 56 0
BBX 42 78 7 0
BITMAP
00FFFFFFC000
01FFFFFFE000
03FFFFFFF000
07FFFFFFF800
03FFFFFFF000
01FFFFFFE200
00FFFFFFC700
000000000F80
000000001FC0
000000001FC0
000000001FC0
000000001FC0
000000001FC0
000000001FC0
000000001FC0
000000001FC0
000000001FC0
000000001FC0
000000001FC0
000000001FC0
000000001FC0
000000001FC0
000000001FC0
000000001FC0
000000001FC0
000000001FC0
000000001FC0
000000001FC0
000000001FC0
000000001FC0
000000001FC0
000000001FC0
000000001FC0
000000001FC0
000000001FC0
000000000F80
00FFFFFFC700
01FFFFFFE200
03FFFFFFF000
07FFFFFFF800
03FFFFFFF000
01FFFFFFE000
30FFFFFFC000
780000000000
FC0000000000
FE0000000000
FE0000000000
FE0000000000
FE0000000000
FE0000000000
FE0000000000
FE0000000000
FE0000000000
FE0000000000
FE0000000000
FE0000000000
FE0000000000
FE0000000000
FE0000000000
FE0000000000
FE0000000000
FC0000000000
780000000000
300000000000
000000000000
000000000000
000000000000
000000000000
300000000000
780000000000
FC0000000000
FE0000000000
FE0000000000
FE0000000000
FE0000000000
7C0000000000
380000000000
100000000000
ENDCHAR
STARTCHAR 0040
ENCODING 64
SWIDTH 504 0
DWIDTH 56 0
BBX 42 78 7 0
BITMAP
00FFFFFFC000
01FFFFFFE000
03FFFFFFF000
07FFFFFFF800
03FFFFFFF000
01FFFFFFE200
30FFFFFFC700
780000000F80
FC0000001FC0
FE0000001FC0
FE0000001FC0
FE0000001FC0
FE0000001FC0
FE0000001FC0
FE0000001FC0
FE0000001FC0
FE0000001FC0
FE0000001FC0
FE0007FFDFC0
FE000FFFDFC0
FE001FFFDFC0
FE003FFFDFC0
FE001FFFDFC0
FE000FFFDFC0
FE0187FFDFC0
FE03C0001FC0
FE07E0001FC0
FE0FF0001FC0
FE0FF0001FC0
FE0FF0001FC0
FE0FF0001FC0
FE0FF0001FC0
FE0FF0001FC0
FE0FF0001FC0
FC0FF0000F80
780FF0000700
300FF0000200
000FF0000000
000FF0000000
000FF0000000
000FF0000000
100FF0000200
380FF0000700
7C0FF0000F80
FE0FF0001FC0
FE0FF0001FC0
FE0FF0001FC0
FE0FF0001FC0
FE0FF0001FC0
FE0FF0001FC0
FE0FF0001FC0
FE0FF0001FC0
FE07E0001FC0
FE03C0000F80
FE0187FFC700
FE000FFFE200
FE001FFFF000
FE003FFFF800
FE001FFFF000
FE000FFFE000
FE0007FFC000
FE0000000000
FE0000000000
FE0000000000
FE0000000000
FE0000000000
FE0000000000
FE0000000000
FE0000000000
FC0000000000
780000000000
30FFFFFFC000
01FFFFFFE000
03FFFFFFF000
07FFFFFFF800
03FFFFFFF000
01FFFFFFE000
00FFFFFFC000
ENDCHAR
STARTCHAR 0041
ENCODING 65
SWIDTH 504 0
DWIDTH 56 0
BBX 42 78 7 0
BITMAP
00FFFFFFC000
01FFFFFFE000
03FFFFFFF000
07FFFFFFF800
03FFFFFFF000
01FFFFFFE200
30FFFFFFC700
780000000F80
FC0000001FC0
FE0000001FC0
FE0000001FC0
FE0000001FC0
FE0000001FC0
FE0000001FC0
FE0000001FC0
FE0000001FC0
FE0000001FC0
FE0000001FC0
FE0000001FC0
FE0000001FC0
FE0000001FC0
FE0000001FC0
FE0000001FC0
FE0000001FC0
FE0000001FC0
FE0000001FC0
FE0000001FC0
FE0000001FC0
FE0000001FC0
FE0000001FC0
FE0000001FC0
FE0000001FC0
FE0000001FC0
FE0000001FC0
FC0000001FC0
780000000F80
30FFFFFFC700
01FFFFFFE200
03FFFFFFF000
07FFFFFFF800
03FFFFFFF000
01FFFFFFE200
30FFFFFFC700
780000000F80
FC0000001FC0
FE0000001FC0
FE0000001FC0
FE0000001FC0
FE0000001FC0
FE0000001FC0
FE0000001FC0
FE0000001FC0
FE0000001FC0
FE0000001FC0
FE0000001FC0
FE0000001FC0
FE0000001FC0
FE0000001FC0
FE0000001FC0
FE0000001FC0
FE0000001FC0
FE0000001FC0
FE0000001FC0
FE0000001FC0
FE0000001FC0
FE0000001FC0
FE0000001FC0
FE0000001FC0
FE0000001FC0
FE0000001FC0
FE0000001FC0
FE0000001FC0
FE0000001FC0
FE0000001FC0
FE0000001FC0
7C0000000F80
380000000700
100000000200
ENDCHAR
STARTCHAR 0042
ENCODING 66
SWIDTH 504 0
DWIDTH 56 0
BBX 42 78 7 0
BITMAP
3FFFFFFFC000
1FFFFFFFE000
8FFFFFFFF000
C7FFFFFFF800
E3FFFFFFF000
F1FFFFFFE200
F8FFFFFFC700
FC0000000F80
FE0000001FC0
FE0000001FC0
FE0000001FC0
FE0000001FC0
FE0000001FC0
FE0000001FC0
FE0000001FC0
FE0000001FC0
FE0000001FC0
FE0000001FC0
FE0000001FC0
FE0000001FC0
FE0000001FC0
FE0000001FC0
FE0000001FC0
FE0000001FC0
FE0000001FC0
FE0000001FC0
FE0000001FC0
FE0000001FC0
FE0000001FC0
FE0000001FC0
FE0000001FC0
FE0000001FC0
FE0000001FC0
FE0000001FC0
7C0000000F80
30FFFFFFC700
01FFFFFFE200
03FFFFFFF000
07FFFFFFF800
03FFFFFFF000
01FFFFFFE200
30FFFFFFC700
780000000F80
FC0000001FC0
FE0000001FC0
FE0000001FC0
FE0000001FC0
FE0000001FC0
FE0000001FC0
FE0000001FC0
FE0000001FC0
FE0000001FC0
FE0000001FC0
FE0000001FC0
FE0000001FC0
FE0000001FC0
FE0000001FC0
FE0000001FC0
FE0000001FC0
FE0000001FC0
FE0000001FC0
FE0000001FC0
FE0000001FC0
FE0000001FC0
FE0000001FC0
FE0000001FC0
FE0000001FC0
FE0000001FC0
FE0000001FC0
FC0000001FC0
F80000000F80
F0FFFFFFC700
E1FFFFFFE200
C3FFFFFFF000
87FFFFFFF800
8FFFFFFFF000
1FFFFFFFE000
3FFFFFFFC000
ENDCHAR
STARTCHAR 0043
ENCODING 67
SWIDTH 450 0
DWIDTH 50 0
BBX 37 78 7 0
BITMAP
00FFFFFFC0
01FFFFFFE0
03FFFFFFF0
07FFFFFFF8
03FFFFFFF0
01FFFFFFE0
30FFFFFFC0
7800000000
FC00000000
FE00000000
FE00000000
FE00000000
FE00000000
FE00000000
FE00000000
FE00000000
FE00000000
FE00000000
FE00000000
FE00000000
FE00000000
FE00000000
FE00000000
FE00000000
FE00000000
FE00000000
FE00000000
FE00000000
FE00000000
FE00000000
FE00000000
FE00000000
FE00000000
FE00000000
7C00000000
7800000000
3000000000
0000000000
0000000000
0000000000
0000000000
3000000000
7800000000
FC00000000
FE00000000
FE00000000
FE00000000
FE00000000
FE00000000
FE00000000
FE00000000
FE00000000
FE00000000
FE00000000
FE00000000
FE00000000
FE00000000
FE00000000
FE00000000
FE00000000
FE00000000
FE00000000
FE00000000
FE00000000
FE00000000
FE00000000
FE00000000
FE00000000
FE00000000
FC00000000
7800000000
30FFFFFFC0
01FFFFFFE0
03FFFFFFF0
07FFFFFFF8
03FFFFFFF0
01FFFFFFE0
00FFFFFFC0
ENDCHAR
STARTCHAR 0044
ENCODING 68
SWIDTH 504 0
DWIDTH 56 0
BBX 42 78 7 0
BITMAP
3FFFFFFFC000
1FFFFFFFE000
8FFFFFFFF000
C7FFFFFFF800
E3FFFFFFF000
F1FFFFFFE200
F0FFFFFFC700
F80000000F80
FC0000001FC0
FE0000001FC0
FE0000001FC0
FE0000001FC0
FE0000001FC0
FE0000001FC0
FE0000001FC0
FE0000001FC0
FE0000001FC0
FE0000001FC0
FE0000001FC0
FE0000001FC0
FE0000001FC0
FE0000001FC0
FE0000001FC0
FE0000001FC0
FE0000001FC0
FE0000001FC0
FE0000001FC0
FE0000001FC0
FE0000001FC0
FE0000001FC0
FE0000001FC0
FE0000001FC0
FE0000001FC0
FE0000001FC0
FC0000000F80
780000000700
300000000200
000000000000
000000000000
000000000000
000000000000
300000000200
780000000700
FC0000000F80
FE0000001FC0
FE0000001FC0
FE0000001FC0
FE0000001FC0
FE0000001FC0
FE0000001FC0
FE0000001FC0
FE0000001FC0
FE0000001FC0
FE0000001FC0
FE0000001FC0
FE0000001FC0
FE0000001FC0
FE0000001FC0
FE0000001FC0
FE0000001FC0
FE0000001FC0
FE0000001FC0
FE0000001FC0
FE0000001FC0
FE0000001FC0
FE0000001FC0
FE0000001FC0
FE0000001FC0
FE0000001FC0
FC0000001FC0
F80000000F80
F0FFFFFFC700
E1FFFFFFE200
C3FFFFFFF000
87FFFFFFF800
8FFFFFFFF000
1FFFFFFFE000
3FFFFFFFC000
ENDCHAR
STARTCHAR 0045
ENCODING 69
SWIDTH 450 0
DWIDTH 50 0
BBX 37 78 7 0
BITMAP
00FFFFFFC0
01FFFFFFE0
03FFFFFFF0
07FFFFFFF8
03FFFFFFF0
01FFFFFFE0
30FFFFFFC0
7C00000000
FE00000000
FE00000000
FE00000000
FE00000000
FE00000000
FE00000000
FE00000000
FE00000000
FE00000000
FE00000000
FE00000000
FE00000000
FE00000000
FE00000000
FE00000000
FE00000000
FE00000000
FE00000000
FE00000000
FE00000000
FE00000000
FE00000000
FE00000000
FE00000000
FE00000000
FC00000000
7800000000
30FFFFFFC0
01FFFFFFE0
03FFFFFFF0
07FFFFFFF8
03FFFFFFF0
01FFFFFFE0
30FFFFFFC0
7800000000
FC00000000
FE00000000
FE00000000
FE00000000
FE00000000
FE00000000
FE00000000
FE00000000
FE00000000
FE00000000
FE00000000
FE00000000
FE00000000
FE00000000
FE00000000
FE00000000
FE00000000
FE00000000
FE00000000
FE00000000
FE00000000
FE00000000
FE00000000
FE00000000
FE00000000
FE00000000
FC00000000
7800000000
30FFFFFFC0
01FFFFFFE0
03FFFFFFF0
07FFFFFFF8
03FFFFFFF0
01FFFFFFE0
00FFFFFFC0
ENDCHAR
STARTCHAR 0046
ENCODING 70
SWIDTH 450 0
DWIDTH 50 0
BBX 37 78 7 0
BITMAP
00FFFFFFC0
01FFFFFFE0
03FFFFFFF0
07FFFFFFF8
03FFFFFFF0
01FFFFFFE0
30FFFFFFC0
7800000000
FC00000000
FE00000000
FE00000000
FE00000000
FE00000000
FE00000000
FE00000000
FE00000000
FE00000000
FE00000000
FE00000000
FE00000000
FE00000000
FE00000000
FE00000000
FE00000000
FE00000000
FE00000000
FE00000000
FE00000000
FE00000000
FE00000000
FE00000000
FE00000000
FE00000000
FC00000000
7800000000
30FFFFFFC0
01FFFFFFE0
03FFFFFFF0
07FFFFFFF8
03FFFFFFF0
01FFFFFFE0
30FFFFFFC0
7800000000
FC00000000
FE00000000
FE00000000
FE00000000
FE00000000
FE00000000
FE00000000
FE00000000
FE00000000
FE00000000
FE00000000
FE00000000
FE00000000
FE00000000
FE00000000
FE00000000
FE00000000
FE00000000
FE00000000
FE00000000
FE00000000
FE00000000
FE00000000
FE00000000
FE00000000
FE00000000
FE00000000
FE00000000
FE00000000
FE00000000
FE00000000
FE00000000
7C00000000
3800000000
1000000000
ENDCHAR
STARTCHAR 0047
ENCODING 71
SWIDTH 504 0
DWIDTH 56 0
BBX 42 78 7 0
BITMAP
00FFFFFFC000
01FFFFFFE000
03FFFFFFF000
07FFFFFFF800
03FFFFFFF000
01FFFFFFE000
30FFFFFFC000
7C0000000000
FE0000000000
FE0000000000
FE0000000000
FE0000000000
FE0000000000
FE0000000000
FE0000000000
FE0000000000
FE0000000000
FE0000000000
FE0000000000
FE0000000000
FE0000000000
FE0000000000
FE0000000000
FE0000000000
FE0000000000
FE0000000000
FE0000000000
FE0000000000
FE0000000000
FE0000000000
FE0000000000
FE0000000000
FE0000000000
FC0000000000
780000000000
3000FFFFC000
0001FFFFE000
0003FFFFF000
0007FFFFF800
0003FFFFF000
0001FFFFE200
3000FFFFC700
780000000F80
FC0000001FC0
FE0000001FC0
FE0000001FC0
FE0000001FC0
FE0000001FC0
FE0000001FC0
FE0000001FC0
FE0000001FC0
FE0000001FC0
FE0000001FC0
FE0000001FC0
FE0000001FC0
FE0000001FC0
FE0000001FC0
FE0000001FC0
FE0000001FC0
FE0000001FC0
FE0000001FC0
FE0000001FC0
FE0000001FC0
FE0000001FC0
FE0000001FC0
FE0000001FC0
FE0000001FC0
FE0000001FC0
FE0000001FC0
FC0000001FC0
780000000F80
30FFFFFFC700
01FFFFFFE200
03FFFFFFF000
07FFFFFFF800
03FFFFFFF000
01FFFFFFE000
00FFFFFFC000
ENDCHAR
STARTCHAR 0048
ENCODING 72
SWIDTH 504 0
DWIDTH 56 0
BBX 42 78 7 0
BITMAP
100000000200
380000000700
7C0000000F80
FE0000001FC0
FE0000001FC0
FE0000001FC0
FE0000001FC0
FE0000001FC0
FE0000001FC0
FE0000001FC0
FE0000001FC0
FE0000001FC0
FE0000001FC0
FE0000001FC0
FE0000001FC0
FE0000001FC0
FE0000001FC0
FE0000001FC0
FE0000001FC0
FE0000001FC0
FE0000001FC0
FE0000001FC0
FE0000001FC0
FE0000001FC0
FE0000001FC0
FE0000001FC0
FE0000001FC0
FE0000001FC0
FE0000001FC0
FE0000001FC0
FE0000001FC0
FE0000001FC0
FE0000001FC0
FE0000001FC0
FC0000001FC0
780000000F80
30FFFFFFC700
01FFFFFFE200
03FFFFFFF000
07FFFFFFF800
03FFFFFFF000
01FFFFFFE200
30FFFFFFC700
780000000F80
FC0000001FC0
FE0000001FC0
FE0000001FC0
FE0000001FC0
FE0000001FC0
FE0000001FC0
FE0000001FC0
FE0000001FC0
FE0000001FC0
FE0000001FC0
FE0000001FC0
FE0000001FC0
FE0000001FC0
FE0000001FC0
FE0000001FC0
FE0000001FC0
FE0000001FC0
FE0000001FC0
FE0000001FC0
FE0000001FC0
FE0000001FC0
FE0000001FC0
FE0000001FC0
FE0000001FC0
FE0000001FC0
FE0000001FC0
FE0000001FC0
FE0000001FC0
FE0000001FC0
FE0000001FC0
FE0000001FC0
7C0000000F80
380000000700
100000000200
ENDCHAR
STARTCHAR 0049
ENCODING 73
SWIDTH 180 0
DWIDTH 20 0
BBX 7 78 7 0
BITMAP
10
38
7C
FE
FE
FE
FE
FE
FE
FE
FE
FE
FE
FE
FE
FE
FE
FE
FE
FE
FE
FE
FE
FE
FE
FE
FE
FE
FE
FE
FE
FE
FE
FE
FC
78
30
00
00
00
00
30
78
FC
FE
FE
FE
FE
FE
FE
FE
FE
FE
FE
FE
FE
FE
FE
FE
FE
FE
FE
FE
FE
FE
FE
FE
FE
FE
FE
FE
FE
FE
FE
FE
7C
38
10
ENDCHAR
STARTCHAR 004A
ENCODING 74
SWIDTH 504 0
DWIDTH 56 0
BBX 42 78 7 0
BITMAP
000000000200
000000000700
000000000F80
000000001FC0
000000001FC0
000000001FC0
000000001FC0
000000001FC0
000000001FC0
000000001FC0
000000001FC0
000000001FC0
000000001FC0
000000001FC0
000000001FC0
000000001FC0
000000001FC0
000000001FC0
000000001FC0
000000001FC0
000000001FC0
000000001FC0
000000001FC0
000000001FC0
000000001FC0
000000001FC0
000000001FC0
000000001FC0
000000001FC0
000000001FC0
000000001FC0
000000001FC0
000000001FC0
000000001FC0
000000000F80
000000000700
000000000200
000000000000
000000000000
000000000000
000000000000
100000000200
380000000700
7C0000000F80
FE0000001FC0
FE0000001FC0
FE0000001FC0
FE0000001FC0
FE0000001FC0
FE0000001FC0
FE0000001FC0
FE0000001FC0
FE0000001FC0
FE0000001FC0
FE0000001FC0
FE0000001FC0
FE0000001FC0
FE0000001FC0
FE0000001FC0
FE0000001FC0
FE0000001FC0
FE0000001FC0
FE0000001FC0
FE0000001FC0
FE0000001FC0
FE0000001FC0
FE0000001FC0
FE0000001FC0
FE0000001FC0
FC0000001FC0
780000000F80
30FFFFFFC700
01FFFFFFE200
03FFFFFFF000
07FFFFFFF800
03FFFFFFF000
01FFFFFFE000
00FFFFFFC000
ENDCHAR
STARTCHAR 004B
ENCODING 75
SWIDTH 504 0
DWIDTH 56 0
BBX 42 78 7 0
BITMAP
100000000FC0
380000001FC0
7C0000003FC0
FE0000007FC0
FE000000FFC0
FE000001FF80
FE000003FF00
FE000007FE00
FE00000FFC00
FE00001FF800
FE00003FF000
FE00007FE000
FE0000FFC000
FE0001FF8000
FE0003FF0000
FE0007FE0000
FE000FFC0000
FE001FF80000
FE003FF00000
FE007FE00000
FE00FFC00000
FE01FF800000
FE03FF000000
FE07FE000000
FE0FFC000000
FE1FF8000000
FE3FF0000000
FE3FE0000000
FE3FC0000000
FE3F80000000
FE3F00000000
FE3E00000000
FE0000000000
FE0000000000
7C0000000000
30FFFFFFC000
01FFFFFFE000
03FFFFFFF000
07FFFFFFF800
03FFFFFFF000
01FFFFFFE200
30FFFFFFC700
780000000F80
FC0000001FC0
FE0000001FC0
FE0000001FC0
FE0000001FC0
FE0000001FC0
FE0000001FC0
FE0000001FC0
FE0000001FC0
FE0000001FC0
FE0000001FC0
FE0000001FC0
FE0000001FC0
FE0000001FC0
FE0000001FC0
FE0000001FC0
FE0000001FC0
FE0000001FC0
FE0000001FC0
FE0000001FC0
FE0000001FC0
FE0000001FC0
FE0000001FC0
FE0000001FC0
FE0000001FC0
FE0000001FC0
FE0000001FC0
FE0000001FC0
FE0000001FC0
FE0000001FC0
FE0000001FC0
FE0000001FC0
FE0000001FC0
7C0000000F80
380000000700
100000000200
ENDCHAR
STARTCHAR 004C
ENCODING 76
SWIDTH 450 0
DWIDTH 50 0
BBX 37 78 7 0
BITMAP
1000000000
3800000000
7C00000000
FE00000000
FE00000000
FE00000000
FE00000000
FE00000000
FE00000000
FE00000000
FE00000000
FE00000000
FE00000000
FE00000000
FE00000000
FE00000000
FE00000000
FE00000000
FE00000000
FE00000000
FE00000000
FE00000000
FE00000000
FE00000000
FE00000000
FE00000000
FE00000000
FE00000000
FE00000000
FE00000000
FE00000000
FE00000000
FE00000000
FE00000000
FC00000000
7800000000
3000000000
0000000000
0000000000
0000000000
0000000000
1000000000
3800000000
7C00000000
FE00000000
FE00000000
FE00000000
FE00000000
FE00000000
FE00000000
FE00000000
FE00000000
FE00000000
FE00000000
FE00000000
FE00000000
FE00000000
FE00000000
FE00000000
FE00000000
FE00000000
FE00000000
FE00000000
FE00000000
FE00000000
FE00000000
FE00000000
FE00000000
FE00000000
FC00000000
7800000000
30FFFFFFC0
01FFFFFFE0
03FFFFFFF0
07FFFFFFF8
03FFFFFFF0
01FFFFFFE0
00FFFFFFC0
ENDCHAR
STARTCHAR 004D
ENCODING 77
SWIDTH 684 0
DWIDTH 76 0
BBX 62 78 7 0
BITMAP
00FFFFC00FFFFC00
01FFFFE01FFFFE00
03FFFFF03FFFFF00
07FFFFF87FFFFF80
03FFFFF03FFFFF00
01FFFFE01FFFFE00
30FFFFC30FFFFC30
7800000780000078
FC00000FC00000FC
FE00001FE00001FC
FE00001FE00001FC
FE00001FE00001FC
FE00001FE00001FC
FE00001FE00001FC
FE00001FE00001FC
FE00001FE00001FC
FE00001FE00001FC
FE00001FE00001FC
FE00001FE00001FC
FE00001FE00001FC
FE00001FE00001FC
FE00001FE00001FC
FE00001FE00001FC
FE00001FE00001FC
FE00001FE00001FC
FE00001FE00001FC
FE00001FE00001FC
FE00001FE00001FC
FE00001FE00001FC
FE00001FE00001FC
FE00001FE00001FC
FE00001FE00001FC
FE00001FE00001FC
FE00001FE00001FC
FC00000FC00000FC
7800000780000078
3000000300000030
0000000000000000
0000000000000000
0000000000000000
0000000000000000
3000000000000030
7800000000000078
FC000000000000FC
FE000000000001FC
FE000000000001FC
FE000000000001FC
FE000000000001FC
FE000000000001FC
FE000000000001FC
FE000000000001FC
FE000000000001FC
FE000000000001FC
FE000000000001FC
FE000000000001FC
FE000000000001FC
FE000000000001FC
FE000000000001FC
FE000000000001FC
FE000000000001FC
FE000000000001FC
FE000000000001FC
FE000000000001FC
FE000000000001FC
FE000000000001FC
FE000000000001FC
FE000000000001FC
FE000000000001FC
FE000000000001FC
FE000000000001FC
FE000000000001FC
FE000000000001FC
FE000000000001FC
FE000000000001FC
FE000000000001FC
7C000000000000F8
3800000000000070
1000000000000020
ENDCHAR
STARTCHAR 004E
ENCODING 78
SWIDTH 504 0
DWIDTH 56 0
BBX 42 78 7 0
BITMAP
00FFFFFFC000
01FFFFFFE000
03FFFFFFF000
07FFFFFFF800
03FFFFFFF000
01FFFFFFE200
30FFFFFFC700
780000000F80
FC0000001FC0
FE0000001FC0
FE0000001FC0
FE0000001FC0
FE0000001FC0
FE0000001FC0
FE0000001FC0
FE0000001FC0
FE0000001FC0
FE0000001FC0
FE0000001FC0
FE0000001FC0
FE0000001FC0
FE0000001FC0
FE0000001FC0
FE0000001FC0
FE0000001FC0
FE0000001FC0
FE0000001FC0
FE0000001FC0
FE0000001FC0
FE0000001FC0
FE0000001FC0
FE0000001FC0
FE0000001FC0
FE0000001FC0
7C0000000F80
380000000700
100000000200
000000000000
000000000000
000000000000
000000000000
300000000200
780000000700
FC0000000F80
FE0000001FC0
FE0000001FC0
FE0000001FC0
FE0000001FC0
FE0000001FC0
FE0000001FC0
FE0000001FC0
FE0000001FC0
FE0000001FC0
FE0000001FC0
FE0000001FC0
FE0000001FC0
FE0000001FC0
FE0000001FC0
FE0000001FC0
FE0000001FC0
FE0000001FC0
FE0000001FC0
FE0000001FC0
FE0000001FC0
FE0000001FC0
FE0000001FC0
FE0000001FC0
FE0000001FC0
FE0000001FC0
FE0000001FC0
FE0000001FC0
FE0000001FC0
FE0000001FC0
FE0000001FC0
FE0000001FC0
7C0000000F80
380000000700
100000000200
ENDCHAR
STARTCHAR 004F
ENCODING 79
SWIDTH 504 0
DWIDTH 56 0
BBX 42 78 7 0
BITMAP
00FFFFFFC000
01FFFFFFE000
03FFFFFFF000
07FFFFFFF800
03FFFFFFF000
01FFFFFFE200
30FFFFFFC700
780000000F80
FC0000001FC0
FE0000001FC0
FE0000001FC0
FE0000001FC0
FE0000001FC0
FE0000001FC0
FE0000001FC0
FE0000001FC0
FE0000001FC0
FE0000001FC0
FE0000001FC0
FE0000001FC0
FE0000001FC0
FE0000001FC0
FE0000001FC0
FE0000001FC0
FE0000001FC0
FE0000001FC0
FE0000001FC0
FE0000001FC0
FE0000001FC0
FE0000001FC0
FE0000001FC0
FE0000001FC0
FE0000001FC0
FE0000001FC0
7C0000000F80
780000000700
300000000200
000000000000
000000000000
000000000000
000000000000
300000000200
780000000700
FC0000000F80
FE0000001FC0
FE0000001FC0
FE0000001FC0
FE0000001FC0
FE0000001FC0
FE0000001FC0
FE0000001FC0
FE0000001FC0
FE0000001FC0
FE0000001FC0
FE0000001FC0
FE0000001FC0
FE0000001FC0
FE0000001FC0
FE0000001FC0
FE0000001FC0
FE0000001FC0
FE0000001FC0
FE0000001FC0
FE0000001FC0
FE0000001FC0
FE0000001FC0
FE0000001FC0
FE0000001FC0
FE0000001FC0
FC0000001FC0
780000000F80
30FFFFFFC700
01FFFFFFE200
03FFFFFFF000
07FFFFFFF800
03FFFFFFF000
01FFFFFFE000
00FFFFFFC000
ENDCHAR
STARTCHAR 0050
ENCODING 80
SWIDTH 504 0
DWIDTH 56 0
BBX 42 78 7 0
BITMAP
00FFFFFFC000
01FFFFFFE000
03FFFFFFF000
07FFFFFFF800
03FFFFFFF000
01FFFFFFE200
30FFFFFFC700
7C0000000F80
FE0000001FC0
FE0000001FC0
FE0000001FC0
FE0000001FC0
FE0000001FC0
FE0000001FC0
FE0000001FC0
FE0000001FC0
FE0000001FC0
FE0000001FC0
FE0000001FC0
FE0000001FC0
FE0000001FC0
FE0000001FC0
FE0000001FC0
FE0000001FC0
FE0000001FC0
FE0000001FC0
FE0000001FC0
FE0000001FC0
FE0000001FC0
FE0000001FC0
FE0000001FC0
FE0000001FC0
FE0000001FC0
FC0000001FC0
780000000F80
30FFFFFFC700
01FFFFFFE200
03FFFFFFF000
07FFFFFFF800
03FFFFFFF000
01FFFFFFE000
30FFFFFFC000
780000000000
FC0000000000
FE0000000000
FE0000000000
FE0000000000
FE0000000000
FE0000000000
FE0000000000
FE0000000000
FE0000000000
FE0000000000
FE0000000000
FE0000000000
FE0000000000
FE0000000000
FE0000000000
FE0000000000
FE0000000000
FE0000000000
FE0000000000
FE0000000000
FE0000000000
FE0000000000
FE0000000000
FE0000000000
FE0000000000
FE0000000000
FE0000000000
FE0000000000
FE0000000000
FE0000000000
FE0000000000
FE0000000000
7C0000000000
380000000000
100000000000
ENDCHAR
STARTCHAR 0051
ENCODING 81
SWIDTH 504 0
DWIDTH 56 0
BBX 42 78 7 0
BITMAP
00FFFFFFC000
01FFFFFFE000
03FFFFFFF000
07FFFFFFF800
03FFFFFFF000
01FFFFFFE200
30FFFFFFC700
780000000F80
FC0000001FC0
FE0000001FC0
FE0000001FC0
FE0000001FC0
FE0000001FC0
FE0000001FC0
FE0000001FC0
FE0000001FC0
FE0000001FC0
FE0000001FC0
FE0000001FC0
FE0000001FC0
FE0000001FC0
FE0000001FC0
FE0000001FC0
FE0000001FC0
FE0000001FC0
FE0000001FC0
FE0000001FC0
FE0000001FC0
FE0000001FC0
FE0000001FC0
FE0000001FC0
FE0000001FC0
FE0000001FC0
FE0000001FC0
FC0000000F80
780000000700
300000000200
000000000000
000000000000
000000000000
000000000000
300000000200
780000000700
7C0000000F80
FE0000001FC0
FE0000001FC0
FE0000001FC0
FE0000001FC0
FE0000001FC0
FE0000001FC0
FE0000001FC0
FE0000001FC0
FE0000001FC0
FE0000001FC0
FE0000001FC0
FE0000001FC0
FE0000001FC0
FE0000001FC0
FE0000001FC0
FE0000001FC0
FE0000001FC0
FE0000001FC0
FE0000000F80
FE0000000700
FE000003E200
FE000003F800
FE000003FC00
FE000003FE00
FE000003FF00
FC000003FF80
78000001FFC0
30FFFFFCFFC0
01FFFFFE3FC0
03FFFFFF1FC0
07FFFFFF8FC0
03FFFFFF07C0
01FFFFFE0000
00FFFFFC0000
ENDCHAR
STARTCHAR 0052
ENCODING 82
SWIDTH 504 0
DWIDTH 56 0
BBX 42 78 7 0
BITMAP
00FFFFFFC000
01FFFFFFE000
03FFFFFFF000
07FFFFFFF800
03FFFFFFF000
01FFFFFFE200
30FFFFFFC700
7C0000000F80
FE0000001FC0
FE0000001FC0
FE0000001FC0
FE0000001FC0
FE0000001FC0
FE0000001FC0
FE0000001FC0
FE0000001FC0
FE0000001FC0
FE0000001FC0
FE0000001FC0
FE0000001FC0
FE0000001FC0
FE0000001FC0
FE0000001FC0
FE0000001FC0
FE0000001FC0
FE0000001FC0
FE0000001FC0
FE0000001FC0
FE0000001FC0
FE0000001FC0
FE0000001FC0
FE0000001FC0
FE0000001FC0
FC0000001FC0
780000000F80
30FFFFFFC700
01FFFFFFE200
03FFFFFFF000
07FFFFFFF800
03FFFFFFF000
01FFFFFFE000
30FFFFFFC000
780000000000
FC0000000000
FE0000000000
FE3E00000000
FE3F00000000
FE3F80000000
FE3FC0000000
FE3FE0000000
FE3FF0000000
FE1FF8000000
FE0FFC000000
FE07FE000000
FE03FF000000
FE01FF800000
FE00FFC00000
FE007FE00000
FE003FF00000
FE001FF80000
FE000FFC0000
FE0007FE0000
FE0003FF0000
FE0001FF8000
FE0000FFC000
FE00007FE000
FE00003FF000
FE00001FF800
FE00000FFC00
FE000007FE00
FE000003FF00
FE000001FF80
FE000000FFC0
FE0000007FC0
FE0000003FC0
7C0000001FC0
380000000FC0
1000000007C0
ENDCHAR
STARTCHAR 0053
ENCODING 83
SWIDTH 504 0
DWIDTH 56 0
BBX 42 78 7 0
BITMAP
00FFFFFFC000
01FFFFFFE000
03FFFFFFF000
07FFFFFFF800
03FFFFFFF000
01FFFFFFE000
30FFFFFFC000
7C0000000000
FE0000000000
FE0000000000
FE0000000000
FE0000000000
FE0000000000
FE0000000000
FE0000000000
FE0000000000
FE0000000000
FE0000000000
FE0000000000
FE0000000000
FE0000000000
FE0000000000
FE0000000000
FE0000000000
FE0000000000
FE0000000000
FE0000000000
FE0000000000
FE0000000000
FE0000000000
FE0000000000
FE0000000000
FE0000000000
FC0000000000
780000000000
30FFFFFFC000
01FFFFFFE000
03FFFFFFF000
07FFFFFFF800
03FFFFFFF000
01FFFFFFE200
00FFFFFFC700
000000000F80
000000001FC0
000000001FC0
000000001FC0
000000001FC0
000000001FC0
000000001FC0
000000001FC0
000000001FC0
000000001FC0
000000001FC0
000000001FC0
000000001FC0
000000001FC0
000000001FC0
000000001FC0
000000001FC0
000000001FC0
000000001FC0
000000001FC0
000000001FC0
000000001FC0
000000001FC0
000000001FC0
000000001FC0
000000001FC0
000000001FC0
000000001FC0
000000000F80
00FFFFFFC700
01FFFFFFE200
03FFFFFFF000
07FFFFFFF800
03FFFFFFF000
01FFFFFFE000
00FFFFFFC000
ENDCHAR
STARTCHAR 0054
ENCODING 84
SWIDTH 585 0
DWIDTH 65 0
BBX 51 78 7 0
BITMAP
1FFFF803FFFF00
3FFFFC07FFFF80
7FFFFE0FFFFFC0
FFFFFF1FFFFFE0
7FFFFE0FFFFFC0
3FFFFC47FFFF80
1FFFF8E3FFFF00
000001F0000000
000003F8000000
000003F8000000
000003F8000000
000003F8000000
000003F8000000
000003F8000000
000003F8000000
000003F8000000
000003F8000000
000003F8000000
000003F8000000
000003F8000000
000003F8000000
000003F8000000
000003F8000000
000003F8000000
000003F8000000
000003F8000000
000003F8000000
000003F8000000
000003F8000000
000003F8000000
000003F8000000
000003F8000000
000003F8000000
000003F8000000
000001F0000000
000000E0000000
00000040000000
00000000000000
00000000000000
00000000000000
00000000000000
00000040000000
000000E0000000
000001F0000000
000003F8000000
000003F8000000
000003F8000000
000003F8000000
000003F8000000
000003F8000000
000003F8000000
000003F8000000
000003F8000000
000003F8000000
000003F8000000
000003F8000000
000003F8000000
000003F8000000
000003F8000000
000003F8000000
000003F8000000
000003F8000000
000003F8000000
000003F8000000
000003F8000000
000003F8000000
000003F8000000
000003F8000000
000003F8000000
000003F8000000
000003F8000000
000003F8000000
000003F8000000
000003F8000000
000003F8000000
000001F0000000
000000E0000000
00000040000000
ENDCHAR
STARTCHAR 0055
ENCODING 85
SWIDTH 504 0
DWIDTH 56 0
BBX 42 78 7 0
BITMAP
100000000200
380000000700
7C0000000F80
FE0000001FC0
FE0000001FC0
FE0000001FC0
FE0000001FC0
FE0000001FC0
FE0000001FC0
FE0000001FC0
FE0000001FC0
FE0000001FC0
FE0000001FC0
FE0000001FC0
FE0000001FC0
FE0000001FC0
FE0000001FC0
FE0000001FC0
FE0000001FC0
FE0000001FC0
FE0000001FC0
FE0000001FC0
FE0000001FC0
FE0000001FC0
FE0000001FC0
FE0000001FC0
FE0000001FC0
FE0000001FC0
FE0000001FC0
FE0000001FC0
FE0000001FC0
FE0000001FC0
FE0000001FC0
FE0000001FC0
FC0000000F80
780000000700
300000000200
000000000000
000000000000
000000000000
000000000000
100000000200
380000000700
7C0000000F80
FE0000001FC0
FE0000001FC0
FE0000001FC0
FE0000001FC0
FE0000001FC0
FE0000001FC0
FE0000001FC0
FE0000001FC0
FE0000001FC0
FE0000001FC0
FE0000001FC0
FE0000001FC0
FE0000001FC0
FE0000001FC0
FE0000001FC0
FE0000001FC0
FE0000001FC0
FE0000001FC0
FE0000001FC0
FE0000001FC0
FE0000001FC0
FE0000001FC0
FE0000001FC0
FE0000001FC0
FE0000001FC0
FC0000001FC0
780000000F80
30FFFFFFC700
01FFFFFFE200
03FFFFFFF000
07FFFFFFF800
03FFFFFFF000
01FFFFFFE000
00FFFFFFC000
ENDCHAR
STARTCHAR 0056
ENCODING 86
SWIDTH 504 0
DWIDTH 56 0
BBX 42 78 7 0
BITMAP
100000000200
380000000700
7C0000000F80
FE0000001FC0
FE0000001FC0
FE0000001FC0
FE0000001FC0
FE0000001FC0
FE0000001FC0
FE0000001FC0
FE0000001FC0
FE0000001FC0
FE0000001FC0
FE0000001FC0
FE0000001FC0
FE0000001FC0
FE0000001FC0
FE0000001FC0
FE0000001FC0
FE0000001FC0
FE0000001FC0
FE0000001FC0
FE0000001FC0
FE0000001FC0
FE0000001FC0
FE0000001FC0
FE0000001FC0
FE0000001FC0
FE0000001FC0
FE0000001FC0
FE0000001FC0
FE0000001FC0
FE0000001FC0
FE0000001FC0
7C0000000F80
380000000700
100000000200
000000000000
000000000000
000000000000
000000000100
780000000780
7C0000001F80
FE0000001F80
FE0000001FC0
FF0000003FC0
FF0000003F80
7F0000007F80
7F8000007F80
7F8000007F00
3F800000FF00
3FC00000FE00
1FC00001FE00
1FE00001FE00
1FE00001FC00
0FE00003FC00
0FF00003F800
07F00007F800
07F80007F800
07F80007F000
03F8000FF000
03FC000FF000
01FC000FE000
01FE001FE000
01FE001FC000
00FE003FC000
00FF003FC000
007F003F8000
007F807F8000
007F807F0000
003F80FF0000
003FC0FF0000
001FC0FE0000
001FC1FE0000
001FC0FC0000
000FC0FC0000
000780780000
000180400000
ENDCHAR
STARTCHAR 0057
ENCODING 87
SWIDTH 684 0
DWIDTH 76 0
BBX 62 78 7 0
BITMAP
1000000000000020
3800000000000070
7C000000000000F8
FE000000000001FC
FE000000000001FC
FE000000000001FC
FE000000000001FC
FE000000000001FC
FE000000000001FC
FE000000000001FC
FE000000000001FC
FE000000000001FC
FE000000000001FC
FE000000000001FC
FE000000000001FC
FE000000000001FC
FE000000000001FC
FE000000000001FC
FE000000000001FC
FE000000000001FC
FE000000000001FC
FE000000000001FC
FE000000000001FC
FE000000000001FC
FE000000000001FC
FE000000000001FC
FE000000000001FC
FE000000000001FC
FE000000000001FC
FE000000000001FC
FE000000000001FC
FE000000000001FC
FE000000000001FC
FE000000000001FC
7C000000000000F8
3800000000000070
1000000000000030
0000000000000000
0000000000000000
0000000000000000
0000000000000000
3000000300000030
7800000780000078
FC00000FC00000FC
FE00001FE00001FC
FE00001FE00001FC
FE00001FE00001FC
FE00001FE00001FC
FE00001FE00001FC
FE00001FE00001FC
FE00001FE00001FC
FE00001FE00001FC
FE00001FE00001FC
FE00001FE00001FC
FE00001FE00001FC
FE00001FE00001FC
FE00001FE00001FC
FE00001FE00001FC
FE00001FE00001FC
FE00001FE00001FC
FE00001FE00001FC
FE00001FE00001FC
FE00001FE00001FC
FE00001FE00001FC
FE00001FE00001FC
FE00001FE00001FC
FE00001FE00001FC
FE00001FE00001FC
FE00001FE00001FC
FC00000FC00000FC
7800000780000078
30FFFFC30FFFFC30
01FFFFE01FFFFE00
03FFFFF03FFFFF00
07FFFFF87FFFFF80
03FFFFF03FFFFF00
01FFFFE01FFFFE00
00FFFFC00FFFFC00
ENDCHAR
STARTCHAR 0058
ENCODING 88
SWIDTH 504 0
DWIDTH 56 0
BBX 42 78 7 0
BITMAP
600000000100
780000000780
7C0000001F80
FE0000001FC0
FE0000003FC0
FF0000003FC0
FF0000003F80
7F0000007F80
7F8000007F80
3F800000FF00
3FC00000FF00
3FC00000FE00
1FC00001FE00
1FE00001FE00
0FE00001FC00
0FF00003FC00
0FF00003F800
07F00007F800
07F80007F800
03F80007F000
03F8000FF000
03FC000FE000
01FC001FE000
01FE001FE000
00FE001FC000
00FE003FC000
00FF003F8000
007F007F8000
007F807F8000
007F807F0000
003F80FF0000
003FC0FE0000
001FC1FE0000
001FC1FE0000
001FC0FC0000
000F80FC0000
000380700000
000080400000
000000000000
000000000000
000080400000
000380700000
000F80FC0000
001FC0FC0000
001FC1FE0000
001FC1FE0000
003FC0FE0000
003F80FF0000
007F807F0000
007F807F8000
007F007F8000
00FF003F8000
00FE003FC000
00FE001FC000
01FE001FE000
01FC001FE000
03FC000FE000
03FC000FF000
03F80007F000
07F80007F800
07F00007F800
0FF00003F800
0FF00003FC00
0FE00001FC00
1FE00001FE00
1FC00001FE00
3FC00000FE00
3FC00000FF00
3F800000FF00
7F8000007F80
7F0000007F80
FF0000003F80
FF0000003FC0
FE0000003FC0
FE0000001FC0
7C0000001F80
780000000780
600000000100
ENDCHAR
STARTCHAR 0059
ENCODING 89
SWIDTH 504 0
DWIDTH 56 0
BBX 42 78 7 0
BITMAP
100000000200
380000000700
7C0000000F80
FE0000001FC0
FE0000001FC0
FE0000001FC0
FE0000001FC0
FE0000001FC0
FE0000001FC0
FE0000001FC0
FE0000001FC0
FE0000001FC0
FE0000001FC0
FE0000001FC0
FE0000001FC0
FE0000001FC0
FE0000001FC0
FE0000001FC0
FE0000001FC0
FE0000001FC0
FE0000001FC0
FE0000001FC0
FE0000001FC0
FE0000001FC0
FE0000001FC0
FE0000001FC0
FE0000001FC0
FE0000001FC0
FE0000001FC0
FE0000001FC0
FE0000001FC0
FE0000001FC0
FE0000001FC0
FC0000001FC0
780000000F80
30FFFFFFC700
01FFFFFFE200
03FFFFFFF000
07FFFFFFF800
03FFFFFFF000
01FFFFFFE200
00FFFFFFC700
000000000F80
000000001FC0
000000001FC0
000000001FC0
000000001FC0
000000001FC0
000000001FC0
000000001FC0
000000001FC0
000000001FC0
000000001FC0
000000001FC0
000000001FC0
000000001FC0
000000001FC0
000000001FC0
000000001FC0
000000001FC0
000000001FC0
000000001FC0
000000001FC0
000000001FC0
000000001FC0
000000001FC0
000000001FC0
000000001FC0
000000001FC0
000000001FC0
000000000F80
00FFFFFFC700
01FFFFFFE200
03FFFFFFF000
07FFFFFFF800
03FFFFFFF000
01FFFFFFE000
00FFFFFFC000
ENDCHAR
STARTCHAR 005A
ENCODING 90
SWIDTH 504 0
DWIDTH 56 0
BBX 42 78 7 0
BITMAP
1FFFFFFF8000
3FFFFFFFC000
7FFFFFFFE000
FFFFFFFFF000
7FFFFFFFE000
3FFFFFFFC000
1FFFFFFF8000
000000000200
000000001E00
000000007E00
000000007F00
00000000FF00
00000000FF00
00000001FE00
00000001FE00
00000003FC00
00000007FC00
00000007F800
0000000FF000
0000000FF000
0000001FE000
0000001FE000
0000003FC000
0000007FC000
0000007F8000
000000FF0000
000000FF0000
000001FE0000
000003FE0000
000003FC0000
000007FC0000
000007F80000
00000FF00000
00000FF00000
000007E00000
000007E00000
000007800000
000000000000
000000000000
000000000000
000000000000
0000F0000000
0003F0000000
0003F8000000
0007F8000000
0007F8000000
000FF0000000
000FF0000000
001FE0000000
003FE0000000
003FC0000000
007FC0000000
007F80000000
00FF00000000
00FF00000000
01FE00000000
03FE00000000
03FC00000000
07F800000000
07F800000000
0FF000000000
0FF000000000
1FE000000000
3FE000000000
3FC000000000
7F8000000000
3F8000000000
3F0000000000
3F0000000000
180000000000
000000000000
007FFFFFFE00
00FFFFFFFF00
01FFFFFFFF80
03FFFFFFFFC0
01FFFFFFFF80
00FFFFFFFF00
007FFFFFFE00
ENDCHAR
STARTCHAR 005B
ENCODING 91
SWIDTH 378 0
DWIDTH 42 0
BBX 29 78 7 0
BITMAP
3FFFFF80
1FFFFFE0
8FFFFFF0
C7FFFFF8
E3FFFFF0
F1FFFFE0
F0FFFFC0
F8000000
FC000000
FE000000
FE000000
FE000000
FE000000
FE000000
FE000000
FE000000
FE000000
FE000000
FE000000
FE000000
FE000000
FE000000
FE000000
FE000000
FE000000
FE000000
FE000000
FE000000
FE000000
FE000000
FE000000
FE000000
FE000000
FE000000
FC000000
78000000
30000000
00000000
00000000
00000000
00000000
30000000
78000000
FC000000
FE000000
FE000000
FE000000
FE000000
FE000000
FE000000
FE000000
FE000000
FE000000
FE000000
FE000000
FE000000
FE000000
FE000000
FE000000
FE000000
FE000000
FE000000
FE000000
FE000000
FE000000
FE000000
FE000000
FE000000
FE000000
FC000000
F8000000
F0FFFF80
E1FFFFE0
C3FFFFF0
87FFFFF8
8FFFFFF0
1FFFFFE0
3FFFFFC0
ENDCHAR
STARTCHAR 005C
ENCODING 92
SWIDTH 540 0
DWIDTH 60 0
BBX 46 76 7 1
BITMAP
780000000000
FC0000000000
FE0000000000
FE0000000000
FF0000000000
FF8000000000
7F8000000000
3FC000000000
3FC000000000
1FE000000000
1FE000000000
0FF000000000
0FF800000000
07F800000000
03FC00000000
03FC00000000
01FE00000000
01FE00000000
00FF00000000
00FF80000000
007F80000000
003FC0000000
003FC0000000
001FE0000000
001FE0000000
000FF0000000
000FF8000000
0007F8000000
0003FC000000
0003FC000000
0001FE000000
0001FE000000
0000FE000000
00007E000000
00007E000000
00001C000000
000000000000
000000000000
000000000000
000000800000
000000F80000
000001F80000
000001FC0000
000001FC0000
000001FE0000
000001FF0000
000000FF0000
0000007F8000
0000007F8000
0000003FC000
0000003FE000
0000001FE000
0000001FF000
0000000FF000
00000007F800
00000007F800
00000003FC00
00000003FE00
00000001FE00
00000000FF00
00000000FF00
000000007F80
000000007F80
000000003FC0
000000003FE0
000000001FE0
000000000FF0
000000000FF0
0000000007F8
0000000007F8
0000000003FC
0000000003FC
0000000001FC
0000000000FC
0000000000FC
000000000018
ENDCHAR
STARTCHAR 005D
ENCODING 93
SWIDTH 378 0
DWIDTH 42 0
BBX 29 78 7 0
BITMAP
1FFFFFC0
3FFFFF80
7FFFFF08
FFFFFE18
7FFFFC38
3FFFF878
1FFFF0F8
000001F8
000003F8
000007F8
000007F8
000007F8
000007F8
000007F8
000007F8
000007F8
000007F8
000007F8
000007F8
000007F8
000007F8
000007F8
000007F8
000007F8
000007F8
000007F8
000007F8
000007F8
000007F8
000007F8
000007F8
000007F8
000007F8
000007F8
000003F0
000001E0
000000C0
00000000
00000000
00000000
00000000
000000C0
000001E0
000003F0
000007F8
000007F8
000007F8
000007F8
000007F8
000007F8
000007F8
000007F8
000007F8
000007F8
000007F8
000007F8
000007F8
000007F8
000007F8
000007F8
000007F8
000007F8
000007F8
000007F8
000007F8
000007F8
000007F8
000007F8
000007F8
000003F8
000001F8
1FFFF0F8
3FFFF878
7FFFFC38
FFFFFE18
7FFFFF08
3FFFFF80
1FFFFFC0
ENDCHAR
STARTCHAR 005E
ENCODING 94
SWIDTH 819 0
DWIDTH 91 0
BBX 77 19 7 33
BITMAP
00000001C01C00000000
00000007F07F00000000
0000003FF8FFE0000000
000000FFF87FF8000000
000007FFF07FFF000000
00001FFFF07FFFC00000
0000FFFFE03FFFF80000
0003FFFF800FFFFE0000
001FFFFE0003FFFFC000
007FFFF000007FFFF000
03FFFFC000000FFFFE00
0FFFFE00000003FFFF80
3FFFF8000000007FFFF0
7FFFC0000000001FFFF0
7FFF000000000003FFF0
FFF8000000000000FFF8
FFE00000000000001FF8
7F0000000000000007F0
180000000000000000C0
ENDCHAR
STARTCHAR 005F
ENCODING 95
SWIDTH 621 0
DWIDTH 69 0
BBX 56 7 7 0
BITMAP
1FFFFFFFFFFFF0
3FFFFFFFFFFFFC
7FFFFFFFFFFFFE
FFFFFFFFFFFFFF
7FFFFFFFFFFFFE
3FFFFFFFFFFFFC
1FFFFFFFFFFFF0
ENDCHAR
STARTCHAR 0061
ENCODING 97
SWIDTH 504 0
DWIDTH 56 0
BBX 42 78 7 0
BITMAP
00FFFFFFC000
01FFFFFFE000
03FFFFFFF000
07FFFFFFF800
03FFFFFFF000
01FFFFFFE200
30FFFFFFC700
780000000F80
FC0000001FC0
FE0000001FC0
FE0000001FC0
FE0000001FC0
FE0000001FC0
FE0000001FC0
FE0000001FC0
FE0000001FC0
FE0000001FC0
FE0000001FC0
FE0000001FC0
FE0000001FC0
FE0000001FC0
FE0000001FC0
FE0000001FC0
FE0000001FC0
FE0000001FC0
FE0000001FC0
FE0000001FC0
FE0000001FC0
FE0000001FC0
FE0000001FC0
FE0000001FC0
FE0000001FC0
FE0000001FC0
FE0000001FC0
FC0000001FC0
780000000F80
30FFFFFFC700
01FFFFFFE200
03FFFFFFF000
07FFFFFFF800
03FFFFFFF000
01FFFFFFE200
30FFFFFFC700
780000000F80
FC0000001FC0
FE0000001FC0
FE0000001FC0
FE0000001FC0
FE0000001FC0
FE0000001FC0
FE0000001FC0
FE0000001FC0
FE0000001FC0
FE0000001FC0
FE0000001FC0
FE0000001FC0
FE0000001FC0
FE0000001FC0
FE0000001FC0
FE0000001FC0
FE0000001FC0
FE0000001FC0
FE0000001FC0
FE0000001FC0
FE0000001FC0
FE0000001FC0
FE0000001FC0
FE0000001FC0
FE0000001FC0
FE0000001FC0
FE0000001FC0
FE0000001FC0
FE0000001FC0
FE0000001FC0
FE0000001FC0
7C0000000F80
380000000700
100000000200
ENDCHAR
STARTCHAR 0062
ENCODING 98
SWIDTH 504 0
DWIDTH 56 0
BBX 42 78 7 0
BITMAP
3FFFFFFFC000
1FFFFFFFE000
8FFFFFFFF000
C7FFFFFFF800
E3FFFFFFF000
F1FFFFFFE200
F8FFFFFFC700
FC0000000F80
FE0000001FC0
FE0000001FC0
FE0000001FC0
FE0000001FC0
FE0000001FC0
FE0000001FC0
FE0000001FC0
FE0000001FC0
FE0000001FC0
FE0000001FC0
FE0000001FC0
FE0000001FC0
FE0000001FC0
FE0000001FC0
FE0000001FC0
FE0000001FC0
FE0000001FC0
FE0000001FC0
FE0000001FC0
FE0000001FC0
FE0000001FC0
FE0000001FC0
FE0000001FC0
FE0000001FC0
FE0000001FC0
FE0000001FC0
7C0000000F80
30FFFFFFC700
01FFFFFFE200
03FFFFFFF000
07FFFFFFF800
03FFFFFFF000
01FFFFFFE200
30FFFFFFC700
780000000F80
FC0000001FC0
FE0000001FC0
FE0000001FC0
FE0000001FC0
FE0000001FC0
FE0000001FC0
FE0000001FC0
FE0000001FC0
FE0000001FC0
FE0000001FC0
FE0000001FC0
FE0000001FC0
FE0000001FC0
FE0000001FC0
FE0000001FC0
FE0000001FC0
FE0000001FC0
FE0000001FC0
FE0000001FC0
FE0000001FC0
FE0000001FC0
FE0000001FC0
FE0000001FC0
FE0000001FC0
FE0000001FC0
FE0000001FC0
FC0000001FC0
F80000000F80
F0FFFFFFC700
E1FFFFFFE200
C3FFFFFFF000
87FFFFFFF800
8FFFFFFFF000
1FFFFFFFE000
3FFFFFFFC000
ENDCHAR
STARTCHAR 0063
ENCODING 99
SWIDTH 450 0
DWIDTH 50 0
BBX 37 78 7 0
BITMAP
00FFFFFFC0
01FFFFFFE0
03FFFFFFF0
07FFFFFFF8
03FFFFFFF0
01FFFFFFE0
30FFFFFFC0
7800000000
FC00000000
FE00000000
FE00000000
FE00000000
FE00000000
FE00000000
FE00000000
FE00000000
FE00000000
FE00000000
FE00000000
FE00000000
FE00000000
FE00000000
FE00000000
FE00000000
FE00000000
FE00000000
FE00000000
FE00000000
FE00000000
FE00000000
FE00000000
FE00000000
FE00000000
FE00000000
7C00000000
7800000000
3000000000
0000000000
0000000000
0000000000
0000000000
3000000000
7800000000
FC00000000
FE00000000
FE00000000
FE00000000
FE00000000
FE00000000
FE00000000
FE00000000
FE00000000
FE00000000
FE00000000
FE00000000
FE00000000
FE00000000
FE00000000
FE00000000
FE00000000
FE00000000
FE00000000
FE00000000
FE00000000
FE00000000
FE00000000
FE00000000
FE00000000
FE00000000
FC00000000
7800000000
30FFFFFFC0
01FFFFFFE0
03FFFFFFF0
07FFFFFFF8
03FFFFFFF0
01FFFFFFE0
00FFFFFFC0
ENDCHAR
STARTCHAR 0064
ENCODING 100
SWIDTH 504 0
DWIDTH 56 0
BBX 42 78 7 0
BITMAP
3FFFFFFFC000
1FFFFFFFE000
8FFFFFFFF000
C7FFFFFFF800
E3FFFFFFF000
F1FFFFFFE200
F0FFFFFFC700
F80000000F80
FC0000001FC0
FE0000001FC0
FE0000001FC0
FE0000001FC0
FE0000001FC0
FE0000001FC0
FE0000001FC0
FE0000001FC0
FE0000001FC0
FE0000001FC0
FE0000001FC0
FE0000001FC0
FE0000001FC0
FE0000001FC0
FE0000001FC0
FE0000001FC0
FE0000001FC0
FE0000001FC0
FE0000001FC0
FE0000001FC0
FE0000001FC0
FE0000001FC0
FE0000001FC0
FE0000001FC0
FE0000001FC0
FE0000001FC0
FC0000000F80
780000000700
300000000200
000000000000
000000000000
000000000000
000000000000
300000000200
780000000700
FC0000000F80
FE0000001FC0
FE0000001FC0
FE0000001FC0
FE0000001FC0
FE0000001FC0
FE0000001FC0
FE0000001FC0
FE0000001FC0
FE0000001FC0
FE0000001FC0
FE0000001FC0
FE0000001FC0
FE0000001FC0
FE0000001FC0
FE0000001FC0
FE0000001FC0
FE0000001FC0
FE0000001FC0
FE0000001FC0
FE0000001FC0
FE0000001FC0
FE0000001FC0
FE0000001FC0
FE0000001FC0
FE0000001FC0
FC0000001FC0
F80000000F80
F0FFFFFFC700
E1FFFFFFE200
C3FFFFFFF000
87FFFFFFF800
8FFFFFFFF000
1FFFFFFFE000
3FFFFFFFC000
ENDCHAR
STARTCHAR 0065
ENCODING 101
SWIDTH 450 0
DWIDTH 50 0
BBX 37 78 7 0
BITMAP
00FFFFFFC0
01FFFFFFE0
03FFFFFFF0
07FFFFFFF8
03FFFFFFF0
01FFFFFFE0
30FFFFFFC0
7C00000000
FE00000000
FE00000000
FE00000000
FE00000000
FE00000000
FE00000000
FE00000000
FE00000000
FE00000000
FE00000000
FE00000000
FE00000000
FE00000000
FE00000000
FE00000000
FE00000000
FE00000000
FE00000000
FE00000000
FE00000000
FE00000000
FE00000000
FE00000000
FE00000000
FE00000000
FC00000000
7800000000
30FFFFFFC0
01FFFFFFE0
03FFFFFFF0
07FFFFFFF8
03FFFFFFF0
01FFFFFFE0
30FFFFFFC0
7800000000
FC00000000
FE00000000
FE00000000
FE00000000
FE00000000
FE00000000
FE00000000
FE00000000
FE00000000
FE00000000
FE00000000
FE00000000
FE00000000
FE00000000
FE00000000
FE00000000
FE00000000
FE00000000
FE00000000
FE00000000
FE00000000
FE00000000
FE00000000
FE00000000
FE00000000
FE00000000
FC00000000
7800000000
30FFFFFFC0
01FFFFFFE0
03FFFFFFF0
07FFFFFFF8
03FFFFFFF0
01FFFFFFE0
00FFFFFFC0
ENDCHAR
STARTCHAR 0066
ENCODING 102
SWIDTH 450 0
DWIDTH 50 0
BBX 37 78 7 0
BITMAP
00FFFFFFC0
01FFFFFFE0
03FFFFFFF0
07FFFFFFF8
03FFFFFFF0
01FFFFFFE0
30FFFFFFC0
7800000000
FC00000000
FE00000000
FE00000000
FE00000000
FE00000000
FE00000000
FE00000000
FE00000000
FE00000000
FE00000000
FE00000000
FE00000000
FE00000000
FE00000000
FE00000000
FE00000000
FE00000000
FE00000000
FE00000000
FE00000000
FE00000000
FE00000000
FE00000000
FE00000000
FE00000000
FC00000000
7800000000
30FFFFFFC0
01FFFFFFE0
03FFFFFFF0
07FFFFFFF8
03FFFFFFF0
01FFFFFFE0
30FFFFFFC0
7800000000
FC00000000
FE00000000
FE00000000
FE00000000
FE00000000
FE00000000
FE00000000
FE00000000
FE00000000
FE00000000
FE00000000
FE00000000
FE00000000
FE00000000
FE00000000
FE00000000
FE00000000
FE00000000
FE00000000
FE00000000
FE00000000
FE00000000
FE00000000
FE00000000
FE00000000
FE00000000
FE00000000
FE00000000
FE00000000
FE00000000
FE00000000
FE00000000
7C00000000
3800000000
1000000000
ENDCHAR
STARTCHAR 0067
ENCODING 103
SWIDTH 504 0
DWIDTH 56 0
BBX 42 78 7 0
BITMAP
00FFFFFFC000
01FFFFFFE000
03FFFFFFF000
07FFFFFFF800
03FFFFFFF000
01FFFFFFE000
30FFFFFFC000
7C0000000000
FE0000000000
FE0000000000
FE0000000000
FE0000000000
FE0000000000
FE0000000000
FE0000000000
FE0000000000
FE0000000000
FE0000000000
FE0000000000
FE0000000000
FE0000000000
FE0000000000
FE0000000000
FE0000000000
FE0000000000
FE0000000000
FE0000000000
FE0000000000
FE0000000000
FE0000000000
FE0000000000
FE0000000000
FE0000000000
FC0000000000
780000000000
3000FFFFC000
0001FFFFE000
0003FFFFF000
0007FFFFF800
0003FFFFF000
0001FFFFE200
3000FFFFC700
780000000F80
FC0000001FC0
FE0000001FC0
FE0000001FC0
FE0000001FC0
FE0000001FC0
FE0000001FC0
FE0000001FC0
FE0000001FC0
FE0000001FC0
FE0000001FC0
FE0000001FC0
FE0000001FC0
FE0000001FC0
FE0000001FC0
FE0000001FC0
FE0000001FC0
FE0000001FC0
FE0000001FC0
FE0000001FC0
FE0000001FC0
FE0000001FC0
FE0000001FC0
FE0000001FC0
FE0000001FC0
FE0000001FC0
FE0000001FC0
FC0000001FC0
780000000F80
30FFFFFFC700
01FFFFFFE200
03FFFFFFF000
07FFFFFFF800
03FFFFFFF000
01FFFFFFE000
00FFFFFFC000
ENDCHAR
STARTCHAR 0068
ENCODING 104
SWIDTH 504 0
DWIDTH 56 0
BBX 42 78 7 0
BITMAP
100000000200
380000000700
7C0000000F80
FE0000001FC0
FE0000001FC0
FE0000001FC0
FE0000001FC0
FE0000001FC0
FE0000001FC0
FE0000001FC0
FE0000001FC0
FE0000001FC0
FE0000001FC0
FE0000001FC0
FE0000001FC0
FE0000001FC0
FE0000001FC0
FE0000001FC0
FE0000001FC0
FE0000001FC0
FE0000001FC0
FE0000001FC0
FE0000001FC0
FE0000001FC0
FE0000001FC0
FE0000001FC0
FE0000001FC0
FE0000001FC0
FE0000001FC0
FE0000001FC0
FE0000001FC0
FE0000001FC0
FE0000001FC0
FE0000001FC0
FC0000001FC0
780000000F80
30FFFFFFC700
01FFFFFFE200
03FFFFFFF000
07FFFFFFF800
03FFFFFFF000
01FFFFFFE200
30FFFFFFC700
780000000F80
FC0000001FC0
FE0000001FC0
FE0000001FC0
FE0000001FC0
FE0000001FC0
FE0000001FC0
FE0000001FC0
FE0000001FC0
FE0000001FC0
FE0000001FC0
FE0000001FC0
FE0000001FC0
FE0000001FC0
FE0000001FC0
FE0000001FC0
FE0000001FC0
FE0000001FC0
FE0000001FC0
FE0000001FC0
FE0000001FC0
FE0000001FC0
FE0000001FC0
FE0000001FC0
FE0000001FC0
FE0000001FC0
FE0000001FC0
FE0000001FC0
FE0000001FC0
FE0000001FC0
FE0000001FC0
FE0000001FC0
7C0000000F80
380000000700
100000000200
ENDCHAR
STARTCHAR 0069
ENCODING 105
SWIDTH 180 0
DWIDTH 20 0
BBX 7 78 7 0
BITMAP
10
38
7C
FE
FE
FE
FE
FE
FE
FE
FE
FE
FE
FE
FE
FE
FE
FE
FE
FE
FE
FE
FE
FE
FE
FE
FE
FE
FE
FE
FE
FE
FE
FE
FC
78
30
00
00
00
00
30
78
FC
FE
FE
FE
FE
FE
FE
FE
FE
FE
FE
FE
FE
FE
FE
FE
FE
FE
FE
FE
FE
FE
FE
FE
FE
FE
FE
FE
FE
FE
FE
FE
7C
38
10
ENDCHAR
STARTCHAR 006A
ENCODING 106
SWIDTH 504 0
DWIDTH 56 0
BBX 42 78 7 0
BITMAP
000000000200
000000000700
000000000F80
000000001FC0
000000001FC0
000000001FC0
000000001FC0
000000001FC0
000000001FC0
000000001FC0
000000001FC0
000000001FC0
000000001FC0
000000001FC0
000000001FC0
000000001FC0
000000001FC0
000000001FC0
000000001FC0
000000001FC0
000000001FC0
000000001FC0
000000001FC0
000000001FC0
000000001FC0
000000001FC0
000000001FC0
000000001FC0
000000001FC0
000000001FC0
000000001FC0
000000001FC0
000000001FC0
000000001FC0
000000000F80
000000000700
000000000200
000000000000
000000000000
000000000000
000000000000
100000000200
380000000700
7C0000000F80
FE0000001FC0
FE0000001FC0
FE0000001FC0
FE0000001FC0
FE0000001FC0
FE0000001FC0
FE0000001FC0
FE0000001FC0
FE0000001FC0
FE0000001FC0
FE0000001FC0
FE0000001FC0
FE0000001FC0
FE0000001FC0
FE0000001FC0
FE0000001FC0
FE0000001FC0
FE0000001FC0
FE0000001FC0
FE0000001FC0
FE0000001FC0
FE0000001FC0
FE0000001FC0
FE0000001FC0
FE0000001FC0
FC0000001FC0
780000000F80
30FFFFFFC700
01FFFFFFE200
03FFFFFFF000
07FFFFFFF800
03FFFFFFF000
01FFFFFFE000
00FFFFFFC000
ENDCHAR
STARTCHAR 006B
ENCODING 107
SWIDTH 504 0
DWIDTH 56 0
BBX 42 78 7 0
BITMAP
100000000FC0
380000001FC0
7C0000003FC0
FE0000007FC0
FE000000FFC0
FE000001FF80
FE000003FF00
FE000007FE00
FE00000FFC00
FE00001FF800
FE00003FF000
FE00007FE000
FE0000FFC000
FE0001FF8000
FE0003FF0000
FE0007FE0000
FE000FFC0000
FE001FF80000
FE003FF00000
FE007FE00000
FE00FFC00000
FE01FF800000
FE03FF000000
FE07FE000000
FE0FFC000000
FE1FF8000000
FE3FF0000000
FE3FE0000000
FE3FC0000000
FE3F80000000
FE3F00000000
FE3E00000000
FE0000000000
FE0000000000
7C0000000000
30FFFFFFC000
01FFFFFFE000
03FFFFFFF000
07FFFFFFF800
03FFFFFFF000
01FFFFFFE200
30FFFFFFC700
780000000F80
FC0000001FC0
FE0000001FC0
FE0000001FC0
FE0000001FC0
FE0000001FC0
FE0000001FC0
FE0000001FC0
FE0000001FC0
FE0000001FC0
FE0000001FC0
FE0000001FC0
FE0000001FC0
FE0000001FC0
FE0000001FC0
FE0000001FC0
FE0000001FC0
FE0000001FC0
FE0000001FC0
FE0000001FC0
FE0000001FC0
FE0000001FC0
FE0000001FC0
FE0000001FC0
FE0000001FC0
FE0000001FC0
FE0000001FC0
FE0000001FC0
FE0000001FC0
FE0000001FC0
FE0000001FC0
FE0000001FC0
FE0000001FC0
7C0000000F80
380000000700
100000000200
ENDCHAR
STARTCHAR 006C
ENCODING 108
SWIDTH 450 0
DWIDTH 50 0
BBX 37 78 7 0
BITMAP
1000000000
3800000000
7C00000000
FE00000000
FE00000000
FE00000000
FE00000000
FE00000000
FE00000000
FE00000000
FE00000000
FE00000000
FE00000000
FE00000000
FE00000000
FE00000000
FE00000000
FE00000000
FE00000000
FE00000000
FE00000000
FE00000000
FE00000000
FE00000000
FE00000000
FE00000000
FE00000000
FE00000000
FE00000000
FE00000000
FE00000000
FE00000000
FE00000000
FE00000000
FC00000000
7800000000
3000000000
0000000000
0000000000
0000000000
0000000000
1000000000
3800000000
7C00000000
FE00000000
FE00000000
FE00000000
FE00000000
FE00000000
FE00000000
FE00000000
FE00000000
FE00000000
FE00000000
FE00000000
FE00000000
FE00000000
FE00000000
FE00000000
FE00000000
FE00000000
FE00000000
FE00000000
FE00000000
FE00000000
FE00000000
FE00000000
FE00000000
FE00000000
FC00000000
7800000000
30FFFFFFC0
01FFFFFFE0
03FFFFFFF0
07FFFFFFF8
03FFFFFFF0
01FFFFFFE0
00FFFFFFC0
ENDCHAR
STARTCHAR 006D
ENCODING 109
SWIDTH 684 0
DWIDTH 76 0
BBX 62 78 7 0
BITMAP
00FFFFC00FFFFC00
01FFFFE01FFFFE00
03FFFFF03FFFFF00
07FFFFF87FFFFF80
03FFFFF03FFFFF00
01FFFFE01FFFFE00
30FFFFC30FFFFC30
7800000780000078
FC00000FC00000FC
FE00001FE00001FC
FE00001FE00001FC
FE00001FE00001FC
FE00001FE00001FC
FE00001FE00001FC
FE00001FE00001FC
FE00001FE00001FC
FE00001FE00001FC
FE00001FE00001FC
FE00001FE00001FC
FE00001FE00001FC
FE00001FE00001FC
FE00001FE00001FC
FE00001FE00001FC
FE00001FE00001FC
FE00001FE00001FC
FE00001FE00001FC
FE00001FE00001FC
FE00001FE00001FC
FE00001FE00001FC
FE00001FE00001FC
FE00001FE00001FC
FE00001FE00001FC
FE00001FE00001FC
FE00001FE00001FC
FC00000FC00000FC
7800000780000078
3000000300000030
0000000000000000
0000000000000000
0000000000000000
0000000000000000
3000000000000030
7800000000000078
FC000000000000FC
FE000000000001FC
FE000000000001FC
FE000000000001FC
FE000000000001FC
FE000000000001FC
FE000000000001FC
FE000000000001FC
FE000000000001FC
FE000000000001FC
FE000000000001FC
FE000000000001FC
FE000000000001FC
FE000000000001FC
FE000000000001FC
FE000000000001FC
FE000000000001FC
FE000000000001FC
FE000000000001FC
FE000000000001FC
FE000000000001FC
FE000000000001FC
FE000000000001FC
FE000000000001FC
FE000000000001FC
FE000000000001FC
FE000000000001FC
FE000000000001FC
FE000000000001FC
FE000000000001FC
FE000000000001FC
FE000000000001FC
7C000000000000F8
3800000000000070
1000000000000020
ENDCHAR
STARTCHAR 006E
ENCODING 110
SWIDTH 504 0
DWIDTH 56 0
BBX 42 78 7 0
BITMAP
00FFFFFFC000
01FFFFFFE000
03FFFFFFF000
07FFFFFFF800
03FFFFFFF000
01FFFFFFE200
30FFFFFFC700
780000000F80
FC0000001FC0
FE0000001FC0
FE0000001FC0
FE0000001FC0
FE0000001FC0
FE0000001FC0
FE0000001FC0
FE0000001FC0
FE0000001FC0
FE0000001FC0
FE0000001FC0
FE0000001FC0
FE0000001FC0
FE0000001FC0
FE0000001FC0
FE0000001FC0
FE0000001FC0
FE0000001FC0
FE0000001FC0
FE0000001FC0
FE0000001FC0
FE0000001FC0
FE0000001FC0
FE0000001FC0
FE0000001FC0
FE0000001FC0
7C0000000F80
380000000700
100000000200
000000000000
000000000000
000000000000
000000000000
300000000200
780000000700
FC0000000F80
FE0000001FC0
FE0000001FC0
FE0000001FC0
FE0000001FC0
FE0000001FC0
FE0000001FC0
FE0000001FC0
FE0000001FC0
FE0000001FC0
FE0000001FC0
FE0000001FC0
FE0000001FC0
FE0000001FC0
FE0000001FC0
FE0000001FC0
FE0000001FC0
FE0000001FC0
FE0000001FC0
FE0000001FC0
FE0000001FC0
FE0000001FC0
FE0000001FC0
FE0000001FC0
FE0000001FC0
FE0000001FC0
FE0000001FC0
FE0000001FC0
FE0000001FC0
FE0000001FC0
FE0000001FC0
FE0000001FC0
7C0000000F80
380000000700
100000000200
ENDCHAR
STARTCHAR 006F
ENCODING 111
SWIDTH 504 0
DWIDTH 56 0
BBX 42 78 7 0
BITMAP
00FFFFFFC000
01FFFFFFE000
03FFFFFFF000
07FFFFFFF800
03FFFFFFF000
01FFFFFFE200
30FFFFFFC700
780000000F80
FC0000001FC0
FE0000001FC0
FE0000001FC0
FE0000001FC0
FE0000001FC0
FE0000001FC0
FE0000001FC0
FE0000001FC0
FE0000001FC0
FE0000001FC0
FE0000001FC0
FE0000001FC0
FE0000001FC0
FE0000001FC0
FE0000001FC0
FE0000001FC0
FE0000001FC0
FE0000001FC0
FE0000001FC0
FE0000001FC0
FE0000001FC0
FE0000001FC0
FE0000001FC0
FE0000001FC0
FE0000001FC0
FE0000001FC0
7C0000000F80
780000000700
300000000200
000000000000
000000000000
000000000000
000000000000
300000000200
780000000700
FC0000000F80
FE0000001FC0
FE0000001FC0
FE0000001FC0
FE0000001FC0
FE0000001FC0
FE0000001FC0
FE0000001FC0
FE0000001FC0
FE0000001FC0
FE0000001FC0
FE0000001FC0
FE0000001FC0
FE0000001FC0
FE0000001FC0
FE0000001FC0
FE0000001FC0
FE0000001FC0
FE0000001FC0
FE0000001FC0
FE0000001FC0
FE0000001FC0
FE0000001FC0
FE0000001FC0
FE0000001FC0
FE0000001FC0
FC0000001FC0
780000000F80
30FFFFFFC700
01FFFFFFE200
03FFFFFFF000
07FFFFFFF800
03FFFFFFF000
01FFFFFFE000
00FFFFFFC000
ENDCHAR
STARTCHAR 0070
ENCODING 112
SWIDTH 504 0
DWIDTH 56 0
BBX 42 78 7 0
BITMAP
00FFFFFFC000
01FFFFFFE000
03FFFFFFF000
07FFFFFFF800
03FFFFFFF000
01FFFFFFE200
30FFFFFFC700
7C0000000F80
FE0000001FC0
FE0000001FC0
FE0000001FC0
FE0000001FC0
FE0000001FC0
FE0000001FC0
FE0000001FC0
FE0000001FC0
FE0000001FC0
FE0000001FC0
FE0000001FC0
FE0000001FC0
FE0000001FC0
FE0000001FC0
FE0000001FC0
FE0000001FC0
FE0000001FC0
FE0000001FC0
FE0000001FC0
FE0000001FC0
FE0000001FC0
FE0000001FC0
FE0000001FC0
FE0000001FC0
FE0000001FC0
FC0000001FC0
780000000F80
30FFFFFFC700
01FFFFFFE200
03FFFFFFF000
07FFFFFFF800
03FFFFFFF000
01FFFFFFE000
30FFFFFFC000
780000000000
FC0000000000
FE0000000000
FE0000000000
FE0000000000
FE0000000000
FE0000000000
FE0000000000
FE0000000000
FE0000000000
FE0000000000
FE0000000000
FE0000000000
FE0000000000
FE0000000000
FE0000000000
FE0000000000
FE0000000000
FE0000000000
FE0000000000
FE0000000000
FE0000000000
FE0000000000
FE0000000000
FE0000000000
FE0000000000
FE0000000000
FE0000000000
FE0000000000
FE0000000000
FE0000000000
FE0000000000
FE0000000000
7C0000000000
380000000000
100000000000
ENDCHAR
STARTCHAR 0071
ENCODING 113
SWIDTH 504 0
DWIDTH 56 0
BBX 42 78 7 0
BITMAP
00FFFFFFC000
01FFFFFFE000
03FFFFFFF000
07FFFFFFF800
03FFFFFFF000
01FFFFFFE200
30FFFFFFC700
780000000F80
FC0000001FC0
FE0000001FC0
FE0000001FC0
FE0000001FC0
FE0000001FC0
FE0000001FC0
FE0000001FC0
FE0000001FC0
FE0000001FC0
FE0000001FC0
FE0000001FC0
FE0000001FC0
FE0000001FC0
FE0000001FC0
FE0000001FC0
FE0000001FC0
FE0000001FC0
FE0000001FC0
FE0000001FC0
FE0000001FC0
FE0000001FC0
FE0000001FC0
FE0000001FC0
FE0000001FC0
FE0000001FC0
FE0000001FC0
FC0000000F80
780000000700
300000000200
000000000000
000000000000
000000000000
000000000000
300000000200
780000000700
7C0000000F80
FE0000001FC0
FE0000001FC0
FE0000001FC0
FE0000001FC0
FE0000001FC0
FE0000001FC0
FE0000001FC0
FE0000001FC0
FE0000001FC0
FE0000001FC0
FE0000001FC0
FE0000001FC0
FE0000001FC0
FE0000001FC0
FE0000001FC0
FE0000001FC0
FE0000001FC0
FE0000001FC0
FE0000000F80
FE0000000700
FE000003E200
FE000003F800
FE000003FC00
FE000003FE00
FE000003FF00
FC000003FF80
78000001FFC0
30FFFFFCFFC0
01FFFFFE3FC0
03FFFFFF1FC0
07FFFFFF8FC0
03FFFFFF07C0
01FFFFFE0000
00FFFFFC0000
ENDCHAR
STARTCHAR 0072
ENCODING 114
SWIDTH 504 0
DWIDTH 56 0
BBX 42 78 7 0
BITMAP
00FFFFFFC000
01FFFFFFE000
03FFFFFFF000
07FFFFFFF800
03FFFFFFF000
01FFFFFFE200
30FFFFFFC700
7C0000000F80
FE0000001FC0
FE0000001FC0
FE0000001FC0
FE0000001FC0
FE0000001FC0
FE0000001FC0
FE0000001FC0
FE0000001FC0
FE0000001FC0
FE0000001FC0
FE0000001FC0
FE0000001FC0
FE0000001FC0
FE0000001FC0
FE0000001FC0
FE0000001FC0
FE0000001FC0
FE0000001FC0
FE0000001FC0
FE0000001FC0
FE0000001FC0
FE0000001FC0
FE0000001FC0
FE0000001FC0
FE0000001FC0
FC0000001FC0
780000000F80
30FFFFFFC700
01FFFFFFE200
03FFFFFFF000
07FFFFFFF800
03FFFFFFF000
01FFFFFFE000
30FFFFFFC000
780000000000
FC0000000000
FE0000000000
FE3E00000000
FE3F00000000
FE3F80000000
FE3FC0000000
FE3FE0000000
FE3FF0000000
FE1FF8000000
FE0FFC000000
FE07FE000000
FE03FF000000
FE01FF800000
FE00FFC00000
FE007FE00000
FE003FF00000
FE001FF80000
FE000FFC0000
FE0007FE0000
FE0003FF0000
FE0001FF8000
FE0000FFC000
FE00007FE000
FE00003FF000
FE00001FF800
FE00000FFC00
FE000007FE00
FE000003FF00
FE000001FF80
FE000000FFC0
FE0000007FC0
FE0000003FC0
7C0000001FC0
380000000FC0
1000000007C0
ENDCHAR
STARTCHAR 0073
ENCODING 115
SWIDTH 504 0
DWIDTH 56 0
BBX 42 78 7 0
BITMAP
00FFFFFFC000
01FFFFFFE000
03FFFFFFF000
07FFFFFFF800
03FFFFFFF000
01FFFFFFE000
30FFFFFFC000
7C0000000000
FE0000000000
FE0000000000
FE0000000000
FE0000000000
FE0000000000
FE0000000000
FE0000000000
FE0000000000
FE0000000000
FE0000000000
FE0000000000
FE0000000000
FE0000000000
FE0000000000
FE0000000000
FE0000000000
FE0000000000
FE0000000000
FE0000000000
FE0000000000
FE0000000000
FE0000000000
FE0000000000
FE0000000000
FE0000000000
FC0000000000
780000000000
30FFFFFFC000
01FFFFFFE000
03FFFFFFF000
07FFFFFFF800
03FFFFFFF000
01FFFFFFE200
00FFFFFFC700
000000000F80
000000001FC0
000000001FC0
000000001FC0
000000001FC0
000000001FC0
000000001FC0
000000001FC0
000000001FC0
000000001FC0
000000001FC0
000000001FC0
000000001FC0
000000001FC0
000000001FC0
000000001FC0
000000001FC0
000000001FC0
000000001FC0
000000001FC0
000000001FC0
000000001FC0
000000001FC0
000000001FC0
000000001FC0
000000001FC0
000000001FC0
000000001FC0
000000000F80
00FFFFFFC700
01FFFFFFE200
03FFFFFFF000
07FFFFFFF800
03FFFFFFF000
01FFFFFFE000
00FFFFFFC000
ENDCHAR
STARTCHAR 0074
ENCODING 116
SWIDTH 585 0
DWIDTH 65 0
BBX 51 78 7 0
BITMAP
1FFFF803FFFF00
3FFFFC07FFFF80
7FFFFE0FFFFFC0
FFFFFF1FFFFFE0
7FFFFE0FFFFFC0
3FFFFC47FFFF80
1FFFF8E3FFFF00
000001F0000000
000003F8000000
000003F8000000
000003F8000000
000003F8000000
000003F8000000
000003F8000000
000003F8000000
000003F8000000
000003F8000000
000003F8000000
000003F8000000
000003F8000000
000003F8000000
000003F8000000
000003F8000000
000003F8000000
000003F8000000
000003F8000000
000003F8000000
000003F8000000
000003F8000000
000003F8000000
000003F8000000
000003F8000000
000003F8000000
000003F8000000
000001F0000000
000000E0000000
00000040000000
00000000000000
00000000000000
00000000000000
00000000000000
00000040000000
000000E0000000
000001F0000000
000003F8000000
000003F8000000
000003F8000000
000003F8000000
000003F8000000
000003F8000000
000003F8000000
000003F8000000
000003F8000000
000003F8000000
000003F8000000
000003F8000000
000003F8000000
000003F8000000
000003F8000000
000003F8000000
000003F8000000
000003F8000000
000003F8000000
000003F8000000
000003F8000000
000003F8000000
000003F8000000
000003F8000000
000003F8000000
000003F8000000
000003F8000000
000003F8000000
000003F8000000
000003F8000000
000003F8000000
000001F0000000
000000E0000000
00000040000000
ENDCHAR
STARTCHAR 0075
ENCODING 117
SWIDTH 504 0
DWIDTH 56 0
BBX 42 78 7 0
BITMAP
100000000200
380000000700
7C0000000F80
FE0000001FC0
FE0000001FC0
FE0000001FC0
FE0000001FC0
FE0000001FC0
FE0000001FC0
FE0000001FC0
FE0000001FC0
FE0000001FC0
FE0000001FC0
FE0000001FC0
FE0000001FC0
FE0000001FC0
FE0000001FC0
FE0000001FC0
FE0000001FC0
FE0000001FC0
FE0000001FC0
FE0000001FC0
FE0000001FC0
FE0000001FC0
FE0000001FC0
FE0000001FC0
FE0000001FC0
FE0000001FC0
FE0000001FC0
FE0000001FC0
FE0000001FC0
FE0000001FC0
FE0000001FC0
FE0000001FC0
FC0000000F80
780000000700
300000000200
000000000000
000000000000
000000000000
000000000000
100000000200
380000000700
7C0000000F80
FE0000001FC0
FE0000001FC0
FE0000001FC0
FE0000001FC0
FE0000001FC0
FE0000001FC0
FE0000001FC0
FE0000001FC0
FE0000001FC0
FE0000001FC0
FE0000001FC0
FE0000001FC0
FE0000001FC0
FE0000001FC0
FE0000001FC0
FE0000001FC0
FE0000001FC0
FE0000001FC0
FE0000001FC0
FE0000001FC0
FE0000001FC0
FE0000001FC0
FE0000001FC0
FE0000001FC0
FE0000001FC0
FC0000001FC0
780000000F80
30FFFFFFC700
01FFFFFFE200
03FFFFFFF000
07FFFFFFF800
03FFFFFFF000
01FFFFFFE000
00FFFFFFC000
ENDCHAR
STARTCHAR 0076
ENCODING 118
SWIDTH 504 0
DWIDTH 56 0
BBX 42 78 7 0
BITMAP
100000000200
380000000700
7C0000000F80
FE0000001FC0
FE0000001FC0
FE0000001FC0
FE0000001FC0
FE0000001FC0
FE0000001FC0
FE0000001FC0
FE0000001FC0
FE0000001FC0
FE0000001FC0
FE0000001FC0
FE0000001FC0
FE0000001FC0
FE0000001FC0
FE0000001FC0
FE0000001FC0
FE0000001FC0
FE0000001FC0
FE0000001FC0
FE0000001FC0
FE0000001FC0
FE0000001FC0
FE0000001FC0
FE0000001FC0
FE0000001FC0
FE0000001FC0
FE0000001FC0
FE0000001FC0
FE0000001FC0
FE0000001FC0
FE0000001FC0
7C0000000F80
380000000700
100000000200
000000000000
000000000000
000000000000
000000000100
780000000780
7C0000001F80
FE0000001F80
FE0000001FC0
FF0000003FC0
FF0000003F80
7F0000007F80
7F8000007F80
7F8000007F00
3F800000FF00
3FC00000FE00
1FC00001FE00
1FE00001FE00
1FE00001FC00
0FE00003FC00
0FF00003F800
07F00007F800
07F80007F800
07F80007F000
03F8000FF000
03FC000FF000
01FC000FE000
01FE001FE000
01FE001FC000
00FE003FC000
00FF003FC000
007F003F8000
007F807F8000
007F807F0000
003F80FF0000
003FC0FF0000
001FC0FE0000
001FC1FE0000
001FC0FC0000
000FC0FC0000
000780780000
000180400000
ENDCHAR
STARTCHAR 0077
ENCODING 119
SWIDTH 684 0
DWIDTH 76 0
BBX 62 78 7 0
BITMAP
1000000000000020
3800000000000070
7C000000000000F8
FE000000000001FC
FE000000000001FC
FE000000000001FC
FE000000000001FC
FE000000000001FC
FE000000000001FC
FE000000000001FC
FE000000000001FC
FE000000000001FC
FE000000000001FC
FE000000000001FC
FE000000000001FC
FE000000000001FC
FE000000000001FC
FE000000000001FC
FE000000000001FC
FE000000000001FC
FE000000000001FC
FE000000000001FC
FE000000000001FC
FE000000000001FC
FE000000000001FC
FE000000000001FC
FE000000000001FC
FE000000000001FC
FE000000000001FC
FE000000000001FC
FE000000000001FC
FE000000000001FC
FE000000000001FC
FE000000000001FC
7C000000000000F8
3800000000000070
1000000000000030
0000000000000000
0000000000000000
0000000000000000
0000000000000000
3000000300000030
7800000780000078
FC00000FC00000FC
FE00001FE00001FC
FE00001FE00001FC
FE00001FE00001FC
FE00001FE00001FC
FE00001FE00001FC
FE00001FE00001FC
FE00001FE00001FC
FE00001FE00001FC
FE00001FE00001FC
FE00001FE00001FC
FE00001FE00001FC
FE00001FE00001FC
FE00001FE00001FC
FE00001FE00001FC
FE00001FE00001FC
FE00001FE00001FC
FE00001FE00001FC
FE00001FE00001FC
FE00001FE00001FC
FE00001FE00001FC
FE00001FE00001FC
FE00001FE00001FC
FE00001FE00001FC
FE00001FE00001FC
FE00001FE00001FC
FC00000FC00000FC
7800000780000078
30FFFFC30FFFFC30
01FFFFE01FFFFE00
03FFFFF03FFFFF00
07FFFFF87FFFFF80
03FFFFF03FFFFF00
01FFFFE01FFFFE00
00FFFFC00FFFFC00
ENDCHAR
STARTCHAR 0078
ENCODING 120
SWIDTH 504 0
DWIDTH 56 0
BBX 42 78 7 0
BITMAP
600000000100
780000000780
7C0000001F80
FE0000001FC0
FE0000003FC0
FF0000003FC0
FF0000003F80
7F0000007F80
7F8000007F80
3F800000FF00
3FC00000FF00
3FC00000FE00
1FC00001FE00
1FE00001FE00
0FE00001FC00
0FF00003FC00
0FF00003F800
07F00007F800
07F80007F800
03F80007F000
03F8000FF000
03FC000FE000
01FC001FE000
01FE001FE000
00FE001FC000
00FE003FC000
00FF003F8000
007F007F8000
007F807F8000
007F807F0000
003F80FF0000
003FC0FE0000
001FC1FE0000
001FC1FE0000
001FC0FC0000
000F80FC0000
000380700000
000080400000
000000000000
000000000000
000080400000
000380700000
000F80FC0000
001FC0FC0000
001FC1FE0000
001FC1FE0000
003FC0FE0000
003F80FF0000
007F807F0000
007F807F8000
007F007F8000
00FF003F8000
00FE003FC000
00FE001FC000
01FE001FE000
01FC001FE000
03FC000FE000
03FC000FF000
03F80007F000
07F80007F800
07F00007F800
0FF00003F800
0FF00003FC00
0FE00001FC00
1FE00001FE00
1FC00001FE00
3FC00000FE00
3FC00000FF00
3F800000FF00
7F8000007F80
7F0000007F80
FF0000003F80
FF0000003FC0
FE0000003FC0
FE0000001FC0
7C0000001F80
780000000780
600000000100
ENDCHAR
STARTCHAR 0079
ENCODING 121
SWIDTH 504 0
DWIDTH 56 0
BBX 42 78 7 0
BITMAP
100000000200
380000000700
7C0000000F80
FE0000001FC0
FE0000001FC0
FE0000001FC0
FE0000001FC0
FE0000001FC0
FE0000001FC0
FE0000001FC0
FE0000001FC0
FE0000001FC0
FE0000001FC0
FE0000001FC0
FE0000001FC0
FE0000001FC0
FE0000001FC0
FE0000001FC0
FE0000001FC0
FE0000001FC0
FE0000001FC0
FE0000001FC0
FE0000001FC0
FE0000001FC0
FE0000001FC0
FE0000001FC0
FE0000001FC0
FE0000001FC0
FE0000001FC0
FE0000001FC0
FE0000001FC0
FE0000001FC0
FE0000001FC0
FC0000001FC0
780000000F80
30FFFFFFC700
01FFFFFFE200
03FFFFFFF000
07FFFFFFF800
03FFFFFFF000
01FFFFFFE200
00FFFFFFC700
000000000F80
000000001FC0
000000001FC0
000000001FC0
000000001FC0
000000001FC0
000000001FC0
000000001FC0
000000001FC0
000000001FC0
000000001FC0
000000001FC0
000000001FC0
000000001FC0
000000001FC0
000000001FC0
000000001FC0
000000001FC0
000000001FC0
000000001FC0
000000001FC0
000000001FC0
000000001FC0
000000001FC0
000000001FC0
000000001FC0
000000001FC0
000000001FC0
000000000F80
00FFFFFFC700
01FFFFFFE200
03FFFFFFF000
07FFFFFFF800
03FFFFFFF000
01FFFFFFE000
00FFFFFFC000
ENDCHAR
STARTCHAR 007A
ENCODING 122
SWIDTH 504 0
DWIDTH 56 0
BBX 42 78 7 0
BITMAP
1FFFFFFF8000
3FFFFFFFC000
7FFFFFFFE000
FFFFFFFFF000
7FFFFFFFE000
3FFFFFFFC000
1FFFFFFF8000
000000000200
000000001E00
000000007E00
000000007F00
00000000FF00
00000000FF00
00000001FE00
00000001FE00
00000003FC00
00000007FC00
00000007F800
0000000FF000
0000000FF000
0000001FE000
0000001FE000
0000003FC000
0000007FC000
0000007F8000
000000FF0000
000000FF0000
000001FE0000
000003FE0000
000003FC0000
000007FC0000
000007F80000
00000FF00000
00000FF00000
000007E00000
000007E00000
000007800000
000000000000
000000000000
000000000000
000000000000
0000F0000000
0003F0000000
0003F8000000
0007F8000000
0007F8000000
000FF0000000
000FF0000000
001FE0000000
003FE0000000
003FC0000000
007FC0000000
007F80000000
00FF00000000
00FF00000000
01FE00000000
03FE00000000
03FC00000000
07F800000000
07F800000000
0FF000000000
0FF000000000
1FE000000000
3FE000000000
3FC000000000
7F8000000000
3F8000000000
3F0000000000
3F0000000000
180000000000
000000000000
007FFFFFFE00
00FFFFFFFF00
01FFFFFFFF80
03FFFFFFFFC0
01FFFFFFFF80
00FFFFFFFF00
007FFFFFFE00
ENDCHAR
STARTCHAR 007B
ENCODING 123
SWIDTH 477 0
DWIDTH 53 0
BBX 40 78 7 0
BITMAP
00001FFFF8
00003FFFFC
00007FFFFE
0000FFFFFF
00007FFFFE
00023FFFFC
00071FFFF8
000F800000
001FC00000
001FC00000
001FC00000
001FC00000
001FC00000
001FC00000
001FC00000
001FC00000
001FC00000
001FC00000
001FC00000
001FC00000
001FC00000
001FC00000
001FC00000
001FC00000
001FC00000
001FC00000
001FC00000
001FC00000
001FC00000
001FC00000
001FC00000
001FC00000
001FC00000
001FC00000
001F800000
000F800000
1F87000000
3FC2000000
7FE0000000
FFF0000000
7FE0000000
3FC0000000
1F86000000
000F000000
001FC00000
001FC00000
001FC00000
001FC00000
001FC00000
001FC00000
001FC00000
001FC00000
001FC00000
001FC00000
001FC00000
001FC00000
001FC00000
001FC00000
001FC00000
001FC00000
001FC00000
001FC00000
001FC00000
001FC00000
001FC00000
001FC00000
001FC00000
001FC00000
001FC00000
001FC00000
000F800000
00061FFFF0
00003FFFFC
00007FFFFE
0000FFFFFF
00007FFFFE
00003FFFFC
00001FFFF8
ENDCHAR
STARTCHAR 007C
ENCODING 124
SWIDTH 180 0
DWIDTH 20 0
BBX 7 86 7 0
BITMAP
10
38
7C
FE
FE
FE
FE
FE
FE
FE
FE
FE
FE
FE
FE
FE
FE
FE
FE
FE
FE
FE
FE
FE
FE
FE
FE
FE
FE
FE
FE
FE
FE
FE
FE
FE
FE
FE
FE
FE
FE
FE
FE
FE
FE
FE
FE
FE
FE
FE
FE
FE
FE
FE
FE
FE
FE
FE
FE
FE
FE
FE
FE
FE
FE
FE
FE
FE
FE
FE
FE
FE
FE
FE
FE
FE
FE
FE
FE
FE
FE
FE
FE
7C
38
10
ENDCHAR
STARTCHAR 007D
ENCODING 125
SWIDTH 477 0
DWIDTH 53 0
BBX 40 78 7 0
BITMAP
1FFFF00000
3FFFF80000
7FFFFC0000
FFFFFE0000
7FFFFC0000
3FFFF80000
1FFFF0C000
000001E000
000003F000
000007F800
000007F800
000007F800
000007F800
000007F800
000007F800
000007F800
000007F800
000007F800
000007F800
000007F800
000007F800
000007F800
000007F800
000007F800
000007F800
000007F800
000007F800
000007F800
000007F800
000007F800
000007F800
000007F800
000007F800
000007F800
000003F000
000001E000
000000C3F8
00000007FC
0000000FFE
0000001FFF
0000000FFE
00000007FC
000000C3F8
000001E000
000003F000
000007F800
000007F800
000007F800
000007F800
000007F800
000007F800
000007F800
000007F800
000007F800
000007F800
000007F800
000007F800
000007F800
000007F800
000007F800
000007F800
000007F800
000007F800
000007F800
000007F800
000007F800
000007F800
000007F800
000007F800
000003F000
000001E000
1FFFF0C000
3FFFF80000
7FFFFC0000
FFFFFE0000
7FFFFC0000
3FFFF80000
1FFFF00000
ENDCHAR
STARTCHAR 00A0
ENCODING 160
SWIDTH 720 0
DWIDTH 80 0
BBX 0 0 0 0
BITMAP
ENDCHAR
STARTCHAR 00A9
ENCODING 169
SWIDTH 504 0
DWIDTH 56 0
BBX 42 48 7 0
BITMAP
00FFFFFFC000
01FFFFFFE000
03FFFFFFF000
07FFFFFFF800
03FFFFFFF000
01FFFFFFE200
30FFFFFFC700
780000000F80
FC0000001FC0
FE0000001FC0
FE0000001FC0
FE0000001FC0
FE0000001FC0
FE0000001FC0
FE00FFF81FC0
FE03FFFC1FC0
FE04FFF81FC0
FE0E00001FC0
FE0E00001FC0
FE0E00001FC0
FE0E00001FC0
FE0E00001FC0
FE0E00001FC0
FE0E00001FC0
FE0E00001FC0
FE0E00001FC0
FE0E00001FC0
FE0E00001FC0
FE0E00001FC0
FE0E00001FC0
FE0E00001FC0
FE04FFF81FC0
FE03FFFC1FC0
FE00FFF81FC0
FE0000001FC0
FE0000001FC0
FE0000001FC0
FE0000001FC0
FE0000001FC0
FC0000001F80
780000000F00
30FFFFFFC600
01FFFFFFE000
03FFFFFFF000
07FFFFFFF800
03FFFFFFF000
01FFFFFFE000
00FFFFFFC000
ENDCHAR
STARTCHAR 00AB
ENCODING 171
SWIDTH 450 0
DWIDTH 50 0
BBX 36 78 7 0
BITMAP
0001800040
00078001E0
000FC007E0
001FC007F0
001FC007F0
001FC00FF0
003FC00FE0
003F801FE0
007F801FE0
007F801FC0
007F003FC0
00FF003FC0
00FE007F80
01FE007F80
01FE007F00
01FC00FF00
03FC00FF00
03F800FE00
07F801FE00
07F801FC00
07F003FC00
0FF003FC00
0FE003F800
1FE007F800
1FE007F000
1FC00FF000
3FC00FF000
3F800FE000
7F801FE000
7F801FC000
7F003FC000
FF003FC000
FE003F8000
FE003F8000
FE003F0000
7C003F0000
70001C0000
0000100000
0000000000
0000000000
0000100000
70001C0000
7C003F0000
FE003F0000
FE003F8000
FE003F8000
FF003FC000
7F003FC000
7F801FC000
7F801FE000
3F800FE000
3FC00FF000
1FC00FF000
1FE007F000
1FE007F800
0FE003F800
0FF003FC00
07F003FC00
07F801FC00
07F801FE00
03F800FE00
03FC00FF00
01FC00FF00
01FE007F00
01FE007F80
00FE003F80
00FF003F80
007F003FC0
007F801FC0
007F801FE0
003F801FE0
003FC00FE0
001FC00FF0
001FC007F0
001FC007F0
000FC007E0
00078001E0
0001800040
ENDCHAR
STARTCHAR 00AD
ENCODING 173
SWIDTH 0 0
DWIDTH 0 0
BBX 0 0 0 0
BITMAP
ENDCHAR
STARTCHAR 00BB
ENCODING 187
SWIDTH 450 0
DWIDTH 50 0
BBX 36 78 7 0
BITMAP
6000180000
78001E0000
7C003F0000
FE003F8000
FE007F8000
FF003F8000
FF003FC000
7F001FC000
7F801FE000
3F801FE000
3FC00FE000
3FC00FF000
1FC00FF000
1FE007F000
0FE007F800
0FF003F800
0FF003FC00
07F003FC00
07F801FC00
03F801FE00
03F800FE00
03FC00FF00
01FC00FF00
01FE007F00
00FE007F80
00FE003F80
00FF003FC0
007F003FC0
007F801FC0
007F801FE0
003F800FE0
003FC00FF0
001FC00FF0
001FC007F0
001FC007F0
000F8003E0
00038001E0
0000800000
0000000000
0000000000
0000800000
00038001E0
000F8003E0
001FC007F0
001FC007F0
001FC00FF0
003FC00FF0
003F800FE0
007F801FE0
007F801FC0
007F003FC0
00FF003FC0
00FE003F80
00FE007F80
01FE007F00
01FC00FF00
03FC00FF00
03FC00FE00
03F801FE00
07F801FC00
07F003FC00
0FF003FC00
0FF003F800
0FE007F800
1FE007F000
1FC007F000
3FC00FF000
3FC00FE000
3F801FE000
7F801FE000
7F001FC000
FF003FC000
FF003F8000
FE007F8000
FE003F8000
7C003F0000
78001E0000
6000180000
ENDCHAR
STARTCHAR 00C0
ENCODING 192
SWIDTH 504 0
DWIDTH 56 0
BBX 42 78 7 0
BITMAP
00FFFFFFC000
01FFFFFFE000
03FFFFFFF000
07FFFFFFF800
03FFFFFFF000
01FFFFFFE200
30FFFFFFC700
780000000F80
FC0000001FC0
FE0000001FC0
FE0000001FC0
FE0000001FC0
FE0000001FC0
FE0000001FC0
FE0000001FC0
FE0000001FC0
FE0000001FC0
FE0000001FC0
FE0000001FC0
FE0000001FC0
FE0000001FC0
FE0000001FC0
FE0000001FC0
FE0000001FC0
FE0000001FC0
FE0000001FC0
FE0000001FC0
FE0000001FC0
FE0000001FC0
FE0000001FC0
FE0000001FC0
FE0000001FC0
FE0000001FC0
FE0000001FC0
FC0000001FC0
780000000F80
30FFFFFFC700
01FFFFFFE200
03FFFFFFF000
07FFFFFFF800
03FFFFFFF000
01FFFFFFE200
30FFFFFFC700
780000000F80
FC0000001FC0
FE0000001FC0
FE0000001FC0
FE0000001FC0
FE0000001FC0
FE0000001FC0
FE0000001FC0
FE0000001FC0
FE0000001FC0
FE0000001FC0
FE0000001FC0
FE0000001FC0
FE0000001FC0
FE0000001FC0
FE0000001FC0
FE0000001FC0
FE0000001FC0
FE0000001FC0
FE0000001FC0
FE0000001FC0
FE0000001FC0
FE0000001FC0
FE0000001FC0
FE0000001FC0
FE0000001FC0
FE0000001FC0
FE0000001FC0
FE0000001FC0
FE0000001FC0
FE0000001FC0
FE0000001FC0
7C0000000F80
380000000700
100000000200
ENDCHAR
STARTCHAR 00C1
ENCODING 193
SWIDTH 504 0
DWIDTH 56 0
BBX 42 96 7 0
BITMAP
0000001F0000
0000003F0000
0000007F0000
000000FF0000
000001FF0000
000003FF0000
000007FE0000
00000FFC0000
00001FF80000
00003FF00000
00007FE00000
00007FC00000
00007F800000
00007F000000
00007E000000
000000000000
000000000000
000000000000
00FFFFFFC000
01FFFFFFE000
03FFFFFFF000
07FFFFFFF800
03FFFFFFF000
01FFFFFFE200
30FFFFFFC700
780000000F80
FC0000001FC0
FE0000001FC0
FE0000001FC0
FE0000001FC0
FE0000001FC0
FE0000001FC0
FE0000001FC0
FE0000001FC0
FE0000001FC0
FE0000001FC0
FE0000001FC0
FE0000001FC0
FE0000001FC0
FE0000001FC0
FE0000001FC0
FE0000001FC0
FE0000001FC0
FE0000001FC0
FE0000001FC0
FE0000001FC0
FE0000001FC0
FE0000001FC0
FE0000001FC0
FE0000001FC0
FE0000001FC0
FE0000001FC0
FC0000001FC0
780000000F80
30FFFFFFC700
01FFFFFFE200
03FFFFFFF000
07FFFFFFF800
03FFFFFFF000
01FFFFFFE200
30FFFFFFC700
780000000F80
FC0000001FC0
FE0000001FC0
FE0000001FC0
FE0000001FC0
FE0000001FC0
FE0000001FC0
FE0000001FC0
FE0000001FC0
FE0000001FC0
FE0000001FC0
FE0000001FC0
FE0000001FC0
FE0000001FC0
FE0000001FC0
FE0000001FC0
FE0000001FC0
FE0000001FC0
FE0000001FC0
FE0000001FC0
FE0000001FC0
FE0000001FC0
FE0000001FC0
FE0000001FC0
FE0000001FC0
FE0000001FC0
FE0000001FC0
FE0000001FC0
FE0000001FC0
FE0000001FC0
FE0000001FC0
FE0000001FC0
7C0000000F80
380000000700
100000000200
ENDCHAR
STARTCHAR 00C2
ENCODING 194
SWIDTH 504 0
DWIDTH 56 0
BBX 42 78 7 0
BITMAP
00FFFFFFC000
01FFFFFFE000
03FFFFFFF000
07FFFFFFF800
03FFFFFFF000
01FFFFFFE200
30FFFFFFC700
780000000F80
FC0000001FC0
FE0000001FC0
FE0000001FC0
FE0000001FC0
FE0000001FC0
FE0000001FC0
FE0000001FC0
FE0000001FC0
FE0000001FC0
FE0000001FC0
FE0000001FC0
FE0000001FC0
FE0000001FC0
FE0000001FC0
FE0000001FC0
FE0000001FC0
FE0000001FC0
FE0000001FC0
FE0000001FC0
FE0000001FC0
FE0000001FC0
FE0000001FC0
FE0000001FC0
FE0000001FC0
FE0000001FC0
FE0000001FC0
FC0000001FC0
780000000F80
30FFFFFFC700
01FFFFFFE200
03FFFFFFF000
07FFFFFFF800
03FFFFFFF000
01FFFFFFE200
30FFFFFFC700
780000000F80
FC0000001FC0
FE0000001FC0
FE0000001FC0
FE0000001FC0
FE0000001FC0
FE0000001FC0
FE0000001FC0
FE0000001FC0
FE0000001FC0
FE0000001FC0
FE0000001FC0
FE0000001FC0
FE0000001FC0
FE0000001FC0
FE0000001FC0
FE0000001FC0
FE0000001FC0
FE0000001FC0
FE0000001FC0
FE0000001FC0
FE0000001FC0
FE0000001FC0
FE0000001FC0
FE0000001FC0
FE0000001FC0
FE0000001FC0
FE0000001FC0
FE0000001FC0
FE0000001FC0
FE0000001FC0
FE0000001FC0
7C0000000F80
380000000700
100000000200
ENDCHAR
STARTCHAR 00C3
ENCODING 195
SWIDTH 504 0
DWIDTH 56 0
BBX 42 78 7 0
BITMAP
00FFFFFFC000
01FFFFFFE000
03FFFFFFF000
07FFFFFFF800
03FFFFFFF000
01FFFFFFE200
30FFFFFFC700
780000000F80
FC0000001FC0
FE0000001FC0
FE0000001FC0
FE0000001FC0
FE0000001FC0
FE0000001FC0
FE0000001FC0
FE0000001FC0
FE0000001FC0
FE0000001FC0
FE0000001FC0
FE0000001FC0
FE0000001FC0
FE0000001FC0
FE0000001FC0
FE0000001FC0
FE0000001FC0
FE0000001FC0
FE0000001FC0
FE0000001FC0
FE0000001FC0
FE0000001FC0
FE0000001FC0
FE0000001FC0
FE0000001FC0
FE0000001FC0
FC0000001FC0
780000000F80
30FFFFFFC700
01FFFFFFE200
03FFFFFFF000
07FFFFFFF800
03FFFFFFF000
01FFFFFFE200
30FFFFFFC700
780000000F80
FC0000001FC0
FE0000001FC0
FE0000001FC0
FE0000001FC0
FE0000001FC0
FE0000001FC0
FE0000001FC0
FE0000001FC0
FE0000001FC0
FE0000001FC0
FE0000001FC0
FE0000001FC0
FE0000001FC0
FE0000001FC0
FE0000001FC0
FE0000001FC0
FE0000001FC0
FE0000001FC0
FE0000001FC0
FE0000001FC0
FE0000001FC0
FE0000001FC0
FE0000001FC0
FE0000001FC0
FE0000001FC0
FE0000001FC0
FE0000001FC0
FE0000001FC0
FE0000001FC0
FE0000001FC0
FE0000001FC0
7C0000000F80
380000000700
100000000200
ENDCHAR
STARTCHAR 00C4
ENCODING 196
SWIDTH 504 0
DWIDTH 56 0
BBX 42 92 7 0
BITMAP
001800040000
003C000E0000
007E001F0000
00FF003F8000
00FF003F8000
00FF003F8000
00FF003F8000
00FF003F8000
007E001F0000
003C000E0000
001800040000
000000000000
000000000000
000000000000
00FFFFFFC000
01FFFFFFE000
03FFFFFFF000
07FFFFFFF800
03FFFFFFF000
01FFFFFFE200
30FFFFFFC700
780000000F80
FC0000001FC0
FE0000001FC0
FE0000001FC0
FE0000001FC0
FE0000001FC0
FE0000001FC0
FE0000001FC0
FE0000001FC0
FE0000001FC0
FE0000001FC0
FE0000001FC0
FE0000001FC0
FE0000001FC0
FE0000001FC0
FE0000001FC0
FE0000001FC0
FE0000001FC0
FE0000001FC0
FE0000001FC0
FE0000001FC0
FE0000001FC0
FE0000001FC0
FE0000001FC0
FE0000001FC0
FE0000001FC0
FE0000001FC0
FC0000001FC0
780000000F80
30FFFFFFC700
01FFFFFFE200
03FFFFFFF000
07FFFFFFF800
03FFFFFFF000
01FFFFFFE200
30FFFFFFC700
780000000F80
FC0000001FC0
FE0000001FC0
FE0000001FC0
FE0000001FC0
FE0000001FC0
FE0000001FC0
FE0000001FC0
FE0000001FC0
FE0000001FC0
FE0000001FC0
FE0000001FC0
FE0000001FC0
FE0000001FC0
FE0000001FC0
FE0000001FC0
FE0000001FC0
FE0000001FC0
FE0000001FC0
FE0000001FC0
FE0000001FC0
FE0000001FC0
FE0000001FC0
FE0000001FC0
FE0000001FC0
FE0000001FC0
FE0000001FC0
FE0000001FC0
FE0000001FC0
FE0000001FC0
FE0000001FC0
FE0000001FC0
7C0000000F80
380000000700
100000000200
ENDCHAR
STARTCHAR 00C7
ENCODING 199
SWIDTH 450 0
DWIDTH 50 0
BBX 37 92 7 -14
BITMAP
00FFFFFFC0
01FFFFFFE0
03FFFFFFF0
07FFFFFFF8
03FFFFFFF0
01FFFFFFE0
30FFFFFFC0
7800000000
FC00000000
FE00000000
FE00000000
FE00000000
FE00000000
FE00000000
FE00000000
FE00000000
FE00000000
FE00000000
FE00000000
FE00000000
FE00000000
FE00000000
FE00000000
FE00000000
FE00000000
FE00000000
FE00000000
FE00000000
FE00000000
FE00000000
FE00000000
FE00000000
FE00000000
FE00000000
7C00000000
7800000000
3000000000
0000000000
0000000000
0000000000
0000000000
3000000000
7800000000
FC00000000
FE00000000
FE00000000
FE00000000
FE00000000
FE00000000
FE00000000
FE00000000
FE00000000
FE00000000
FE00000000
FE00000000
FE00000000
FE00000000
FE00000000
FE00000000
FE00000000
FE00000000
FE00000000
FE00000000
FE00000000
FE00000000
FE00000000
FE00000000
FE00000000
FE00000000
FC00000000
7800000000
30FFFFFFC0
01FFFFFFE0
03FFFFFFF0
07FFFFFFF8
03FFFFFFF0
01FFFFFFE0
00FFFFFFC0
0000000000
0000000000
0000000000
0000000000
0000600000
0000F00000
0001F80000
0001FC0000
0001FC0000
0001FC0000
0001FC0000
0001F80000
0000F00000
0000600000
ENDCHAR
STARTCHAR 00C8
ENCODING 200
SWIDTH 450 0
DWIDTH 50 0
BBX 37 78 7 0
BITMAP
00FFFFFFC0
01FFFFFFE0
03FFFFFFF0
07FFFFFFF8
03FFFFFFF0
01FFFFFFE0
30FFFFFFC0
7C00000000
FE00000000
FE00000000
FE00000000
FE00000000
FE00000000
FE00000000
FE00000000
FE00000000
FE00000000
FE00000000
FE00000000
FE00000000
FE00000000
FE00000000
FE00000000
FE00000000
FE00000000
FE00000000
FE00000000
FE00000000
FE00000000
FE00000000
FE00000000
FE00000000
FE00000000
FC00000000
7800000000
30FFFFFFC0
01FFFFFFE0
03FFFFFFF0
07FFFFFFF8
03FFFFFFF0
01FFFFFFE0
30FFFFFFC0
7800000000
FC00000000
FE00000000
FE00000000
FE00000000
FE00000000
FE00000000
FE00000000
FE00000000
FE00000000
FE00000000
FE00000000
FE00000000
FE00000000
FE00000000
FE00000000
FE00000000
FE00000000
FE00000000
FE00000000
FE00000000
FE00000000
FE00000000
FE00000000
FE00000000
FE00000000
FE00000000
FC00000000
7800000000
30FFFFFFC0
01FFFFFFE0
03FFFFFFF0
07FFFFFFF8
03FFFFFFF0
01FFFFFFE0
00FFFFFFC0
ENDCHAR
STARTCHAR 00C9
ENCODING 201
SWIDTH 450 0
DWIDTH 50 0
BBX 37 96 7 0
BITMAP
000000FC00
000001FC00
000003FC00
000007FC00
00000FFC00
00001FF800
00003FF000
00007FE000
0000FFC000
0001FF8000
0001FF0000
0001FE0000
0001FC0000
0001F80000
0001F00000
0000000000
0000000000
0000000000
00FFFFFFC0
01FFFFFFE0
03FFFFFFF0
07FFFFFFF8
03FFFFFFF0
01FFFFFFE0
30FFFFFFC0
7C00000000
FE00000000
FE00000000
FE00000000
FE00000000
FE00000000
FE00000000
FE00000000
FE00000000
FE00000000
FE00000000
FE00000000
FE00000000
FE00000000
FE00000000
FE00000000
FE00000000
FE00000000
FE00000000
FE00000000
FE00000000
FE00000000
FE00000000
FE00000000
FE00000000
FE00000000
FC00000000
7800000000
30FFFFFFC0
01FFFFFFE0
03FFFFFFF0
07FFFFFFF8
03FFFFFFF0
01FFFFFFE0
30FFFFFFC0
7800000000
FC00000000
FE00000000
FE00000000
FE00000000
FE00000000
FE00000000
FE00000000
FE00000000
FE00000000
FE00000000
FE00000000
FE00000000
FE00000000
FE00000000
FE00000000
FE00000000
FE00000000
FE00000000
FE00000000
FE00000000
FE00000000
FE00000000
FE00000000
FE00000000
FE00000000
FE00000000
FC00000000
7800000000
30FFFFFFC0
01FFFFFFE0
03FFFFFFF0
07FFFFFFF8
03FFFFFFF0
01FFFFFFE0
00FFFFFFC0
ENDCHAR
STARTCHAR 00CB
ENCODING 203
SWIDTH 450 0
DWIDTH 50 0
BBX 37 92 7 0
BITMAP
0040003000
00E0007800
01F000FC00
03F800FE00
03F800FE00
03F800FE00
03F800FE00
03F800FE00
01F0007C00
00E0003800
0040001000
0000000000
0000000000
0000000000
00FFFFFFC0
01FFFFFFE0
03FFFFFFF0
07FFFFFFF8
03FFFFFFF0
01FFFFFFE0
30FFFFFFC0
7800000000
FE00000000
FE00000000
FE00000000
FE00000000
FE00000000
FE00000000
FE00000000
FE00000000
FE00000000
FE00000000
FE00000000
FE00000000
FE00000000
FE00000000
FE00000000
FE00000000
FE00000000
FE00000000
FE00000000
FE00000000
FE00000000
FE00000000
FE00000000
FE00000000
FE00000000
FC00000000
7800000000
30FFFFFFC0
01FFFFFFE0
03FFFFFFF0
07FFFFFFF8
03FFFFFFF0
01FFFFFFE0
30FFFFFFC0
7800000000
FC00000000
FE00000000
FE00000000
FE00000000
FE00000000
FE00000000
FE00000000
FE00000000
FE00000000
FE00000000
FE00000000
FE00000000
FE00000000
FE00000000
FE00000000
FE00000000
FE00000000
FE00000000
FE00000000
FE00000000
FE00000000
FE00000000
FE00000000
FE00000000
FE00000000
FE00000000
FC00000000
7800000000
30FFFFFFC0
01FFFFFFE0
03FFFFFFF0
07FFFFFFF8
03FFFFFFF0
01FFFFFFE0
00FFFFFFC0
ENDCHAR
STARTCHAR 00CC
ENCODING 204
SWIDTH 180 0
DWIDTH 20 0
BBX 7 78 7 0
BITMAP
10
38
7C
FE
FE
FE
FE
FE
FE
FE
FE
FE
FE
FE
FE
FE
FE
FE
FE
FE
FE
FE
FE
FE
FE
FE
FE
FE
FE
FE
FE
FE
FE
FE
FC
78
30
00
00
00
00
30
78
FC
FE
FE
FE
FE
FE
FE
FE
FE
FE
FE
FE
FE
FE
FE
FE
FE
FE
FE
FE
FE
FE
FE
FE
FE
FE
FE
FE
FE
FE
FE
FE
7C
38
10
ENDCHAR
STARTCHAR 00CD
ENCODING 205
SWIDTH 180 0
DWIDTH 20 0
BBX 7 78 7 0
BITMAP
10
38
7C
FE
FE
FE
FE
FE
FE
FE
FE
FE
FE
FE
FE
FE
FE
FE
FE
FE
FE
FE
FE
FE
FE
FE
FE
FE
FE
FE
FE
FE
FE
FE
FC
78
30
00
00
00
00
30
78
FC
FE
FE
FE
FE
FE
FE
FE
FE
FE
FE
FE
FE
FE
FE
FE
FE
FE
FE
FE
FE
FE
FE
FE
FE
FE
FE
FE
FE
FE
FE
FE
7C
38
10
ENDCHAR
STARTCHAR 00CE
ENCODING 206
SWIDTH 180 0
DWIDTH 20 0
BBX 7 78 7 0
BITMAP
10
38
7C
FE
FE
FE
FE
FE
FE
FE
FE
FE
FE
FE
FE
FE
FE
FE
FE
FE
FE
FE
FE
FE
FE
FE
FE
FE
FE
FE
FE
FE
FE
FE
FC
78
30
00
00
00
00
30
78
FC
FE
FE
FE
FE
FE
FE
FE
FE
FE
FE
FE
FE
FE
FE
FE
FE
FE
FE
FE
FE
FE
FE
FE
FE
FE
FE
FE
FE
FE
FE
FE
7C
38
10
ENDCHAR
STARTCHAR 00D2
ENCODING 210
SWIDTH 504 0
DWIDTH 56 0
BBX 42 96 7 0
BITMAP
000001F00000
000003F00000
000007F00000
00000FF00000
00001FF00000
00003FF00000
00007FE00000
0000FFC00000
0001FF800000
0003FF000000
0003FE000000
0003FC000000
0003F8000000
0003F0000000
0003E0000000
000000000000
000000000000
000000000000
00FFFFFFC000
01FFFFFFE000
03FFFFFFF000
07FFFFFFF800
03FFFFFFF000
01FFFFFFE200
30FFFFFFC700
780000000F80
FC0000001FC0
FE0000001FC0
FE0000001FC0
FE0000001FC0
FE0000001FC0
FE0000001FC0
FE0000001FC0
FE0000001FC0
FE0000001FC0
FE0000001FC0
FE0000001FC0
FE0000001FC0
FE0000001FC0
FE0000001FC0
FE0000001FC0
FE0000001FC0
FE0000001FC0
FE0000001FC0
FE0000001FC0
FE0000001FC0
FE0000001FC0
FE0000001FC0
FE0000001FC0
FE0000001FC0
FE0000001FC0
FE0000001FC0
7C0000000F80
780000000700
300000000200
000000000000
000000000000
000000000000
000000000000
300000000200
780000000700
FC0000000F80
FE0000001FC0
FE0000001FC0
FE0000001FC0
FE0000001FC0
FE0000001FC0
FE0000001FC0
FE0000001FC0
FE0000001FC0
FE0000001FC0
FE0000001FC0
FE0000001FC0
FE0000001FC0
FE0000001FC0
FE0000001FC0
FE0000001FC0
FE0000001FC0
FE0000001FC0
FE0000001FC0
FE0000001FC0
FE0000001FC0
FE0000001FC0
FE0000001FC0
FE0000001FC0
FE0000001FC0
FE0000001FC0
FC0000001FC0
780000000F80
30FFFFFFC700
01FFFFFFE200
03FFFFFFF000
07FFFFFFF800
03FFFFFFF000
01FFFFFFE000
00FFFFFFC000
ENDCHAR
STARTCHAR 00D3
ENCODING 211
SWIDTH 504 0
DWIDTH 56 0
BBX 42 78 7 0
BITMAP
00FFFFFFC000
01FFFFFFE000
03FFFFFFF000
07FFFFFFF800
03FFFFFFF000
01FFFFFFE200
30FFFFFFC700
780000000F80
FC0000001FC0
FE0000001FC0
FE0000001FC0
FE0000001FC0
FE0000001FC0
FE0000001FC0
FE0000001FC0
FE0000001FC0
FE0000001FC0
FE0000001FC0
FE0000001FC0
FE0000001FC0
FE0000001FC0
FE0000001FC0
FE0000001FC0
FE0000001FC0
FE0000001FC0
FE0000001FC0
FE0000001FC0
FE0000001FC0
FE0000001FC0
FE0000001FC0
FE0000001FC0
FE0000001FC0
FE0000001FC0
FE0000001FC0
7C0000000F80
780000000700
300000000200
000000000000
000000000000
000000000000
000000000000
300000000200
780000000700
FC0000000F80
FE0000001FC0
FE0000001FC0
FE0000001FC0
FE0000001FC0
FE0000001FC0
FE0000001FC0
FE0000001FC0
FE0000001FC0
FE0000001FC0
FE0000001FC0
FE0000001FC0
FE0000001FC0
FE0000001FC0
FE0000001FC0
FE0000001FC0
FE0000001FC0
FE0000001FC0
FE0000001FC0
FE0000001FC0
FE0000001FC0
FE0000001FC0
FE0000001FC0
FE0000001FC0
FE0000001FC0
FE0000001FC0
FC0000001FC0
780000000F80
30FFFFFFC700
01FFFFFFE200
03FFFFFFF000
07FFFFFFF800
03FFFFFFF000
01FFFFFFE000
00FFFFFFC000
ENDCHAR
STARTCHAR 00D4
ENCODING 212
SWIDTH 504 0
DWIDTH 56 0
BBX 42 78 7 0
BITMAP
00FFFFFFC000
01FFFFFFE000
03FFFFFFF000
07FFFFFFF800
03FFFFFFF000
01FFFFFFE200
30FFFFFFC700
780000000F80
FC0000001FC0
FE0000001FC0
FE0000001FC0
FE0000001FC0
FE0000001FC0
FE0000001FC0
FE0000001FC0
FE0000001FC0
FE0000001FC0
FE0000001FC0
FE0000001FC0
FE0000001FC0
FE0000001FC0
FE0000001FC0
FE0000001FC0
FE0000001FC0
FE0000001FC0
FE0000001FC0
FE0000001FC0
FE0000001FC0
FE0000001FC0
FE0000001FC0
FE0000001FC0
FE0000001FC0
FE0000001FC0
FE0000001FC0
7C0000000F80
780000000700
300000000200
000000000000
000000000000
000000000000
000000000000
300000000200
780000000700
FC0000000F80
FE0000001FC0
FE0000001FC0
FE0000001FC0
FE0000001FC0
FE0000001FC0
FE0000001FC0
FE0000001FC0
FE0000001FC0
FE0000001FC0
FE0000001FC0
FE0000001FC0
FE0000001FC0
FE0000001FC0
FE0000001FC0
FE0000001FC0
FE0000001FC0
FE0000001FC0
FE0000001FC0
FE0000001FC0
FE0000001FC0
FE0000001FC0
FE0000001FC0
FE0000001FC0
FE0000001FC0
FE0000001FC0
FC0000001FC0
780000000F80
30FFFFFFC700
01FFFFFFE200
03FFFFFFF000
07FFFFFFF800
03FFFFFFF000
01FFFFFFE000
00FFFFFFC000
ENDCHAR
STARTCHAR 00D5
ENCODING 213
SWIDTH 504 0
DWIDTH 56 0
BBX 42 78 7 0
BITMAP
00FFFFFFC000
01FFFFFFE000
03FFFFFFF000
07FFFFFFF800
03FFFFFFF000
01FFFFFFE200
30FFFFFFC700
780000000F80
FC0000001FC0
FE0000001FC0
FE0000001FC0
FE0000001FC0
FE0000001FC0
FE0000001FC0
FE0000001FC0
FE0000001FC0
FE0000001FC0
FE0000001FC0
FE0000001FC0
FE0000001FC0
FE0000001FC0
FE0000001FC0
FE0000001FC0
FE0000001FC0
FE0000001FC0
FE0000001FC0
FE0000001FC0
FE0000001FC0
FE0000001FC0
FE0000001FC0
FE0000001FC0
FE0000001FC0
FE0000001FC0
FE0000001FC0
7C0000000F80
780000000700
300000000200
000000000000
000000000000
000000000000
000000000000
300000000200
780000000700
FC0000000F80
FE0000001FC0
FE0000001FC0
FE0000001FC0
FE0000001FC0
FE0000001FC0
FE0000001FC0
FE0000001FC0
FE0000001FC0
FE0000001FC0
FE0000001FC0
FE0000001FC0
FE0000001FC0
FE0000001FC0
FE0000001FC0
FE0000001FC0
FE0000001FC0
FE0000001FC0
FE0000001FC0
FE0000001FC0
FE0000001FC0
FE0000001FC0
FE0000001FC0
FE0000001FC0
FE0000001FC0
FE0000001FC0
FC0000001FC0
780000000F80
30FFFFFFC700
01FFFFFFE200
03FFFFFFF000
07FFFFFFF800
03FFFFFFF000
01FFFFFFE000
00FFFFFFC000
ENDCHAR
STARTCHAR 00D6
ENCODING 214
SWIDTH 504 0
DWIDTH 56 0
BBX 42 92 7 0
BITMAP
001800040000
003C000E0000
007E001F0000
00FF003F8000
00FF003F8000
00FF003F8000
00FF003F8000
00FF003F8000
007E001F0000
003C000E0000
001800040000
000000000000
000000000000
000000000000
00FFFFFFC000
01FFFFFFE000
03FFFFFFF000
07FFFFFFF800
03FFFFFFF000
01FFFFFFE200
30FFFFFFC700
780000000F80
FC0000001FC0
FE0000001FC0
FE0000001FC0
FE0000001FC0
FE0000001FC0
FE0000001FC0
FE0000001FC0
FE0000001FC0
FE0000001FC0
FE0000001FC0
FE0000001FC0
FE0000001FC0
FE0000001FC0
FE0000001FC0
FE0000001FC0
FE0000001FC0
FE0000001FC0
FE0000001FC0
FE0000001FC0
FE0000001FC0
FE0000001FC0
FE0000001FC0
FE0000001FC0
FE0000001FC0
FE0000001FC0
FE0000001FC0
7C0000000F80
780000000700
300000000200
000000000000
000000000000
000000000000
000000000000
300000000200
780000000700
FC0000000F80
FE0000001FC0
FE0000001FC0
FE0000001FC0
FE0000001FC0
FE0000001FC0
FE0000001FC0
FE0000001FC0
FE0000001FC0
FE0000001FC0
FE0000001FC0
FE0000001FC0
FE0000001FC0
FE0000001FC0
FE0000001FC0
FE0000001FC0
FE0000001FC0
FE0000001FC0
FE0000001FC0
FE0000001FC0
FE0000001FC0
FE0000001FC0
FE0000001FC0
FE0000001FC0
FE0000001FC0
FE0000001FC0
FC0000001FC0
780000000F80
30FFFFFFC700
01FFFFFFE200
03FFFFFFF000
07FFFFFFF800
03FFFFFFF000
01FFFFFFE000
00FFFFFFC000
ENDCHAR
STARTCHAR 00D9
ENCODING 217
SWIDTH 504 0
DWIDTH 56 0
BBX 42 96 7 0
BITMAP
000001F00000
000003F00000
000007F00000
00000FF00000
00001FF00000
00003FF00000
00007FE00000
0000FFC00000
0001FF800000
0003FF000000
0003FE000000
0003FC000000
0003F8000000
0003F0000000
0003E0000000
000000000000
000000000000
000000000000
100000000200
380000000700
7C0000000F80
FE0000001FC0
FE0000001FC0
FE0000001FC0
FE0000001FC0
FE0000001FC0
FE0000001FC0
FE0000001FC0
FE0000001FC0
FE0000001FC0
FE0000001FC0
FE0000001FC0
FE0000001FC0
FE0000001FC0
FE0000001FC0
FE0000001FC0
FE0000001FC0
FE0000001FC0
FE0000001FC0
FE0000001FC0
FE0000001FC0
FE0000001FC0
FE0000001FC0
FE0000001FC0
FE0000001FC0
FE0000001FC0
FE0000001FC0
FE0000001FC0
FE0000001FC0
FE0000001FC0
FE0000001FC0
FE0000001FC0
FC0000000F80
780000000700
300000000200
000000000000
000000000000
000000000000
000000000000
100000000200
380000000700
7C0000000F80
FE0000001FC0
FE0000001FC0
FE0000001FC0
FE0000001FC0
FE0000001FC0
FE0000001FC0
FE0000001FC0
FE0000001FC0
FE0000001FC0
FE0000001FC0
FE0000001FC0
FE0000001FC0
FE0000001FC0
FE0000001FC0
FE0000001FC0
FE0000001FC0
FE0000001FC0
FE0000001FC0
FE0000001FC0
FE0000001FC0
FE0000001FC0
FE0000001FC0
FE0000001FC0
FE0000001FC0
FE0000001FC0
FC0000001FC0
780000000F80
30FFFFFFC700
01FFFFFFE200
03FFFFFFF000
07FFFFFFF800
03FFFFFFF000
01FFFFFFE000
00FFFFFFC000
ENDCHAR
STARTCHAR 00DA
ENCODING 218
SWIDTH 504 0
DWIDTH 56 0
BBX 42 78 7 0
BITMAP
100000000200
380000000700
7C0000000F80
FE0000001FC0
FE0000001FC0
FE0000001FC0
FE0000001FC0
FE0000001FC0
FE0000001FC0
FE0000001FC0
FE0000001FC0
FE0000001FC0
FE0000001FC0
FE0000001FC0
FE0000001FC0
FE0000001FC0
FE0000001FC0
FE0000001FC0
FE0000001FC0
FE0000001FC0
FE0000001FC0
FE0000001FC0
FE0000001FC0
FE0000001FC0
FE0000001FC0
FE0000001FC0
FE0000001FC0
FE0000001FC0
FE0000001FC0
FE0000001FC0
FE0000001FC0
FE0000001FC0
FE0000001FC0
FE0000001FC0
FC0000000F80
780000000700
300000000200
000000000000
000000000000
000000000000
000000000000
100000000200
380000000700
7C0000000F80
FE0000001FC0
FE0000001FC0
FE0000001FC0
FE0000001FC0
FE0000001FC0
FE0000001FC0
FE0000001FC0
FE0000001FC0
FE0000001FC0
FE0000001FC0
FE0000001FC0
FE0000001FC0
FE0000001FC0
FE0000001FC0
FE0000001FC0
FE0000001FC0
FE0000001FC0
FE0000001FC0
FE0000001FC0
FE0000001FC0
FE0000001FC0
FE0000001FC0
FE0000001FC0
FE0000001FC0
FE0000001FC0
FC0000001FC0
780000000F80
30FFFFFFC700
01FFFFFFE200
03FFFFFFF000
07FFFFFFF800
03FFFFFFF000
01FFFFFFE000
00FFFFFFC000
ENDCHAR
STARTCHAR 00DC
ENCODING 220
SWIDTH 504 0
DWIDTH 56 0
BBX 42 92 7 0
BITMAP
001800040000
003C000E0000
007E001F0000
00FF003F8000
00FF003F8000
00FF003F8000
00FF003F8000
00FF003F8000
007E001F0000
003C000E0000
001800040000
000000000000
000000000000
000000000000
100000000200
380000000700
7C0000000F80
FE0000001FC0
FE0000001FC0
FE0000001FC0
FE0000001FC0
FE0000001FC0
FE0000001FC0
FE0000001FC0
FE0000001FC0
FE0000001FC0
FE0000001FC0
FE0000001FC0
FE0000001FC0
FE0000001FC0
FE0000001FC0
FE0000001FC0
FE0000001FC0
FE0000001FC0
FE0000001FC0
FE0000001FC0
FE0000001FC0
FE0000001FC0
FE0000001FC0
FE0000001FC0
FE0000001FC0
FE0000001FC0
FE0000001FC0
FE0000001FC0
FE0000001FC0
FE0000001FC0
FE0000001FC0
FE0000001FC0
FC0000000F80
780000000700
300000000200
000000000000
000000000000
000000000000
000000000000
100000000200
380000000700
7C0000000F80
FE0000001FC0
FE0000001FC0
FE0000001FC0
FE0000001FC0
FE0000001FC0
FE0000001FC0
FE0000001FC0
FE0000001FC0
FE0000001FC0
FE0000001FC0
FE0000001FC0
FE0000001FC0
FE0000001FC0
FE0000001FC0
FE0000001FC0
FE0000001FC0
FE0000001FC0
FE0000001FC0
FE0000001FC0
FE0000001FC0
FE0000001FC0
FE0000001FC0
FE0000001FC0
FE0000001FC0
FE0000001FC0
FC0000001FC0
780000000F80
30FFFFFFC700
01FFFFFFE200
03FFFFFFF000
07FFFFFFF800
03FFFFFFF000
01FFFFFFE000
00FFFFFFC000
ENDCHAR
STARTCHAR 00DF
ENCODING 223
SWIDTH 450 0
DWIDTH 50 0
BBX 37 78 7 0
BITMAP
1FFFFFF000
3FFFFFF800
7FFFFFFC00
FFFFFFFE00
7FFFFFFC00
3FFFFFF800
1FFFFFF0E0
00000001F0
00000003F8
00000003F8
000C0003F8
001E0003F8
003F0003F8
007F0003F8
007F0003F8
007F0003F8
007F0003F8
007F0003F8
007F0003F8
007F0003F8
007F0003F8
007F0003F8
007F0003F8
007F0003F8
007F0003F8
007F0003F8
007F0003F8
007F0003F8
007F0003F8
003F0003F8
001E0003F8
000C0003F8
00000003F8
00000003F0
00000001E0
1FFFFFF0C0
3FFFFFF840
7FFFFFFC00
FFFFFFFE00
7FFFFFFC00
3FFFFFF800
1FFFFFF0C0
00000001E0
00000003F0
00000003F8
000C0003F8
001E0003F8
003F0003F8
007F0003F8
007F0003F8
007F0003F8
007F0003F8
007F0003F8
007F0003F8
007F0003F8
007F0003F8
007F0003F8
007F0003F8
007F0003F8
007F0003F8
007F0003F8
007F0003F8
007F0003F8
007F0003F8
007F0003F8
003F0003F8
001E0003F8
000C0003F8
00000003F8
00000003F0
00000001E0
1FFFFFF0C0
3FFFFFF800
7FFFFFFC00
FFFFFFFE00
7FFFFFFC00
3FFFFFF800
1FFFFFF000
ENDCHAR
STARTCHAR 00E0
ENCODING 224
SWIDTH 504 0
DWIDTH 56 0
BBX 42 78 7 0
BITMAP
00FFFFFFC000
01FFFFFFE000
03FFFFFFF000
07FFFFFFF800
03FFFFFFF000
01FFFFFFE200
30FFFFFFC700
780000000F80
FC0000001FC0
FE0000001FC0
FE0000001FC0
FE0000001FC0
FE0000001FC0
FE0000001FC0
FE0000001FC0
FE0000001FC0
FE0000001FC0
FE0000001FC0
FE0000001FC0
FE0000001FC0
FE0000001FC0
FE0000001FC0
FE0000001FC0
FE0000001FC0
FE0000001FC0
FE0000001FC0
FE0000001FC0
FE0000001FC0
FE0000001FC0
FE0000001FC0
FE0000001FC0
FE0000001FC0
FE0000001FC0
FE0000001FC0
FC0000001FC0
780000000F80
30FFFFFFC700
01FFFFFFE200
03FFFFFFF000
07FFFFFFF800
03FFFFFFF000
01FFFFFFE200
30FFFFFFC700
780000000F80
FC0000001FC0
FE0000001FC0
FE0000001FC0
FE0000001FC0
FE0000001FC0
FE0000001FC0
FE0000001FC0
FE0000001FC0
FE0000001FC0
FE0000001FC0
FE0000001FC0
FE0000001FC0
FE0000001FC0
FE0000001FC0
FE0000001FC0
FE0000001FC0
FE0000001FC0
FE0000001FC0
FE0000001FC0
FE0000001FC0
FE0000001FC0
FE0000001FC0
FE0000001FC0
FE0000001FC0
FE0000001FC0
FE0000001FC0
FE0000001FC0
FE0000001FC0
FE0000001FC0
FE0000001FC0
FE0000001FC0
7C0000000F80
380000000700
100000000200
ENDCHAR
STARTCHAR 00E1
ENCODING 225
SWIDTH 504 0
DWIDTH 56 0
BBX 42 78 7 0
BITMAP
00FFFFFFC000
01FFFFFFE000
03FFFFFFF000
07FFFFFFF800
03FFFFFFF000
01FFFFFFE200
30FFFFFFC700
780000000F80
FC0000001FC0
FE0000001FC0
FE0000001FC0
FE0000001FC0
FE0000001FC0
FE0000001FC0
FE0000001FC0
FE0000001FC0
FE0000001FC0
FE0000001FC0
FE0000001FC0
FE0000001FC0
FE0000001FC0
FE0000001FC0
FE0000001FC0
FE0000001FC0
FE0000001FC0
FE0000001FC0
FE0000001FC0
FE0000001FC0
FE0000001FC0
FE0000001FC0
FE0000001FC0
FE0000001FC0
FE0000001FC0
FE0000001FC0
FC0000001FC0
780000000F80
30FFFFFFC700
01FFFFFFE200
03FFFFFFF000
07FFFFFFF800
03FFFFFFF000
01FFFFFFE200
30FFFFFFC700
780000000F80
FC0000001FC0
FE0000001FC0
FE0000001FC0
FE0000001FC0
FE0000001FC0
FE0000001FC0
FE0000001FC0
FE0000001FC0
FE0000001FC0
FE0000001FC0
FE0000001FC0
FE0000001FC0
FE0000001FC0
FE0000001FC0
FE0000001FC0
FE0000001FC0
FE0000001FC0
FE0000001FC0
FE0000001FC0
FE0000001FC0
FE0000001FC0
FE0000001FC0
FE0000001FC0
FE0000001FC0
FE0000001FC0
FE0000001FC0
FE0000001FC0
FE0000001FC0
FE0000001FC0
FE0000001FC0
FE0000001FC0
7C0000000F80
380000000700
100000000200
ENDCHAR
STARTCHAR 00E2
ENCODING 226
SWIDTH 504 0
DWIDTH 56 0
BBX 42 78 7 0
BITMAP
00FFFFFFC000
01FFFFFFE000
03FFFFFFF000
07FFFFFFF800
03FFFFFFF000
01FFFFFFE200
30FFFFFFC700
780000000F80
FC0000001FC0
FE0000001FC0
FE0000001FC0
FE0000001FC0
FE0000001FC0
FE0000001FC0
FE0000001FC0
FE0000001FC0
FE0000001FC0
FE0000001FC0
FE0000001FC0
FE0000001FC0
FE0000001FC0
FE0000001FC0
FE0000001FC0
FE0000001FC0
FE0000001FC0
FE0000001FC0
FE0000001FC0
FE0000001FC0
FE0000001FC0
FE0000001FC0
FE0000001FC0
FE0000001FC0
FE0000001FC0
FE0000001FC0
FC0000001FC0
780000000F80
30FFFFFFC700
01FFFFFFE200
03FFFFFFF000
07FFFFFFF800
03FFFFFFF000
01FFFFFFE200
30FFFFFFC700
780000000F80
FC0000001FC0
FE0000001FC0
FE0000001FC0
FE0000001FC0
FE0000001FC0
FE0000001FC0
FE0000001FC0
FE0000001FC0
FE0000001FC0
FE0000001FC0
FE0000001FC0
FE0000001FC0
FE0000001FC0
FE0000001FC0
FE0000001FC0
FE0000001FC0
FE0000001FC0
FE0000001FC0
FE0000001FC0
FE0000001FC0
FE0000001FC0
FE0000001FC0
FE0000001FC0
FE0000001FC0
FE0000001FC0
FE0000001FC0
FE0000001FC0
FE0000001FC0
FE0000001FC0
FE0000001FC0
FE0000001FC0
7C0000000F80
380000000700
100000000200
ENDCHAR
STARTCHAR 00E3
ENCODING 227
SWIDTH 504 0
DWIDTH 56 0
BBX 42 78 7 0
BITMAP
00FFFFFFC000
01FFFFFFE000
03FFFFFFF000
07FFFFFFF800
03FFFFFFF000
01FFFFFFE200
30FFFFFFC700
780000000F80
FC0000001FC0
FE0000001FC0
FE0000001FC0
FE0000001FC0
FE0000001FC0
FE0000001FC0
FE0000001FC0
FE0000001FC0
FE0000001FC0
FE0000001FC0
FE0000001FC0
FE0000001FC0
FE0000001FC0
FE0000001FC0
FE0000001FC0
FE0000001FC0
FE0000001FC0
FE0000001FC0
FE0000001FC0
FE0000001FC0
FE0000001FC0
FE0000001FC0
FE0000001FC0
FE0000001FC0
FE0000001FC0
FE0000001FC0
FC0000001FC0
780000000F80
30FFFFFFC700
01FFFFFFE200
03FFFFFFF000
07FFFFFFF800
03FFFFFFF000
01FFFFFFE200
30FFFFFFC700
780000000F80
FC0000001FC0
FE0000001FC0
FE0000001FC0
FE0000001FC0
FE0000001FC0
FE0000001FC0
FE0000001FC0
FE0000001FC0
FE0000001FC0
FE0000001FC0
FE0000001FC0
FE0000001FC0
FE0000001FC0
FE0000001FC0
FE0000001FC0
FE0000001FC0
FE0000001FC0
FE0000001FC0
FE0000001FC0
FE0000001FC0
FE0000001FC0
FE0000001FC0
FE0000001FC0
FE0000001FC0
FE0000001FC0
FE0000001FC0
FE0000001FC0
FE0000001FC0
FE0000001FC0
FE0000001FC0
FE0000001FC0
7C0000000F80
380000000700
100000000200
ENDCHAR
STARTCHAR 00E4
ENCODING 228
SWIDTH 504 0
DWIDTH 56 0
BBX 42 78 7 0
BITMAP
00FFFFFFC000
01FFFFFFE000
03FFFFFFF000
07FFFFFFF800
03FFFFFFF000
01FFFFFFE200
30FFFFFFC700
780000000F80
FC0000001FC0
FE0000001FC0
FE0000001FC0
FE0000001FC0
FE0000001FC0
FE0000001FC0
FE0000001FC0
FE0000001FC0
FE0000001FC0
FE0000001FC0
FE0000001FC0
FE0000001FC0
FE0000001FC0
FE0000001FC0
FE0000001FC0
FE0000001FC0
FE0000001FC0
FE0000001FC0
FE0000001FC0
FE0000001FC0
FE0000001FC0
FE0000001FC0
FE0000001FC0
FE0000001FC0
FE0000001FC0
FE0000001FC0
FC0000001FC0
780000000F80
30FFFFFFC700
01FFFFFFE200
03FFFFFFF000
07FFFFFFF800
03FFFFFFF000
01FFFFFFE200
30FFFFFFC700
780000000F80
FC0000001FC0
FE0000001FC0
FE0000001FC0
FE0000001FC0
FE0000001FC0
FE0000001FC0
FE0000001FC0
FE0000001FC0
FE0000001FC0
FE0000001FC0
FE0000001FC0
FE0000001FC0
FE0000001FC0
FE0000001FC0
FE0000001FC0
FE0000001FC0
FE0000001FC0
FE0000001FC0
FE0000001FC0
FE0000001FC0
FE0000001FC0
FE0000001FC0
FE0000001FC0
FE0000001FC0
FE0000001FC0
FE0000001FC0
FE0000001FC0
FE0000001FC0
FE0000001FC0
FE0000001FC0
FE0000001FC0
7C0000000F80
380000000700
100000000200
ENDCHAR
STARTCHAR 00E7
ENCODING 231
SWIDTH 450 0
DWIDTH 50 0
BBX 37 92 7 -14
BITMAP
00FFFFFFC0
01FFFFFFE0
03FFFFFFF0
07FFFFFFF8
03FFFFFFF0
01FFFFFFE0
30FFFFFFC0
7800000000
FC00000000
FE00000000
FE00000000
FE00000000
FE00000000
FE00000000
FE00000000
FE00000000
FE00000000
FE00000000
FE00000000
FE00000000
FE00000000
FE00000000
FE00000000
FE00000000
FE00000000
FE00000000
FE00000000
FE00000000
FE00000000
FE00000000
FE00000000
FE00000000
FE00000000
FE00000000
7C00000000
7800000000
3000000000
0000000000
0000000000
0000000000
0000000000
3000000000
7800000000
FC00000000
FE00000000
FE00000000
FE00000000
FE00000000
FE00000000
FE00000000
FE00000000
FE00000000
FE00000000
FE00000000
FE00000000
FE00000000
FE00000000
FE00000000
FE00000000
FE00000000
FE00000000
FE00000000
FE00000000
FE00000000
FE00000000
FE00000000
FE00000000
FE00000000
FE00000000
FC00000000
7800000000
30FFFFFFC0
01FFFFFFE0
03FFFFFFF0
07FFFFFFF8
03FFFFFFF0
01FFFFFFE0
00FFFFFFC0
0000000000
0000000000
0000000000
0000000000
0000600000
0000F00000
0001F80000
0001FC0000
0001FC0000
0001FC0000
0001FC0000
0001F80000
0000F00000
0000600000
ENDCHAR
STARTCHAR 00E8
ENCODING 232
SWIDTH 450 0
DWIDTH 50 0
BBX 37 78 7 0
BITMAP
00FFFFFFC0
01FFFFFFE0
03FFFFFFF0
07FFFFFFF8
03FFFFFFF0
01FFFFFFE0
30FFFFFFC0
7C00000000
FE00000000
FE00000000
FE00000000
FE00000000
FE00000000
FE00000000
FE00000000
FE00000000
FE00000000
FE00000000
FE00000000
FE00000000
FE00000000
FE00000000
FE00000000
FE00000000
FE00000000
FE00000000
FE00000000
FE00000000
FE00000000
FE00000000
FE00000000
FE00000000
FE00000000
FC00000000
7800000000
30FFFFFFC0
01FFFFFFE0
03FFFFFFF0
07FFFFFFF8
03FFFFFFF0
01FFFFFFE0
30FFFFFFC0
7800000000
FC00000000
FE00000000
FE00000000
FE00000000
FE00000000
FE00000000
FE00000000
FE00000000
FE00000000
FE00000000
FE00000000
FE00000000
FE00000000
FE00000000
FE00000000
FE00000000
FE00000000
FE00000000
FE00000000
FE00000000
FE00000000
FE00000000
FE00000000
FE00000000
FE00000000
FE00000000
FC00000000
7800000000
30FFFFFFC0
01FFFFFFE0
03FFFFFFF0
07FFFFFFF8
03FFFFFFF0
01FFFFFFE0
00FFFFFFC0
ENDCHAR
STARTCHAR 00E9
ENCODING 233
SWIDTH 450 0
DWIDTH 50 0
BBX 37 78 7 0
BITMAP
00FFFFFFC0
01FFFFFFE0
03FFFFFFF0
07FFFFFFF8
03FFFFFFF0
01FFFFFFE0
30FFFFFFC0
7C00000000
FE00000000
FE00000000
FE00000000
FE00000000
FE00000000
FE00000000
FE00000000
FE00000000
FE00000000
FE00000000
FE00000000
FE00000000
FE00000000
FE00000000
FE00000000
FE00000000
FE00000000
FE00000000
FE00000000
FE00000000
FE00000000
FE00000000
FE00000000
FE00000000
FE00000000
FC00000000
7800000000
30FFFFFFC0
01FFFFFFE0
03FFFFFFF0
07FFFFFFF8
03FFFFFFF0
01FFFFFFE0
30FFFFFFC0
7800000000
FC00000000
FE00000000
FE00000000
FE00000000
FE00000000
FE00000000
FE00000000
FE00000000
FE00000000
FE00000000
FE00000000
FE00000000
FE00000000
FE00000000
FE00000000
FE00000000
FE00000000
FE00000000
FE00000000
FE00000000
FE00000000
FE00000000
FE00000000
FE00000000
FE00000000
FE00000000
FC00000000
7800000000
30FFFFFFC0
01FFFFFFE0
03FFFFFFF0
07FFFFFFF8
03FFFFFFF0
01FFFFFFE0
00FFFFFFC0
ENDCHAR
STARTCHAR 00EA
ENCODING 234
SWIDTH 450 0
DWIDTH 50 0
BBX 37 78 7 0
BITMAP
00FFFFFFC0
01FFFFFFE0
03FFFFFFF0
07FFFFFFF8
03FFFFFFF0
01FFFFFFE0
30FFFFFFC0
7C00000000
FE00000000
FE00000000
FE00000000
FE00000000
FE00000000
FE00000000
FE00000000
FE00000000
FE00000000
FE00000000
FE00000000
FE00000000
FE00000000
FE00000000
FE00000000
FE00000000
FE00000000
FE00000000
FE00000000
FE00000000
FE00000000
FE00000000
FE00000000
FE00000000
FE00000000
FC00000000
7800000000
30FFFFFFC0
01FFFFFFE0
03FFFFFFF0
07FFFFFFF8
03FFFFFFF0
01FFFFFFE0
30FFFFFFC0
7800000000
FC00000000
FE00000000
FE00000000
FE00000000
FE00000000
FE00000000
FE00000000
FE00000000
FE00000000
FE00000000
FE00000000
FE00000000
FE00000000
FE00000000
FE00000000
FE00000000
FE00000000
FE00000000
FE00000000
FE00000000
FE00000000
FE00000000
FE00000000
FE00000000
FE00000000
FE00000000
FC00000000
7800000000
30FFFFFFC0
01FFFFFFE0
03FFFFFFF0
07FFFFFFF8
03FFFFFFF0
01FFFFFFE0
00FFFFFFC0
ENDCHAR
STARTCHAR 00EC
ENCODING 236
SWIDTH 180 0
DWIDTH 20 0
BBX 7 78 7 0
BITMAP
10
38
7C
FE
FE
FE
FE
FE
FE
FE
FE
FE
FE
FE
FE
FE
FE
FE
FE
FE
FE
FE
FE
FE
FE
FE
FE
FE
FE
FE
FE
FE
FE
FE
FC
78
30
00
00
00
00
30
78
FC
FE
FE
FE
FE
FE
FE
FE
FE
FE
FE
FE
FE
FE
FE
FE
FE
FE
FE
FE
FE
FE
FE
FE
FE
FE
FE
FE
FE
FE
FE
FE
7C
38
10
ENDCHAR
STARTCHAR 00ED
ENCODING 237
SWIDTH 180 0
DWIDTH 20 0
BBX 7 78 7 0
BITMAP
10
38
7C
FE
FE
FE
FE
FE
FE
FE
FE
FE
FE
FE
FE
FE
FE
FE
FE
FE
FE
FE
FE
FE
FE
FE
FE
FE
FE
FE
FE
FE
FE
FE
FC
78
30
00
00
00
00
30
78
FC
FE
FE
FE
FE
FE
FE
FE
FE
FE
FE
FE
FE
FE
FE
FE
FE
FE
FE
FE
FE
FE
FE
FE
FE
FE
FE
FE
FE
FE
FE
FE
7C
38
10
ENDCHAR
STARTCHAR 00EE
ENCODING 238
SWIDTH 180 0
DWIDTH 20 0
BBX 7 78 7 0
BITMAP
10
38
7C
FE
FE
FE
FE
FE
FE
FE
FE
FE
FE
FE
FE
FE
FE
FE
FE
FE
FE
FE
FE
FE
FE
FE
FE
FE
FE
FE
FE
FE
FE
FE
FC
78
30
00
00
00
00
30
78
FC
FE
FE
FE
FE
FE
FE
FE
FE
FE
FE
FE
FE
FE
FE
FE
FE
FE
FE
FE
FE
FE
FE
FE
FE
FE
FE
FE
FE
FE
FE
FE
7C
38
10
ENDCHAR
STARTCHAR 00F2
ENCODING 242
SWIDTH 504 0
DWIDTH 56 0
BBX 42 78 7 0
BITMAP
00FFFFFFC000
01FFFFFFE000
03FFFFFFF000
07FFFFFFF800
03FFFFFFF000
01FFFFFFE200
30FFFFFFC700
780000000F80
FC0000001FC0
FE0000001FC0
FE0000001FC0
FE0000001FC0
FE0000001FC0
FE0000001FC0
FE0000001FC0
FE0000001FC0
FE0000001FC0
FE0000001FC0
FE0000001FC0
FE0000001FC0
FE0000001FC0
FE0000001FC0
FE0000001FC0
FE0000001FC0
FE0000001FC0
FE0000001FC0
FE0000001FC0
FE0000001FC0
FE0000001FC0
FE0000001FC0
FE0000001FC0
FE0000001FC0
FE0000001FC0
FE0000001FC0
7C0000000F80
780000000700
300000000200
000000000000
000000000000
000000000000
000000000000
300000000200
780000000700
FC0000000F80
FE0000001FC0
FE0000001FC0
FE0000001FC0
FE0000001FC0
FE0000001FC0
FE0000001FC0
FE0000001FC0
FE0000001FC0
FE0000001FC0
FE0000001FC0
FE0000001FC0
FE0000001FC0
FE0000001FC0
FE0000001FC0
FE0000001FC0
FE0000001FC0
FE0000001FC0
FE0000001FC0
FE0000001FC0
FE0000001FC0
FE0000001FC0
FE0000001FC0
FE0000001FC0
FE0000001FC0
FE0000001FC0
FC0000001FC0
780000000F80
30FFFFFFC700
01FFFFFFE200
03FFFFFFF000
07FFFFFFF800
03FFFFFFF000
01FFFFFFE000
00FFFFFFC000
ENDCHAR
STARTCHAR 00F3
ENCODING 243
SWIDTH 504 0
DWIDTH 56 0
BBX 42 78 7 0
BITMAP
00FFFFFFC000
01FFFFFFE000
03FFFFFFF000
07FFFFFFF800
03FFFFFFF000
01FFFFFFE200
30FFFFFFC700
780000000F80
FC0000001FC0
FE0000001FC0
FE0000001FC0
FE0000001FC0
FE0000001FC0
FE0000001FC0
FE0000001FC0
FE0000001FC0
FE0000001FC0
FE0000001FC0
FE0000001FC0
FE0000001FC0
FE0000001FC0
FE0000001FC0
FE0000001FC0
FE0000001FC0
FE0000001FC0
FE0000001FC0
FE0000001FC0
FE0000001FC0
FE0000001FC0
FE0000001FC0
FE0000001FC0
FE0000001FC0
FE0000001FC0
FE0000001FC0
7C0000000F80
780000000700
300000000200
000000000000
000000000000
000000000000
000000000000
300000000200
780000000700
FC0000000F80
FE0000001FC0
FE0000001FC0
FE0000001FC0
FE0000001FC0
FE0000001FC0
FE0000001FC0
FE0000001FC0
FE0000001FC0
FE0000001FC0
FE0000001FC0
FE0000001FC0
FE0000001FC0
FE0000001FC0
FE0000001FC0
FE0000001FC0
FE0000001FC0
FE0000001FC0
FE0000001FC0
FE0000001FC0
FE0000001FC0
FE0000001FC0
FE0000001FC0
FE0000001FC0
FE0000001FC0
FE0000001FC0
FC0000001FC0
780000000F80
30FFFFFFC700
01FFFFFFE200
03FFFFFFF000
07FFFFFFF800
03FFFFFFF000
01FFFFFFE000
00FFFFFFC000
ENDCHAR
STARTCHAR 00F4
ENCODING 244
SWIDTH 504 0
DWIDTH 56 0
BBX 42 78 7 0
BITMAP
00FFFFFFC000
01FFFFFFE000
03FFFFFFF000
07FFFFFFF800
03FFFFFFF000
01FFFFFFE200
30FFFFFFC700
780000000F80
FC0000001FC0
FE0000001FC0
FE0000001FC0
FE0000001FC0
FE0000001FC0
FE0000001FC0
FE0000001FC0
FE0000001FC0
FE0000001FC0
FE0000001FC0
FE0000001FC0
FE0000001FC0
FE0000001FC0
FE0000001FC0
FE0000001FC0
FE0000001FC0
FE0000001FC0
FE0000001FC0
FE0000001FC0
FE0000001FC0
FE0000001FC0
FE0000001FC0
FE0000001FC0
FE0000001FC0
FE0000001FC0
FE0000001FC0
7C0000000F80
780000000700
300000000200
000000000000
000000000000
000000000000
000000000000
300000000200
780000000700
FC0000000F80
FE0000001FC0
FE0000001FC0
FE0000001FC0
FE0000001FC0
FE0000001FC0
FE0000001FC0
FE0000001FC0
FE0000001FC0
FE0000001FC0
FE0000001FC0
FE0000001FC0
FE0000001FC0
FE0000001FC0
FE0000001FC0
FE0000001FC0
FE0000001FC0
FE0000001FC0
FE0000001FC0
FE0000001FC0
FE0000001FC0
FE0000001FC0
FE0000001FC0
FE0000001FC0
FE0000001FC0
FE0000001FC0
FC0000001FC0
780000000F80
30FFFFFFC700
01FFFFFFE200
03FFFFFFF000
07FFFFFFF800
03FFFFFFF000
01FFFFFFE000
00FFFFFFC000
ENDCHAR
STARTCHAR 00F5
ENCODING 245
SWIDTH 504 0
DWIDTH 56 0
BBX 42 78 7 0
BITMAP
00FFFFFFC000
01FFFFFFE000
03FFFFFFF000
07FFFFFFF800
03FFFFFFF000
01FFFFFFE200
30FFFFFFC700
780000000F80
FC0000001FC0
FE0000001FC0
FE0000001FC0
FE0000001FC0
FE0000001FC0
FE0000001FC0
FE0000001FC0
FE0000001FC0
FE0000001FC0
FE0000001FC0
FE0000001FC0
FE0000001FC0
FE0000001FC0
FE0000001FC0
FE0000001FC0
FE0000001FC0
FE0000001FC0
FE0000001FC0
FE0000001FC0
FE0000001FC0
FE0000001FC0
FE0000001FC0
FE0000001FC0
FE0000001FC0
FE0000001FC0
FE0000001FC0
7C0000000F80
780000000700
300000000200
000000000000
000000000000
000000000000
000000000000
300000000200
780000000700
FC0000000F80
FE0000001FC0
FE0000001FC0
FE0000001FC0
FE0000001FC0
FE0000001FC0
FE0000001FC0
FE0000001FC0
FE0000001FC0
FE0000001FC0
FE0000001FC0
FE0000001FC0
FE0000001FC0
FE0000001FC0
FE0000001FC0
FE0000001FC0
FE0000001FC0
FE0000001FC0
FE0000001FC0
FE0000001FC0
FE0000001FC0
FE0000001FC0
FE0000001FC0
FE0000001FC0
FE0000001FC0
FE0000001FC0
FC0000001FC0
780000000F80
30FFFFFFC700
01FFFFFFE200
03FFFFFFF000
07FFFFFFF800
03FFFFFFF000
01FFFFFFE000
00FFFFFFC000
ENDCHAR
STARTCHAR 00F6
ENCODING 246
SWIDTH 504 0
DWIDTH 56 0
BBX 42 92 7 0
BITMAP
001800040000
003C000E0000
007E001F0000
00FF003F8000
00FF003F8000
00FF003F8000
00FF003F8000
00FF003F8000
007E001F0000
003C000E0000
001800040000
000000000000
000000000000
000000000000
00FFFFFFC000
01FFFFFFE000
03FFFFFFF000
07FFFFFFF800
03FFFFFFF000
01FFFFFFE200
30FFFFFFC700
780000000F80
FC0000001FC0
FE0000001FC0
FE0000001FC0
FE0000001FC0
FE0000001FC0
FE0000001FC0
FE0000001FC0
FE0000001FC0
FE0000001FC0
FE0000001FC0
FE0000001FC0
FE0000001FC0
FE0000001FC0
FE0000001FC0
FE0000001FC0
FE0000001FC0
FE0000001FC0
FE0000001FC0
FE0000001FC0
FE0000001FC0
FE0000001FC0
FE0000001FC0
FE0000001FC0
FE0000001FC0
FE0000001FC0
FE0000001FC0
7C0000000F80
780000000700
300000000200
000000000000
000000000000
000000000000
000000000000
300000000200
780000000700
FC0000000F80
FE0000001FC0
FE0000001FC0
FE0000001FC0
FE0000001FC0
FE0000001FC0
FE0000001FC0
FE0000001FC0
FE0000001FC0
FE0000001FC0
FE0000001FC0
FE0000001FC0
FE0000001FC0
FE0000001FC0
FE0000001FC0
FE0000001FC0
FE0000001FC0
FE0000001FC0
FE0000001FC0
FE0000001FC0
FE0000001FC0
FE0000001FC0
FE0000001FC0
FE0000001FC0
FE0000001FC0
FE0000001FC0
FC0000001FC0
780000000F80
30FFFFFFC700
01FFFFFFE200
03FFFFFFF000
07FFFFFFF800
03FFFFFFF000
01FFFFFFE000
00FFFFFFC000
ENDCHAR
STARTCHAR 00F7
ENCODING 247
SWIDTH 549 0
DWIDTH 61 0
BBX 47 43 7 0
BITMAP
000001000000
000003800000
000007C00000
00000FE00000
00000FE00000
00000FE00000
00000FE00000
000007C00000
000007800000
000003000000
000000000000
000000000000
000000000000
000000000000
000000000000
000000000000
000000000000
000000000000
1FFFFFFFFFF0
3FFFFFFFFFF8
7FFFFFFFFFFC
FFFFFFFFFFFE
7FFFFFFFFFFC
3FFFFFFFFFF8
1FFFFFFFFFF0
000000000000
000000000000
000000000000
000000000000
000000000000
000000000000
000000000000
000001000000
000003800000
000007C00000
00000FE00000
00000FE00000
00000FE00000
00000FE00000
00000FE00000
000007C00000
000003800000
000001000000
ENDCHAR
STARTCHAR 00F9
ENCODING 249
SWIDTH 504 0
DWIDTH 56 0
BBX 42 78 7 0
BITMAP
100000000200
380000000700
7C0000000F80
FE0000001FC0
FE0000001FC0
FE0000001FC0
FE0000001FC0
FE0000001FC0
FE0000001FC0
FE0000001FC0
FE0000001FC0
FE0000001FC0
FE0000001FC0
FE0000001FC0
FE0000001FC0
FE0000001FC0
FE0000001FC0
FE0000001FC0
FE0000001FC0
FE0000001FC0
FE0000001FC0
FE0000001FC0
FE0000001FC0
FE0000001FC0
FE0000001FC0
FE0000001FC0
FE0000001FC0
FE0000001FC0
FE0000001FC0
FE0000001FC0
FE0000001FC0
FE0000001FC0
FE0000001FC0
FE0000001FC0
FC0000000F80
780000000700
300000000200
000000000000
000000000000
000000000000
000000000000
100000000200
380000000700
7C0000000F80
FE0000001FC0
FE0000001FC0
FE0000001FC0
FE0000001FC0
FE0000001FC0
FE0000001FC0
FE0000001FC0
FE0000001FC0
FE0000001FC0
FE0000001FC0
FE0000001FC0
FE0000001FC0
FE0000001FC0
FE0000001FC0
FE0000001FC0
FE0000001FC0
FE0000001FC0
FE0000001FC0
FE0000001FC0
FE0000001FC0
FE0000001FC0
FE0000001FC0
FE0000001FC0
FE0000001FC0
FE0000001FC0
FC0000001FC0
780000000F80
30FFFFFFC700
01FFFFFFE200
03FFFFFFF000
07FFFFFFF800
03FFFFFFF000
01FFFFFFE000
00FFFFFFC000
ENDCHAR
STARTCHAR 00FA
ENCODING 250
SWIDTH 504 0
DWIDTH 56 0
BBX 42 78 7 0
BITMAP
100000000200
380000000700
7C0000000F80
FE0000001FC0
FE0000001FC0
FE0000001FC0
FE0000001FC0
FE0000001FC0
FE0000001FC0
FE0000001FC0
FE0000001FC0
FE0000001FC0
FE0000001FC0
FE0000001FC0
FE0000001FC0
FE0000001FC0
FE0000001FC0
FE0000001FC0
FE0000001FC0
FE0000001FC0
FE0000001FC0
FE0000001FC0
FE0000001FC0
FE0000001FC0
FE0000001FC0
FE0000001FC0
FE0000001FC0
FE0000001FC0
FE0000001FC0
FE0000001FC0
FE0000001FC0
FE0000001FC0
FE0000001FC0
FE0000001FC0
FC0000000F80
780000000700
300000000200
000000000000
000000000000
000000000000
000000000000
100000000200
380000000700
7C0000000F80
FE0000001FC0
FE0000001FC0
FE0000001FC0
FE0000001FC0
FE0000001FC0
FE0000001FC0
FE0000001FC0
FE0000001FC0
FE0000001FC0
FE0000001FC0
FE0000001FC0
FE0000001FC0
FE0000001FC0
FE0000001FC0
FE0000001FC0
FE0000001FC0
FE0000001FC0
FE0000001FC0
FE0000001FC0
FE0000001FC0
FE0000001FC0
FE0000001FC0
FE0000001FC0
FE0000001FC0
FE0000001FC0
FC0000001FC0
780000000F80
30FFFFFFC700
01FFFFFFE200
03FFFFFFF000
07FFFFFFF800
03FFFFFFF000
01FFFFFFE000
00FFFFFFC000
ENDCHAR
STARTCHAR 00FC
ENCODING 252
SWIDTH 504 0
DWIDTH 56 0
BBX 42 92 7 0
BITMAP
001800040000
003C000E0000
007E001F0000
00FF003F8000
00FF003F8000
00FF003F8000
00FF003F8000
00FF003F8000
007E001F0000
003C000E0000
001800040000
000000000000
000000000000
000000000000
100000000200
380000000700
7C0000000F80
FE0000001FC0
FE0000001FC0
FE0000001FC0
FE0000001FC0
FE0000001FC0
FE0000001FC0
FE0000001FC0
FE0000001FC0
FE0000001FC0
FE0000001FC0
FE0000001FC0
FE0000001FC0
FE0000001FC0
FE0000001FC0
FE0000001FC0
FE0000001FC0
FE0000001FC0
FE0000001FC0
FE0000001FC0
FE0000001FC0
FE0000001FC0
FE0000001FC0
FE0000001FC0
FE0000001FC0
FE0000001FC0
FE0000001FC0
FE0000001FC0
FE0000001FC0
FE0000001FC0
FE0000001FC0
FE0000001FC0
FC0000000F80
780000000700
300000000200
000000000000
000000000000
000000000000
000000000000
100000000200
380000000700
7C0000000F80
FE0000001FC0
FE0000001FC0
FE0000001FC0
FE0000001FC0
FE0000001FC0
FE0000001FC0
FE0000001FC0
FE0000001FC0
FE0000001FC0
FE0000001FC0
FE0000001FC0
FE0000001FC0
FE0000001FC0
FE0000001FC0
FE0000001FC0
FE0000001FC0
FE0000001FC0
FE0000001FC0
FE0000001FC0
FE0000001FC0
FE0000001FC0
FE0000001FC0
FE0000001FC0
FE0000001FC0
FE0000001FC0
FC0000001FC0
780000000F80
30FFFFFFC700
01FFFFFFE200
03FFFFFFF000
07FFFFFFF800
03FFFFFFF000
01FFFFFFE000
00FFFFFFC000
ENDCHAR
STARTCHAR 00FD
ENCODING 253
SWIDTH 504 0
DWIDTH 56 0
BBX 42 78 7 0
BITMAP
100000000200
380000000700
7C0000000F80
FE0000001FC0
FE0000001FC0
FE0000001FC0
FE0000001FC0
FE0000001FC0
FE0000001FC0
FE0000001FC0
FE0000001FC0
FE0000001FC0
FE0000001FC0
FE0000001FC0
FE0000001FC0
FE0000001FC0
FE0000001FC0
FE0000001FC0
FE0000001FC0
FE0000001FC0
FE0000001FC0
FE0000001FC0
FE0000001FC0
FE0000001FC0
FE0000001FC0
FE0000001FC0
FE0000001FC0
FE0000001FC0
FE0000001FC0
FE0000001FC0
FE0000001FC0
FE0000001FC0
FE0000001FC0
FC0000001FC0
780000000F80
30FFFFFFC700
01FFFFFFE200
03FFFFFFF000
07FFFFFFF800
03FFFFFFF000
01FFFFFFE200
00FFFFFFC700
000000000F80
000000001FC0
000000001FC0
000000001FC0
000000001FC0
000000001FC0
000000001FC0
000000001FC0
000000001FC0
000000001FC0
000000001FC0
000000001FC0
000000001FC0
000000001FC0
000000001FC0
000000001FC0
000000001FC0
000000001FC0
000000001FC0
000000001FC0
000000001FC0
000000001FC0
000000001FC0
000000001FC0
000000001FC0
000000001FC0
000000001FC0
000000001FC0
000000000F80
00FFFFFFC700
01FFFFFFE200
03FFFFFFF000
07FFFFFFF800
03FFFFFFF000
01FFFFFFE000
00FFFFFFC000
ENDCHAR
STARTCHAR 2000
ENCODING 8192
SWIDTH 432 0
DWIDTH 48 0
BBX 0 0 0 0
BITMAP
ENDCHAR
STARTCHAR 2001
ENCODING 8193
SWIDTH 864 0
DWIDTH 96 0
BBX 0 0 0 0
BITMAP
ENDCHAR
STARTCHAR 2002
ENCODING 8194
SWIDTH 432 0
DWIDTH 48 0
BBX 0 0 0 0
BITMAP
ENDCHAR
STARTCHAR 2003
ENCODING 8195
SWIDTH 864 0
DWIDTH 96 0
BBX 0 0 0 0
BITMAP
ENDCHAR
STARTCHAR 2004
ENCODING 8196
SWIDTH 288 0
DWIDTH 32 0
BBX 0 0 0 0
BITMAP
ENDCHAR
STARTCHAR 2005
ENCODING 8197
SWIDTH 216 0
DWIDTH 24 0
BBX 0 0 0 0
BITMAP
ENDCHAR
STARTCHAR 2006
ENCODING 8198
SWIDTH 144 0
DWIDTH 16 0
BBX 0 0 0 0
BITMAP
ENDCHAR
STARTCHAR 2007
ENCODING 8199
SWIDTH 144 0
DWIDTH 16 0
BBX 0 0 0 0
BITMAP
ENDCHAR
STARTCHAR 2008
ENCODING 8200
SWIDTH 108 0
DWIDTH 12 0
BBX 0 0 0 0
BITMAP
ENDCHAR
STARTCHAR 2009
ENCODING 8201
SWIDTH 171 0
DWIDTH 19 0
BBX 0 0 0 0
BITMAP
ENDCHAR
STARTCHAR 200A
ENCODING 8202
SWIDTH 45 0
DWIDTH 5 0
BBX 0 0 0 0
BITMAP
ENDCHAR
STARTCHAR 2010
ENCODING 8208
SWIDTH 405 0
DWIDTH 45 0
BBX 31 7 7 35
BITMAP
3FFFFFF8
7FFFFFFC
FFFFFFFE
FFFFFFFE
7FFFFFFC
3FFFFFF8
1FFFFFF0
ENDCHAR
STARTCHAR 2011
ENCODING 8209
SWIDTH 405 0
DWIDTH 45 0
BBX 31 7 7 35
BITMAP
3FFFFFF8
7FFFFFFC
FFFFFFFE
FFFFFFFE
7FFFFFFC
3FFFFFF8
1FFFFFF0
ENDCHAR
STARTCHAR 2012
ENCODING 8210
SWIDTH 405 0
DWIDTH 45 0
BBX 31 7 7 35
BITMAP
3FFFFFF8
7FFFFFFC
FFFFFFFE
FFFFFFFE
7FFFFFFC
3FFFFFF8
1FFFFFF0
ENDCHAR
STARTCHAR 2013
ENCODING 8211
SWIDTH 621 0
DWIDTH 69 0
BBX 55 7 7 35
BITMAP
0FFFFFFFFFFFE0
1FFFFFFFFFFFF0
7FFFFFFFFFFFFC
FFFFFFFFFFFFFE
3FFFFFFFFFFFF8
0FFFFFFFFFFFE0
07FFFFFFFFFF80
ENDCHAR
STARTCHAR 2014
ENCODING 8212
SWIDTH 1116 0
DWIDTH 124 0
BBX 109 7 8 35
BITMAP
00FFFFFFFFFFFFFFFFFFFFFFF000
0FFFFFFFFFFFFFFFFFFFFFFFFF00
7FFFFFFFFFFFFFFFFFFFFFFFFFE0
FFFFFFFFFFFFFFFFFFFFFFFFFFF8
1FFFFFFFFFFFFFFFFFFFFFFFFF80
01FFFFFFFFFFFFFFFFFFFFFFFC00
003FFFFFFFFFFFFFFFFFFFFFC000
ENDCHAR
STARTCHAR 2018
ENCODING 8216
SWIDTH 270 0
DWIDTH 30 0
BBX 16 25 7 -14
BITMAP
0006
003F
003F
007F
007F
00FF
01FF
01FE
03FC
03FC
07F8
07F8
0FF0
1FF0
1FE0
3FC0
3FC0
7F80
7F80
FF00
FF00
FE00
FC00
7C00
6000
ENDCHAR
STARTCHAR 201C
ENCODING 8220
SWIDTH 279 0
DWIDTH 31 0
BBX 17 11 7 67
BITMAP
100400
380E00
7C1F00
FE1F80
FE3F80
FE3F80
FE3F80
FE1F80
7C1F00
380E00
100400
ENDCHAR
STARTCHAR 202F
ENCODING 8239
SWIDTH 171 0
DWIDTH 19 0
BBX 0 0 0 0
BITMAP
ENDCHAR
STARTCHAR 205F
ENCODING 8287
SWIDTH 216 0
DWIDTH 24 0
BBX 0 0 0 0
BITMAP
ENDCHAR
STARTCHAR 20AC
ENCODING 8364
SWIDTH 450 0
DWIDTH 50 0
BBX 37 78 7 0
BITMAP
00FFFFFFC0
01FFFFFFE0
03FFFFFFF0
07FFFFFFF8
03FFFFFFF0
01FFFFFFE0
30FFFFFFC0
7C00000000
FE00000000
FE00000000
FE00000000
FE00000000
FE00000000
FE00000000
FE00000000
FE00000000
FE00000000
FE00000000
FE00000000
FE03FFF000
FE07FFF800
FE0FFFFC00
FE1FFFFE00
FE0FFFFC00
FE07FFF800
FE03FFF000
FE00000000
FE00000000
FE00000000
FE00000000
FE00000000
FE00000000
FE00000000
FC00000000
7800000000
30FFFFFFC0
01FFFFFFE0
03FFFFFFF0
07FFFFFFF8
03FFFFFFF0
01FFFFFFE0
30FFFFFFC0
7800000000
FC00000000
FE00000000
FE00000000
FE00000000
FE00000000
FE00000000
FE00000000
FE00000000
FE00000000
FE03FFF000
FE07FFF800
FE0FFFFC00
FE1FFFFE00
FE0FFFFC00
FE07FFF800
FE03FFF000
FE00000000
FE00000000
FE00000000
FE00000000
FE00000000
FE00000000
FE00000000
FE00000000
FE00000000
FE00000000
FC00000000
7800000000
30FFFFFFC0
01FFFFFFE0
03FFFFFFF0
07FFFFFFF8
03FFFFFFF0
01FFFFFFE0
00FFFFFFC0
ENDCHAR
STARTCHAR 25FC
ENCODING 9724
SWIDTH 702 0
DWIDTH 78 0
BBX 78 78 0 0
BITMAP
FFFFFFFFFFFFFFFFFFFC
FFFFFFFFFFFFFFFFFFFC
FFFFFFFFFFFFFFFFFFFC
FFFFFFFFFFFFFFFFFFFC
FFFFFFFFFFFFFFFFFFFC
FFFFFFFFFFFFFFFFFFFC
FFFFFFFFFFFFFFFFFFFC
FFFFFFFFFFFFFFFFFFFC
FFFFFFFFFFFFFFFFFFFC
FFFFFFFFFFFFFFFFFFFC
FFFFFFFFFFFFFFFFFFFC
FFFFFFFFFFFFFFFFFFFC
FFFFFFFFFFFFFFFFFFFC
FFFFFFFFFFFFFFFFFFFC
FFFFFFFFFFFFFFFFFFFC
FFFFFFFFFFFFFFFFFFFC
FFFFFFFFFFFFFFFFFFFC
FFFFFFFFFFFFFFFFFFFC
FFFFFFFFFFFFFFFFFFFC
FFFFFFFFFFFFFFFFFFFC
FFFFFFFFFFFFFFFFFFFC
FFFFFFFFFFFFFFFFFFFC
FFFFFFFFFFFFFFFFFFFC
FFFFFFFFFFFFFFFFFFFC
FFFFFFFFFFFFFFFFFFFC
FFFFFFFFFFFFFFFFFFFC
FFFFFFFFFFFFFFFFFFFC
FFFFFFFFFFFFFFFFFFFC
FFFFFFFFFFFFFFFFFFFC
FFFFFFFFFFFFFFFFFFFC
FFFFFFFFFFFFFFFFFFFC
FFFFFFFFFFFFFFFFFFFC
FFFFFFFFFFFFFFFFFFFC
FFFFFFFFFFFFFFFFFFFC
FFFFFFFFFFFFFFFFFFFC
FFFFFFFFFFFFFFFFFFFC
FFFFFFFFFFFFFFFFFFFC
FFFFFFFFFFFFFFFFFFFC
FFFFFFFFFFFFFFFFFFFC
FFFFFFFFFFFFFFFFFFFC
FFFFFFFFFFFFFFFFFFFC
FFFFFFFFFFFFFFFFFFFC
FFFFFFFFFFFFFFFFFFFC
FFFFFFFFFFFFFFFFFFFC
FFFFFFFFFFFFFFFFFFFC
FFFFFFFFFFFFFFFFFFFC
FFFFFFFFFFFFFFFFFFFC
FFFFFFFFFFFFFFFFFFFC
FFFFFFFFFFFFFFFFFFFC
FFFFFFFFFFFFFFFFFFFC
FFFFFFFFFFFFFFFFFFFC
FFFFFFFFFFFFFFFFFFFC
FFFFFFFFFFFFFFFFFFFC
FFFFFFFFFFFFFFFFFFFC
FFFFFFFFFFFFFFFFFFFC
FFFFFFFFFFFFFFFFFFFC
FFFFFFFFFFFFFFFFFFFC
FFFFFFFFFFFFFFFFFFFC
FFFFFFFFFFFFFFFFFFFC
FFFFFFFFFFFFFFFFFFFC
FFFFFFFFFFFFFFFFFFFC
FFFFFFFFFFFFFFFFFFFC
FFFFFFFFFFFFFFFFFFFC
FFFFFFFFFFFFFFFFFFFC
FFFFFFFFFFFFFFFFFFFC
FFFFFFFFFFFFFFFFFFFC
FFFFFFFFFFFFFFFFFFFC
FFFFFFFFFFFFFFFFFFFC
FFFFFFFFFFFFFFFFFFFC
FFFFFFFFFFFFFFFFFFFC
FFFFFFFFFFFFFFFFFFFC
FFFFFFFFFFFFFFFFFFFC
FFFFFFFFFFFFFFFFFFFC
FFFFFFFFFFFFFFFFFFFC
FFFFFFFFFFFFFFFFFFFC
FFFFFFFFFFFFFFFFFFFC
FFFFFFFFFFFFFFFFFFFC
FFFFFFFFFFFFFFFFFFFC
ENDCHAR
ENDFONT
